<svg width="835" height="546" viewBox="0 0 835 546" fill="none" xmlns="http://www.w3.org/2000/svg">
<path d="M145.858 4.05469H136.922V201.982H145.858V4.05469Z" fill="#E0E0E0"/>
<path d="M135.447 5.58594H7.41013C7.34111 5.58594 7.28516 5.64357 7.28516 5.71466V202.123C7.28516 202.194 7.34111 202.252 7.41013 202.252H135.447C135.516 202.252 135.572 202.194 135.572 202.123V5.71466C135.572 5.64357 135.516 5.58594 135.447 5.58594Z" fill="#F5F5F5"/>
<path d="M136.922 203.787H5.92361C5.90609 203.787 5.88875 203.783 5.87271 203.776C5.85668 203.769 5.8423 203.758 5.83051 203.745C5.81873 203.732 5.8098 203.716 5.80431 203.699C5.79882 203.682 5.79689 203.663 5.79864 203.645V4.12173C5.79663 4.10432 5.79848 4.08668 5.80405 4.07012C5.80962 4.05356 5.81876 4.03851 5.83079 4.02612C5.84283 4.01373 5.85743 4.00431 5.87351 3.99857C5.88958 3.99283 5.90672 3.99093 5.92361 3.993H136.922C136.94 3.99119 136.958 3.99319 136.974 3.99884C136.991 4.0045 137.006 4.01369 137.019 4.02583C137.032 4.03797 137.042 4.05278 137.049 4.0693C137.056 4.08582 137.06 4.10368 137.06 4.12173V203.645C137.06 203.683 137.045 203.719 137.02 203.746C136.994 203.772 136.959 203.787 136.922 203.787ZM8.89802 200.762H133.961C133.997 200.762 134.032 200.747 134.058 200.721C134.084 200.694 134.098 200.658 134.098 200.62V7.24974C134.098 7.2317 134.095 7.21384 134.087 7.19732C134.08 7.18079 134.07 7.16599 134.057 7.15385C134.044 7.14171 134.029 7.13252 134.012 7.12686C133.996 7.1212 133.978 7.11921 133.961 7.12102H8.89802C8.88112 7.11895 8.86399 7.12085 8.84791 7.12659C8.83184 7.13233 8.81723 7.14174 8.8052 7.15414C8.79317 7.16653 8.78402 7.18158 8.77845 7.19814C8.77288 7.2147 8.77104 7.23234 8.77305 7.24974V200.582C8.76429 200.602 8.76085 200.625 8.76307 200.647C8.76529 200.669 8.77308 200.69 8.78569 200.709C8.7983 200.727 8.81529 200.741 8.83499 200.751C8.85468 200.76 8.8764 200.764 8.89802 200.762V200.762Z" fill="#EBEBEB"/>
<path d="M122.75 17.7109H20.3203C20.2513 17.7109 20.1953 17.7686 20.1953 17.8397V189.855C20.1953 189.926 20.2513 189.984 20.3203 189.984H122.75C122.819 189.984 122.875 189.926 122.875 189.855V17.8397C122.875 17.7686 122.819 17.7109 122.75 17.7109Z" fill="white"/>
<path d="M100.179 66.5547H42.6775C42.6361 66.5547 42.6025 66.5893 42.6025 66.6319V136.079C42.6025 136.122 42.6361 136.156 42.6775 136.156H100.179C100.22 136.156 100.254 136.122 100.254 136.079V66.6319C100.254 66.5893 100.22 66.5547 100.179 66.5547Z" fill="#EBEBEB"/>
<path d="M95.6928 127.633C95.7678 127.865 92.9184 129.152 87.5069 128.496C84.17 128.028 81.0018 126.7 78.2963 124.634C74.6161 121.805 72.0724 117.682 71.1477 113.049C70.6141 110.147 70.8399 107.151 71.8019 104.368C72.7638 101.586 74.4273 99.1171 76.6216 97.2156C77.8557 96.1253 79.2581 95.2551 80.7708 94.6411C82.4263 94.0087 84.2064 93.801 85.9572 94.0361C87.8814 94.2296 89.6969 95.0452 91.1437 96.3661C91.9531 97.1502 92.5625 98.1277 92.9178 99.2121C93.2731 100.297 93.3634 101.455 93.1808 102.583C92.7867 104.624 91.7917 106.489 90.3314 107.926C89.0506 109.237 87.5894 110.348 85.9947 111.221C82.8128 113.04 79.2687 114.083 75.6343 114.272C71.791 114.488 67.9653 113.596 64.5865 111.697C61.1054 109.696 58.2784 106.677 56.4631 103.021C54.594 99.2768 54.0759 94.9706 55.0009 90.8695C55.9223 86.8985 58.1255 83.3675 61.2497 80.8547C62.8008 79.6151 64.5706 78.6971 66.4611 78.1515C68.3788 77.6242 70.3885 77.5582 72.335 77.9584C74.388 78.3659 76.2567 79.4503 77.6589 81.0478C78.9991 82.6931 79.7375 84.77 79.746 86.9176C79.7615 88.8722 79.2835 90.7974 78.3588 92.5043C77.5048 94.0494 76.392 95.4266 75.0719 96.572C72.683 98.6368 69.8978 100.159 66.8985 101.039C64.1142 101.881 61.1896 102.113 58.3128 101.721C55.6266 101.345 53.0607 100.336 50.8143 98.7732C48.8903 97.4642 47.2589 95.7484 46.0285 93.7398C44.7981 91.7311 43.9969 89.4758 43.6782 87.1236C43.2902 83.5695 44.2334 79.9969 46.3152 77.1345C47.5581 75.3538 49.253 73.9598 51.2142 73.1055C52.5639 72.5777 53.3263 72.5906 53.3637 72.7321C53.4012 72.8737 52.7514 73.2213 51.6641 74.0194C50.129 75.1267 48.849 76.5682 47.9148 78.2416C46.4141 80.8001 45.8636 83.8318 46.3651 86.776C46.7452 88.6733 47.5064 90.4676 48.5997 92.0438C49.6931 93.62 51.0945 94.9432 52.7139 95.9284C54.6738 97.1137 56.8617 97.8431 59.1242 98.0654C61.3867 98.2878 63.6691 97.9978 65.8113 97.2156C68.2295 96.4076 70.4592 95.0928 72.36 93.3539C73.2927 92.5995 74.0512 91.6412 74.5807 90.5482C75.1102 89.4552 75.3975 88.2548 75.4219 87.0335C75.4159 85.9174 75.0113 84.8426 74.2852 84.014C73.5592 83.1855 72.5625 82.6611 71.4851 82.541C70.2381 82.3099 68.9566 82.3715 67.7359 82.7212C66.4439 83.1287 65.2363 83.779 64.1741 84.6392C61.9282 86.5118 60.3536 89.1032 59.7 92.0023C59.0352 94.9868 59.4251 98.1177 60.7998 100.833C62.2043 103.631 64.3776 105.941 67.0485 107.475C69.658 108.95 72.6107 109.658 75.5843 109.522C78.5171 109.393 81.3836 108.583 83.9701 107.153C85.1944 106.512 86.3225 105.693 87.3195 104.72C88.1476 103.962 88.739 102.967 89.0191 101.863C89.1028 101.452 89.0836 101.026 88.9633 100.625C88.8431 100.224 88.6257 99.8617 88.3318 99.5713C87.5593 98.8557 86.5895 98.4058 85.5573 98.2841C84.4634 98.1169 83.3468 98.2138 82.2955 98.5673C81.1954 98.9691 80.1656 99.5516 79.2461 100.292C77.5106 101.716 76.1687 103.584 75.3549 105.71C74.5412 107.836 74.2841 110.145 74.6095 112.405C75.2324 116.306 77.176 119.854 80.0959 122.42C82.3908 124.382 85.0934 125.774 87.9943 126.488C92.7184 127.788 95.6553 127.209 95.6928 127.633Z" fill="#E0E0E0"/>
<path d="M814.999 20.1953H712.944V129.779H814.999V20.1953Z" fill="#E0E0E0"/>
<path d="M808.089 20.1953H706.034V129.779H808.089V20.1953Z" fill="#FAFAFA"/>
<path d="M808.127 129.82H706.01V20.1719H808.127V129.82ZM706.072 129.743H808.064V20.2362H706.072V129.743Z" fill="#E0E0E0"/>
<path d="M794.379 34.9375H719.756V115.056H794.379V34.9375Z" fill="white"/>
<path d="M719.756 115.586C719.233 116.394 718.616 117.133 717.919 117.787C716.669 119.074 715.045 120.838 713.17 122.743C711.295 124.648 709.571 126.347 708.296 127.544C707.652 128.252 706.926 128.874 706.134 129.398C706.663 128.599 707.28 127.865 707.971 127.21C709.221 125.923 710.845 124.146 712.72 122.241C714.595 120.336 716.332 118.637 717.606 117.427C718.244 116.722 718.967 116.103 719.756 115.586Z" fill="#E0E0E0"/>
<path d="M794.378 115.391C795.156 115.938 795.873 116.572 796.515 117.283C797.765 118.506 799.477 120.231 801.327 122.174C803.176 124.118 804.826 125.882 805.988 127.195C806.669 127.859 807.273 128.602 807.788 129.409C807.007 128.87 806.29 128.239 805.651 127.529C804.401 126.242 802.689 124.569 800.839 122.625C798.989 120.681 797.327 118.905 796.165 117.605C795.484 116.944 794.884 116.201 794.378 115.391V115.391Z" fill="#E0E0E0"/>
<path d="M794.166 35.1403C794.704 34.3406 795.324 33.6026 796.016 32.9391C797.265 31.6519 798.878 29.8883 800.752 27.9832C802.627 26.0781 804.364 24.3789 805.626 23.1818C806.273 22.4781 806.999 21.8559 807.788 21.3281C807.262 22.1339 806.646 22.8727 805.951 23.5293C804.701 24.8166 803.089 26.5801 801.202 28.4852C799.315 30.3904 797.578 32.1282 796.328 33.2996C795.686 34.0054 794.96 34.624 794.166 35.1403V35.1403Z" fill="#E0E0E0"/>
<path d="M719.556 35.333C718.764 34.7899 718.041 34.1454 717.406 33.415C716.157 32.1277 714.445 30.4672 712.607 28.5363C710.77 26.6054 709.108 24.8161 707.933 23.516C707.255 22.845 706.651 22.0981 706.134 21.2891C706.919 21.8269 707.637 22.4624 708.271 23.1813C709.521 24.4686 711.233 26.1291 713.095 28.0729C714.957 30.0166 716.594 31.793 717.769 33.106C718.44 33.781 719.039 34.5275 719.556 35.333V35.333Z" fill="#E0E0E0"/>
<path d="M794.167 115.058C794.167 115.058 794.167 114.916 794.167 114.659C794.167 114.401 794.167 114.028 794.167 113.552C794.167 112.548 794.167 111.093 794.167 109.227C794.167 105.429 794.167 99.907 794.092 92.8915C794.092 78.8605 794.004 58.8695 793.942 34.9653L794.229 35.2613H719.831L720.156 34.9267C720.156 64.3274 720.156 91.836 720.156 115.045L719.869 114.749L773.746 114.904L788.88 114.968H792.892H793.829H794.179H792.854H788.905L773.833 115.045L719.769 115.187H719.481V114.904C719.481 91.733 719.481 64.1858 719.481 34.7851V34.4375H719.831H794.229H794.529V34.7336C794.529 58.7408 794.429 78.7961 794.392 92.8787C794.392 99.8556 794.392 105.352 794.317 109.137C794.317 110.99 794.317 112.419 794.317 113.41C794.317 113.874 794.317 114.221 794.317 114.492C794.296 114.687 794.245 114.879 794.167 115.058V115.058Z" fill="#E0E0E0"/>
<path d="M769.508 62.1641H744.613V87.8061H769.508V62.1641Z" fill="#EBEBEB"/>
<path d="M814.999 168.102H712.944V277.685H814.999V168.102Z" fill="#E0E0E0"/>
<path d="M808.089 168.102H706.034V277.685H808.089V168.102Z" fill="#FAFAFA"/>
<path d="M808.127 277.71H706.01V168.062H808.127V277.71ZM706.072 277.71H808.064V168.127H706.072V277.71Z" fill="#E0E0E0"/>
<path d="M794.379 182.828H719.756V262.947H794.379V182.828Z" fill="white"/>
<path d="M719.756 263.477C719.231 264.287 718.615 265.031 717.919 265.691C716.669 266.978 715.045 268.729 713.17 270.634C711.295 272.539 709.571 274.238 708.296 275.448C707.654 276.154 706.928 276.773 706.134 277.289C706.667 276.493 707.283 275.759 707.971 275.1C709.221 273.813 710.845 272.05 712.72 270.132C714.595 268.214 716.332 266.527 717.606 265.317C718.253 264.622 718.974 264.004 719.756 263.477V263.477Z" fill="#E0E0E0"/>
<path d="M794.378 263.281C795.156 263.828 795.873 264.463 796.515 265.173C797.765 266.461 799.477 268.134 801.327 270.065C803.176 271.996 804.826 273.772 805.988 275.085C806.675 275.749 807.279 276.496 807.788 277.312C807.009 276.765 806.293 276.131 805.651 275.42C804.401 274.197 802.689 272.459 800.839 270.528C798.989 268.598 797.327 266.808 796.165 265.495C795.481 264.838 794.88 264.094 794.378 263.281V263.281Z" fill="#E0E0E0"/>
<path d="M794.166 183.039C794.704 182.239 795.324 181.501 796.016 180.838C797.265 179.55 798.878 177.787 800.752 175.882C802.627 173.977 804.364 172.29 805.626 171.08C806.273 170.377 806.999 169.754 807.788 169.227C807.266 170.035 806.649 170.775 805.951 171.428C804.701 172.715 803.089 174.479 801.202 176.384C799.315 178.289 797.578 180.001 796.328 181.198C795.686 181.904 794.96 182.522 794.166 183.039V183.039Z" fill="#E0E0E0"/>
<path d="M719.556 183.242C718.771 182.694 718.05 182.055 717.406 181.337C716.157 180.114 714.445 178.389 712.607 176.458C710.77 174.527 709.108 172.751 707.933 171.438C707.255 170.767 706.651 170.02 706.134 169.211C706.919 169.749 707.637 170.384 708.271 171.103C709.521 172.326 711.233 174.064 713.095 175.995C714.957 177.926 716.594 179.715 717.769 181.028C718.444 181.694 719.044 182.437 719.556 183.242V183.242Z" fill="#E0E0E0"/>
<path d="M794.166 262.951C794.166 262.951 794.166 262.81 794.166 262.565C794.166 262.321 794.166 261.922 794.166 261.445C794.166 260.441 794.166 258.999 794.166 257.12C794.166 253.323 794.166 247.8 794.091 240.785C794.091 226.754 794.004 206.763 793.941 182.859L794.229 183.155H719.831L720.156 182.82C720.156 212.221 720.156 239.742 720.156 262.938L719.868 262.642L773.745 262.797L788.88 262.874H792.891H793.929H792.954H789.005L773.933 262.951L719.868 263.106H719.581V262.81C719.581 239.639 719.581 212.092 719.581 182.691V182.344H719.931H794.329H794.629V182.64C794.629 206.647 794.529 226.702 794.491 240.785C794.491 247.775 794.491 253.271 794.416 257.043C794.416 258.897 794.416 260.325 794.416 261.317C794.416 261.78 794.416 262.14 794.416 262.398C794.363 262.595 794.278 262.782 794.166 262.951V262.951Z" fill="#E0E0E0"/>
<path d="M769.508 210.07H744.613V235.712H769.508V210.07Z" fill="#EBEBEB"/>
<path d="M573.087 96.0206C572.721 109.01 568.621 121.596 561.305 132.184C553.99 142.772 543.788 150.885 531.992 155.496C520.196 160.108 507.337 161.009 495.044 158.087C482.75 155.165 471.575 148.55 462.934 139.081C454.293 129.612 448.575 117.715 446.503 104.896C444.432 92.0767 446.101 78.9129 451.299 67.0717C456.497 55.2305 464.99 45.2446 475.702 38.3789C486.414 31.5132 498.864 28.0766 511.474 28.5043C528.337 29.0422 544.301 36.4577 555.856 49.1194C567.41 61.7811 573.608 78.6519 573.087 96.0206V96.0206Z" fill="#EBEBEB"/>
<path d="M559.675 96.2504C559.384 106.138 556.251 115.715 550.673 123.768C545.095 131.821 537.323 137.989 528.341 141.49C519.359 144.992 509.57 145.671 500.213 143.44C490.856 141.21 482.352 136.171 475.776 128.96C469.201 121.749 464.851 112.692 463.275 102.933C461.699 93.1751 462.97 83.1547 466.925 74.1402C470.88 65.1258 477.343 57.5225 485.496 52.2927C493.648 47.0628 503.123 44.4415 512.722 44.7604C519.088 44.9651 525.352 46.4594 531.157 49.1579C536.962 51.8565 542.194 55.7064 546.554 60.4878C550.914 65.2692 554.317 70.8885 556.568 77.0247C558.82 83.1609 559.876 89.6938 559.675 96.2504V96.2504Z" fill="#EBEBEB"/>
<path d="M557.938 95.5165C557.899 95.248 557.878 94.977 557.876 94.7055C557.876 94.1134 557.876 93.3282 557.788 92.337C557.788 91.8092 557.788 91.2171 557.726 90.5863C557.663 89.9556 557.563 89.2991 557.476 88.4881C557.308 86.7528 557.02 85.032 556.613 83.3391C555.61 78.6472 553.925 74.1382 551.614 69.9646C545.535 58.9037 535.592 50.6448 523.809 46.8687C512.026 43.0926 499.288 44.0832 488.189 49.6389C487.152 50.1667 486.165 50.7845 485.14 51.3638C484.109 51.9429 483.119 52.5968 482.178 53.3204C480.213 54.7064 478.343 56.2289 476.579 57.8773C474.832 59.6168 473.199 61.4745 471.693 63.4382C468.58 67.4578 466.119 71.9701 464.407 76.7999C460.774 86.7972 460.432 97.7468 463.432 107.964C464.838 112.903 467.016 117.573 469.881 121.789C471.256 123.855 472.768 125.82 474.405 127.672C476.065 129.433 477.835 131.08 479.704 132.602C481.53 134.099 483.455 135.462 485.465 136.683C496.186 143.009 508.852 144.867 520.861 141.874C532.871 138.882 543.311 131.266 550.04 120.592C552.601 116.58 554.561 112.193 555.851 107.578C556.367 105.893 556.764 104.173 557.038 102.429C557.176 101.682 557.326 101 557.426 100.369C557.526 99.7387 557.538 99.0822 557.588 98.6316C557.688 97.6276 557.763 96.8424 557.826 96.2631C557.847 95.9949 557.885 95.7284 557.938 95.465C557.966 95.7346 557.966 96.0064 557.938 96.276C557.938 96.8552 557.863 97.6404 557.801 98.6445C557.801 99.1723 557.726 99.7644 557.688 100.395C557.651 101.026 557.476 101.682 557.351 102.493C557.105 104.235 556.737 105.956 556.251 107.642C555.019 112.358 553.083 116.848 550.515 120.953C546.801 126.975 541.884 132.112 536.092 136.023C530.299 139.934 523.764 142.529 516.921 143.634C508.274 145.016 499.424 143.994 491.289 140.673C489.141 139.793 487.054 138.765 485.04 137.597C482.989 136.353 481.023 134.969 479.154 133.452C475.262 130.362 471.886 126.641 469.156 122.433C466.225 118.113 463.997 113.33 462.557 108.273C459.499 97.8395 459.851 86.6605 463.557 76.4523C465.326 71.5177 467.859 66.91 471.055 62.8075C472.599 60.8086 474.269 58.9165 476.054 57.1436C477.862 55.4632 479.774 53.9066 481.778 52.4837C482.735 51.7439 483.747 51.0812 484.803 50.5013C485.84 49.9092 486.865 49.2141 487.914 48.7378C490.01 47.6995 492.173 46.8134 494.388 46.0861C502.709 43.2998 511.602 42.8553 520.146 44.7988C526.904 46.3593 533.264 49.3826 538.801 53.6682C544.339 57.9537 548.928 63.4035 552.264 69.6556C554.562 73.8906 556.206 78.4678 557.138 83.2232C557.53 84.942 557.793 86.6892 557.926 88.4495C558.001 89.209 558.1 89.9041 558.125 90.5606C558.15 91.2171 558.125 91.7835 558.125 92.3112C558.125 93.3153 558.125 94.1005 558.125 94.6926C558.098 94.9745 558.035 95.2515 557.938 95.5165Z" fill="#E0E0E0"/>
<path d="M513.998 123.89L513.848 132.604L506.349 132.463L506.499 123.993C499.001 123.388 491.902 120.852 487.815 117.428L492.127 108.018C496.406 111.217 501.419 113.213 506.674 113.81L506.887 100.822C498.551 98.5695 489.24 95.5316 489.39 84.4097C489.54 76.1713 495.464 69.2073 507.412 68.023L507.561 59.3984L515.06 59.5272L514.91 68.0101C520.306 68.4121 525.531 70.1283 530.157 73.0175L526.22 82.5174C522.705 80.3245 518.8 78.876 514.735 78.2567L514.51 91.4767C522.858 93.6522 532.007 96.7029 531.819 107.657C531.719 115.806 525.87 122.628 513.998 123.89ZM507.037 89.3914L507.224 78.3596C503.212 79.2221 501.588 81.449 501.538 84.0107C501.488 86.5723 503.737 88.2457 507.037 89.3914ZM519.697 108.365C519.697 105.649 517.584 104.13 514.36 102.907L514.173 113.63C517.959 112.845 519.659 110.85 519.697 108.365Z" fill="#E0E0E0"/>
<path d="M569.886 154.857C558.736 165.293 545.178 172.614 530.503 176.122C515.828 179.631 500.525 179.21 486.052 174.9C461.995 167.665 441.374 149.464 431.813 125.444C427.052 113.331 425.177 100.221 426.345 87.2089C427.512 74.1971 431.689 61.6626 438.524 50.6544C452.397 28.3335 476.392 13.7232 501.962 11.1873C534.043 7.99494 565.774 23.1073 583.346 51.0921C585.958 55.2499 592.444 51.3881 589.819 47.2303C581.447 33.9518 570.048 22.9842 556.616 15.2839C543.185 7.58359 528.128 3.38421 512.76 3.0519C484.428 2.44689 456.321 15.1649 438.337 37.8077C429.48 48.9295 423.343 62.0782 420.442 76.1493C417.541 90.2205 417.96 104.803 421.665 118.673C429.226 146.258 449.672 168.464 475.317 179.173C509.06 193.333 548.402 185.481 575.185 160.289C578.759 156.93 573.435 151.472 569.886 154.819V154.857Z" fill="#F5F5F5"/>
<path d="M562.938 48.5319L593.494 27.3438V59.3834L562.938 48.5319Z" fill="#F5F5F5"/>
<path d="M802.252 545.475C802.252 545.668 622.775 545.81 401.432 545.81C180.088 545.81 0.561523 545.668 0.561523 545.475C0.561523 545.282 180.001 545.141 401.432 545.141C622.862 545.141 802.252 545.295 802.252 545.475Z" fill="#263238"/>
<path d="M435.254 120.369C435.254 120.369 481.057 132.803 495.542 182.556L476.133 191.45C476.133 191.45 471.671 156.836 426.293 141.763C401.735 133.601 369.217 145.109 360.218 155.665L338.36 145.946C352.97 129.379 389.025 107.393 435.254 120.369Z" fill="#E84545"/>
<path d="M508.002 170.016L459.587 186.557L496.742 205.737L508.002 170.016Z" fill="#E84545"/>
<path d="M389.622 545.472L218.406 545.369C197.81 545.369 181.126 527.348 181.126 504.988L181.213 40.3553C181.213 18.0601 197.935 -0.0128656 218.531 6.87207e-06L389.747 0.102984C410.343 0.102984 427.027 18.2017 427.027 40.484L426.939 505.181C426.939 527.412 410.23 545.485 389.622 545.472Z" fill="#263238"/>
<path d="M389.571 16.5382H356.377C351.916 16.5382 348.304 20.6188 348.304 25.6519V32.1268C348.304 37.1599 344.692 41.2405 340.243 41.2405H275.544C271.094 41.2405 267.483 37.147 267.483 32.1139V25.5747C267.483 20.5415 263.871 16.4609 259.422 16.4609H247.749H218.692C204.258 16.4609 192.56 29.1146 192.56 44.7804L192.473 498.291C192.473 513.906 204.158 526.611 218.58 526.611L389.458 526.727C403.881 526.727 415.591 514.073 415.591 498.407L415.678 44.8963C415.678 29.2047 403.993 16.551 389.571 16.5382Z" fill="white"/>
<path d="M228.654 490.726V504.036C228.666 504.303 228.606 504.567 228.481 504.801C228.356 505.035 228.172 505.228 227.947 505.361C227.723 505.494 227.467 505.561 227.208 505.554C226.95 505.548 226.698 505.468 226.48 505.324L216.319 498.669C216.118 498.536 215.953 498.353 215.838 498.137C215.723 497.921 215.663 497.679 215.663 497.433C215.663 497.187 215.723 496.945 215.838 496.729C215.953 496.513 216.118 496.33 216.319 496.197L226.442 489.49C226.657 489.338 226.908 489.251 227.168 489.236C227.428 489.222 227.687 489.282 227.916 489.41C228.145 489.538 228.335 489.729 228.465 489.961C228.596 490.193 228.661 490.458 228.654 490.726V490.726Z" fill="#E0E0E0"/>
<path d="M312.123 497.253C312.121 499.068 311.596 500.841 310.615 502.349C309.635 503.857 308.242 505.031 306.614 505.724C304.985 506.416 303.194 506.596 301.466 506.241C299.739 505.885 298.152 505.01 296.907 503.726C295.662 502.442 294.815 500.806 294.472 499.026C294.129 497.246 294.306 495.402 294.981 493.725C295.656 492.049 296.798 490.616 298.263 489.608C299.728 488.6 301.451 488.063 303.212 488.062C305.577 488.066 307.843 489.036 309.514 490.759C311.185 492.482 312.123 494.818 312.123 497.253V497.253Z" fill="#E0E0E0"/>
<path d="M390.159 489.258H378.399C377.108 489.258 376.062 490.336 376.062 491.665V503.817C376.062 505.146 377.108 506.224 378.399 506.224H390.159C391.449 506.224 392.496 505.146 392.496 503.817V491.665C392.496 490.336 391.449 489.258 390.159 489.258Z" fill="#E0E0E0"/>
<path d="M254.585 180.314H268.332L265.658 178.216C267.682 185.081 269.711 191.947 271.744 198.812L281.38 231.508C282.117 234.083 282.867 236.528 283.604 239.039C283.776 239.635 284.128 240.16 284.609 240.537C285.09 240.914 285.674 241.124 286.279 241.137L325.596 241.021H331.232C334.794 241.021 334.807 235.306 331.232 235.318L291.915 235.421H286.279L288.953 237.507L282.879 216.911L273.231 184.227L271.007 176.684C270.835 176.087 270.483 175.563 270.002 175.186C269.521 174.808 268.936 174.598 268.332 174.586H254.585C251.011 174.586 251.011 180.301 254.585 180.301V180.314Z" fill="#263238"/>
<path d="M339.993 187.591C337.402 199.537 334.811 211.483 332.22 223.428C331.857 225.14 331.483 226.865 331.108 228.577L333.12 227.007L316.286 226.839L289.291 226.569L283.117 226.505L285.117 228.075C281.517 216.25 277.91 204.42 274.294 192.586L272.769 187.591L270.757 190.294H341.993C342.517 190.252 343.006 190.009 343.363 189.611C343.72 189.214 343.919 188.692 343.919 188.151C343.919 187.61 343.72 187.088 343.363 186.691C343.006 186.294 342.517 186.05 341.993 186.008H270.757C270.438 186.013 270.124 186.092 269.84 186.24C269.555 186.389 269.307 186.602 269.114 186.864C268.921 187.125 268.789 187.429 268.727 187.751C268.665 188.074 268.676 188.406 268.757 188.724C272.365 200.549 275.973 212.379 279.58 224.213C280.093 225.874 280.605 227.547 281.105 229.208C281.236 229.656 281.501 230.05 281.863 230.335C282.224 230.619 282.663 230.779 283.117 230.791L299.951 230.959L326.946 231.229L333.12 231.293C333.572 231.285 334.01 231.128 334.369 230.845C334.729 230.563 334.992 230.17 335.119 229.723L342.88 193.873L344.005 188.724C344.58 186.034 340.581 184.888 339.993 187.591Z" fill="#263238"/>
<path d="M284.93 189.415C287.117 202.481 289.929 215.443 292.091 228.509C292.541 231.225 296.552 230.067 296.102 227.376C293.915 214.298 291.103 201.348 288.941 188.27C288.491 185.566 284.48 186.712 284.93 189.415Z" fill="#263238"/>
<path d="M306.889 188.852C307.097 202.257 307.318 215.657 307.551 229.053C307.551 231.808 311.75 231.821 311.713 229.053C311.505 215.657 311.284 202.257 311.051 188.852C311.051 186.097 306.851 186.085 306.889 188.852Z" fill="#263238"/>
<path d="M327.172 229.544L332.459 193.835L333.208 188.686C333.335 188.139 333.256 187.563 332.987 187.074C332.718 186.584 332.279 186.218 331.759 186.048C331.234 185.923 330.683 186.01 330.219 186.29C329.754 186.57 329.411 187.022 329.259 187.554C327.493 199.448 325.735 211.351 323.985 223.262C323.735 224.961 323.473 226.66 323.223 228.411C323.096 228.958 323.176 229.534 323.444 230.024C323.713 230.513 324.152 230.88 324.673 231.05C325.205 231.2 325.773 231.127 326.253 230.848C326.733 230.568 327.086 230.104 327.235 229.557L327.172 229.544Z" fill="#263238"/>
<path d="M275.295 202.833H338.195C338.719 202.792 339.208 202.548 339.565 202.15C339.922 201.753 340.121 201.232 340.121 200.69C340.121 200.149 339.922 199.627 339.565 199.23C339.208 198.833 338.719 198.589 338.195 198.547H275.295C274.771 198.589 274.281 198.833 273.924 199.23C273.567 199.627 273.369 200.149 273.369 200.69C273.369 201.232 273.567 201.753 273.924 202.15C274.281 202.548 274.771 202.792 275.295 202.833V202.833Z" fill="#263238"/>
<path d="M281.194 217.867H335.658C336.208 217.867 336.736 217.642 337.125 217.242C337.514 216.841 337.732 216.297 337.732 215.731C337.732 215.164 337.514 214.62 337.125 214.22C336.736 213.819 336.208 213.594 335.658 213.594H281.194C280.644 213.594 280.116 213.819 279.727 214.22C279.338 214.62 279.119 215.164 279.119 215.731C279.119 216.297 279.338 216.841 279.727 217.242C280.116 217.642 280.644 217.867 281.194 217.867V217.867Z" fill="#263238"/>
<path d="M331.209 259.936C335.295 259.936 338.608 256.525 338.608 252.316C338.608 248.107 335.295 244.695 331.209 244.695C327.123 244.695 323.811 248.107 323.811 252.316C323.811 256.525 327.123 259.936 331.209 259.936Z" fill="#263238"/>
<path d="M290.517 259.936C294.603 259.936 297.915 256.525 297.915 252.316C297.915 248.107 294.603 244.695 290.517 244.695C286.431 244.695 283.118 248.107 283.118 252.316C283.118 256.525 286.431 259.936 290.517 259.936Z" fill="#263238"/>
<path d="M276.332 149.685C276.332 149.685 245.9 148.629 228.054 176.524L238.452 185.702C238.452 185.702 247.412 165.235 278.056 164.578C294.653 164.231 306.051 174.181 309.712 182.394L328.521 182.059C322.46 169.071 307.125 150.483 276.332 149.685Z" fill="#E84545"/>
<path d="M224.03 167.43L250.887 186.829L226.492 191.926L224.03 167.43Z" fill="#E84545"/>
<path d="M401.857 64.3132C401.86 64.9299 401.685 65.5334 401.354 66.0474C401.023 66.5614 400.551 66.9626 399.999 67.2004C399.447 67.4381 398.838 67.5017 398.251 67.3829C397.663 67.2642 397.123 66.9685 396.699 66.5334C396.275 66.0982 395.985 65.5432 395.868 64.9386C395.75 64.3339 395.809 63.7069 396.038 63.137C396.266 62.567 396.654 62.0797 397.151 61.7368C397.649 61.394 398.234 61.2109 398.833 61.2109C399.633 61.2109 400.4 61.5374 400.967 62.1188C401.534 62.7002 401.854 63.4893 401.857 64.3132V64.3132Z" fill="#263238"/>
<path d="M398.833 75.9334C400.503 75.9334 401.857 74.5387 401.857 72.8183C401.857 71.0978 400.503 69.7031 398.833 69.7031C397.163 69.7031 395.809 71.0978 395.809 72.8183C395.809 74.5387 397.163 75.9334 398.833 75.9334Z" fill="#263238"/>
<path d="M398.833 84.4412C400.503 84.4412 401.857 83.0465 401.857 81.3261C401.857 79.6056 400.503 78.2109 398.833 78.2109C397.163 78.2109 395.809 79.6056 395.809 81.3261C395.809 83.0465 397.163 84.4412 398.833 84.4412Z" fill="#263238"/>
<path d="M218.743 62.8281L206.408 72.3538H209.545V83.7331L216.194 83.7588V75.2372L221.443 75.2115V83.7331H227.866V72.2379L231.066 72.1993L218.743 62.8281Z" fill="#263238"/>
<path d="M416.466 95.7331C416.466 95.9133 366.138 96.0678 304.076 96.0678C242.013 96.0678 191.686 95.9133 191.686 95.7331C191.686 95.5529 242.001 95.3984 304.076 95.3984C366.151 95.3984 416.466 95.5529 416.466 95.7331Z" fill="#E0E0E0"/>
<path d="M301.702 310.031H299.703C292.938 310.031 287.455 315.679 287.455 322.646V424.133C287.455 431.1 292.938 436.748 299.703 436.748H301.702C308.466 436.748 313.95 431.1 313.95 424.133V322.646C313.95 315.679 308.466 310.031 301.702 310.031Z" fill="#E0E0E0"/>
<path d="M352.292 376.401C352.321 385.105 349.843 393.621 345.172 400.874C340.5 408.126 333.845 413.788 326.048 417.142C318.251 420.497 309.664 421.394 301.372 419.719C293.08 418.045 285.457 413.874 279.467 407.735C273.477 401.597 269.39 393.766 267.723 385.233C266.056 376.701 266.884 367.851 270.102 359.804C273.32 351.756 278.784 344.873 285.802 340.026C292.819 335.178 301.075 332.583 309.525 332.57C315.128 332.555 320.678 333.677 325.859 335.872C331.041 338.066 335.752 341.291 339.723 345.361C343.695 349.431 346.849 354.267 349.005 359.593C351.162 364.919 352.278 370.631 352.292 376.401Z" fill="#E84545"/>
<path d="M343.306 376.865C343.319 383.483 341.426 389.956 337.867 395.466C334.309 400.976 329.244 405.276 323.314 407.822C317.383 410.368 310.853 411.046 304.549 409.77C298.244 408.494 292.448 405.322 287.894 400.654C283.339 395.987 280.231 390.033 278.961 383.546C277.69 377.058 278.316 370.329 280.758 364.208C283.2 358.087 287.35 352.849 292.681 349.156C298.013 345.463 304.288 343.481 310.713 343.461C314.983 343.448 319.214 344.301 323.164 345.973C327.114 347.645 330.705 350.102 333.732 353.205C336.759 356.307 339.163 359.993 340.805 364.053C342.448 368.113 343.298 372.467 343.306 376.865V376.865Z" fill="#E84545"/>
<path d="M342.131 376.417C342.092 376.239 342.071 376.058 342.068 375.876C342.068 375.477 341.993 374.949 341.956 374.28C341.956 373.928 341.931 373.542 341.881 373.121C341.881 372.684 341.743 372.22 341.656 371.718C341.51 370.553 341.28 369.399 340.969 368.269C340.193 365.15 338.967 362.169 337.332 359.425C334.958 355.397 331.784 351.931 328.02 349.254C324.255 346.576 319.984 344.748 315.486 343.888C309.823 342.826 303.988 343.332 298.577 345.355C297.137 345.891 295.734 346.528 294.378 347.261C293.703 347.647 293.053 348.084 292.378 348.548C291.7 348.956 291.052 349.417 290.441 349.925C289.155 350.907 287.932 351.973 286.779 353.118C285.65 354.334 284.598 355.624 283.63 356.979C281.63 359.747 280.077 362.829 279.031 366.106C277.97 369.484 277.414 373.008 277.381 376.558C277.429 380.109 277.993 383.633 279.056 387.011C280.111 390.285 281.672 393.363 283.68 396.125C284.648 397.484 285.704 398.774 286.842 399.986C287.995 401.13 289.218 402.197 290.504 403.179C291.759 404.132 293.079 404.992 294.453 405.753C295.81 406.479 297.213 407.111 298.652 407.645C304.07 409.658 309.91 410.151 315.574 409.074C320.505 408.137 325.154 406.021 329.146 402.896C332.449 400.324 335.244 397.126 337.382 393.473C339.007 390.722 340.224 387.737 340.994 384.617C341.304 383.486 341.529 382.333 341.668 381.167C341.743 380.665 341.843 380.201 341.881 379.777C341.918 379.352 341.881 378.966 341.956 378.605C342.006 377.936 342.043 377.408 342.068 377.022C342.071 376.84 342.092 376.659 342.131 376.481C342.148 376.661 342.148 376.842 342.131 377.022V378.618C342.131 378.966 342.131 379.365 342.131 379.789C342.131 380.214 342.018 380.69 341.943 381.205C341.827 382.379 341.618 383.542 341.319 384.681C340.602 387.856 339.409 390.896 337.782 393.692C335.414 397.807 332.226 401.359 328.428 404.112C324.63 406.866 320.309 408.759 315.749 409.666C309.985 410.79 304.035 410.305 298.515 408.263C297.045 407.726 295.612 407.085 294.228 406.345C292.824 405.589 291.475 404.728 290.191 403.771C288.876 402.773 287.624 401.689 286.442 400.527C285.286 399.314 284.209 398.024 283.218 396.665C281.16 393.847 279.561 390.704 278.481 387.358C276.207 380.437 276.207 372.937 278.481 366.016C279.548 362.668 281.135 359.52 283.18 356.696C284.165 355.332 285.243 354.042 286.404 352.834C287.583 351.665 288.835 350.577 290.154 349.578C290.777 349.06 291.437 348.591 292.128 348.175C292.816 347.763 293.478 347.312 294.178 346.887C295.562 346.143 296.994 345.498 298.465 344.956C303.982 342.902 309.932 342.404 315.699 343.515C320.699 344.488 325.408 346.657 329.446 349.848C332.789 352.456 335.604 355.714 337.732 359.438C339.37 362.232 340.576 365.272 341.306 368.449C341.6 369.594 341.809 370.76 341.931 371.937C342.006 372.439 342.081 372.915 342.118 373.34V374.525C342.118 375.194 342.118 375.722 342.118 376.121C342.127 376.219 342.132 376.318 342.131 376.417V376.417Z" fill="#263238"/>
<g opacity="0.3">
<path d="M341.867 376.762C341.679 376.762 341.542 375.295 341.017 372.733C340.29 369.122 339.026 365.648 337.268 362.435C336.065 360.249 334.632 358.207 332.994 356.346C331.116 354.233 328.982 352.377 326.645 350.824C325.392 349.987 324.08 349.247 322.721 348.61C319.832 347.249 316.761 346.346 313.61 345.932C311.952 345.72 310.281 345.638 308.611 345.688C306.953 345.749 305.303 345.943 303.674 346.267C302.091 346.572 300.532 347.002 299.013 347.554C297.544 348.093 296.119 348.751 294.751 349.524C293.443 350.254 292.189 351.084 291.002 352.008C288.764 353.719 286.748 355.717 285.003 357.955C283.491 359.923 282.191 362.056 281.129 364.314C279.586 367.632 278.548 371.175 278.055 374.818C277.692 377.393 277.642 378.886 277.455 378.899C277.267 378.912 277.03 377.431 277.092 374.728C277.249 370.881 278.097 367.097 279.592 363.568C282.443 356.722 287.401 351.032 293.701 347.374C295.168 346.526 296.697 345.798 298.276 345.199C299.901 344.573 301.573 344.083 303.275 343.731C305.035 343.377 306.819 343.166 308.611 343.1C310.402 343.048 312.195 343.138 313.972 343.371C315.694 343.602 317.395 343.977 319.059 344.491C322.218 345.463 325.214 346.925 327.945 348.829C330.414 350.54 332.646 352.588 334.581 354.917C336.254 356.954 337.692 359.183 338.867 361.56C340.552 364.988 341.615 368.705 342.004 372.527C342.204 375.269 342.017 376.762 341.867 376.762Z" fill="black"/>
</g>
<g opacity="0.3">
<path d="M313.286 396.419L313.373 402.25L308.312 402.34L308.224 396.651C303.225 396.419 298.389 394.887 295.564 392.686L298.251 386.25C301.192 388.286 304.592 389.505 308.124 389.79L307.987 381.088C302.351 379.8 296.052 377.934 295.939 370.481C295.852 364.958 299.689 360.183 307.662 359.089L307.575 353.296L312.636 353.219L312.724 358.896C316.343 359.048 319.876 360.08 323.034 361.908L320.609 368.344C318.205 366.963 315.559 366.088 312.824 365.769L312.961 374.626C318.597 375.913 324.796 377.728 324.909 385.065C324.996 390.575 321.222 395.325 313.286 396.419ZM307.875 373.454L307.762 366.053C305.088 366.722 304.013 368.254 304.075 369.979C304.138 371.704 305.637 372.798 307.875 373.48V373.454ZM316.773 385.876C316.773 384.061 315.261 383.096 313.023 382.336L313.136 389.532C315.71 388.953 316.798 387.575 316.773 385.902V385.876Z" fill="black"/>
</g>
<path d="M286.479 315.117H237.188V428.601H286.479V315.117Z" fill="white"/>
<path d="M562.013 294.261C564.006 303.331 563.342 312.807 560.104 321.489C556.866 330.171 551.2 337.668 543.823 343.031C536.446 348.394 527.691 351.382 518.664 351.617C509.638 351.853 500.747 349.324 493.116 344.352C485.486 339.38 479.459 332.188 475.799 323.686C472.139 315.184 471.01 305.755 472.555 296.592C474.1 287.429 478.25 278.944 484.48 272.211C490.709 265.479 498.737 260.802 507.549 258.771C513.388 257.417 519.428 257.261 525.325 258.312C531.222 259.363 536.861 261.6 541.918 264.896C546.976 268.191 551.354 272.481 554.802 277.519C558.25 282.558 560.7 288.247 562.013 294.261Z" fill="#E84545"/>
<path d="M552.74 296.892C554.26 303.803 553.756 311.024 551.29 317.64C548.824 324.256 544.508 329.97 538.888 334.058C533.268 338.146 526.597 340.425 519.718 340.605C512.84 340.786 506.065 338.861 500.25 335.073C494.434 331.286 489.841 325.806 487.051 319.328C484.261 312.851 483.399 305.666 484.575 298.683C485.752 291.701 488.913 285.235 493.659 280.104C498.405 274.973 504.522 271.408 511.236 269.859C515.684 268.827 520.287 268.707 524.78 269.506C529.274 270.306 533.57 272.01 537.424 274.52C541.279 277.03 544.615 280.298 547.243 284.137C549.871 287.975 551.739 292.309 552.74 296.892V296.892Z" fill="#E84545"/>
<path d="M551.416 296.7C551.336 296.527 551.273 296.346 551.228 296.159L550.754 294.525L550.416 293.328C550.266 292.89 550.066 292.426 549.879 291.924C549.457 290.749 548.955 289.605 548.379 288.5C546.868 285.429 544.917 282.608 542.593 280.133C537.063 274.17 529.693 270.37 521.744 269.384C513.795 268.398 505.761 270.286 499.014 274.727C497.634 275.63 496.314 276.627 495.065 277.713C494.44 278.28 493.815 278.897 493.253 279.477C492.637 280.068 492.065 280.704 491.54 281.382C490.419 282.71 489.387 284.117 488.453 285.591C487.542 287.116 486.732 288.703 486.029 290.341C484.565 293.705 483.641 297.292 483.292 300.961C482.506 308.562 484.166 316.219 488.016 322.754C489.852 325.92 492.173 328.758 494.89 331.16C497.479 333.544 500.435 335.467 503.638 336.849C505.164 337.559 506.739 338.153 508.35 338.626C509.926 339.059 511.53 339.381 513.149 339.591C521.091 340.64 529.14 338.817 535.923 334.434C542.706 330.052 547.802 323.38 550.341 315.558C551.426 312.306 552.024 308.903 552.116 305.466C552.179 304.213 552.158 302.957 552.053 301.708C552.053 301.167 552.053 300.665 551.953 300.201C551.853 299.738 551.828 299.339 551.766 298.914C551.666 298.206 551.591 297.627 551.528 297.228C551.493 297.037 551.472 296.843 551.466 296.649C551.529 296.833 551.575 297.022 551.603 297.215C551.678 297.627 551.778 298.18 551.916 298.888C551.974 299.266 552.049 299.695 552.141 300.176C552.141 300.639 552.216 301.141 552.266 301.695C552.401 302.951 552.442 304.216 552.391 305.479C552.352 308.954 551.792 312.402 550.729 315.7C549.189 320.553 546.665 325.013 543.326 328.785C539.986 332.558 535.907 335.557 531.357 337.583C525.602 340.133 519.289 341.049 513.074 340.235C511.417 340.032 509.775 339.709 508.162 339.269C506.519 338.786 504.911 338.184 503.351 337.467C501.758 336.744 500.213 335.914 498.726 334.983C497.238 333.982 495.818 332.877 494.477 331.675C491.695 329.234 489.322 326.337 487.454 323.102C485.536 319.767 484.12 316.151 483.255 312.379C482.479 308.572 482.264 304.666 482.617 300.794C482.978 297.048 483.928 293.387 485.429 289.955C486.152 288.28 486.987 286.658 487.929 285.102C488.891 283.608 489.947 282.18 491.09 280.828C491.628 280.138 492.212 279.488 492.84 278.885C493.465 278.292 494.09 277.662 494.69 277.095C495.963 275.984 497.312 274.969 498.726 274.057C504.018 270.598 510.11 268.657 516.373 268.432C521.332 268.27 526.268 269.197 530.853 271.15C535.438 273.103 539.568 276.038 542.968 279.76C545.294 282.275 547.229 285.145 548.704 288.269C549.268 289.394 549.752 290.56 550.154 291.757C550.341 292.272 550.529 292.735 550.666 293.173C550.804 293.611 550.879 294.023 550.966 294.46L551.378 296.108C551.409 296.304 551.421 296.502 551.416 296.7Z" fill="#263238"/>
<g opacity="0.3">
<path d="M551.228 297.171C551.028 297.171 550.553 295.717 549.429 293.168C547.848 289.583 545.74 286.27 543.18 283.346C541.43 281.363 539.478 279.58 537.356 278.03C534.919 276.272 532.273 274.845 529.483 273.782C526.416 272.611 523.199 271.912 519.934 271.71C518.219 271.594 516.497 271.62 514.785 271.787C513.037 271.966 511.304 272.275 509.599 272.714C507.893 273.181 506.223 273.774 504.6 274.49C503.018 275.198 501.493 276.033 500.038 276.987C497.276 278.795 494.784 281.006 492.64 283.552C490.692 285.867 489.045 288.433 487.741 291.186C486.604 293.6 485.724 296.133 485.116 298.742C484.262 302.571 483.979 306.513 484.279 310.43C484.491 313.223 484.779 314.768 484.566 314.82C484.354 314.871 483.792 313.404 483.317 310.559C482.579 306.522 482.579 302.379 483.317 298.343C484.404 292.291 486.986 286.63 490.815 281.905C491.91 280.526 493.105 279.235 494.39 278.043C495.725 276.804 497.154 275.676 498.664 274.67C500.223 273.627 501.861 272.714 503.563 271.941C505.32 271.156 507.133 270.51 508.987 270.01C510.841 269.525 512.73 269.189 514.635 269.006C516.486 268.852 518.346 268.852 520.197 269.006C521.99 269.133 523.77 269.409 525.521 269.83C527.2 270.219 528.846 270.745 530.445 271.401C533.402 272.598 536.189 274.2 538.731 276.163C540.932 277.885 542.932 279.864 544.692 282.059C547.227 285.233 549.175 288.859 550.441 292.756C551.241 295.498 551.378 297.094 551.228 297.171Z" fill="black"/>
</g>
<g opacity="0.3">
<path d="M525.846 324.473L527.258 330.549L521.996 331.836L520.622 325.94C515.335 326.893 509.961 326.442 506.524 324.82L507.887 317.509C511.411 318.918 515.231 319.362 518.972 318.796L516.872 309.785C510.699 309.785 503.712 309.36 501.875 301.611C500.551 295.87 503.45 289.949 511.536 286.924L510.136 280.912L515.398 279.625L516.772 285.533C520.582 284.821 524.501 285.051 528.208 286.203L527.133 293.514C524.299 292.642 521.326 292.358 518.385 292.678L520.522 301.894C526.695 301.894 533.569 302.293 535.344 309.927C536.743 315.552 533.869 321.422 525.846 324.473ZM515.035 301.83L513.248 294.107C510.611 295.394 509.874 297.286 510.286 299.062C510.699 300.839 512.548 301.65 515.048 301.83H515.035ZM527.095 312.617C526.658 310.725 524.883 310.043 522.434 309.811L524.171 317.29C526.695 316.08 527.52 314.394 527.095 312.617Z" fill="black"/>
</g>
<path d="M463.496 273.694C460.654 279.887 456.656 285.443 451.73 290.044C446.803 294.646 441.045 298.203 434.784 300.512C428.524 302.821 421.882 303.838 415.24 303.504C408.598 303.169 402.084 301.491 396.072 298.563C393.377 297.255 390.797 295.709 388.361 293.942C380.522 288.192 374.438 280.259 370.822 271.073C367.206 261.888 366.207 251.83 367.944 242.081C369.681 232.332 374.081 223.295 380.628 216.03C387.175 208.765 395.597 203.574 404.907 201.065C414.217 198.556 424.029 198.833 433.191 201.864C442.353 204.896 450.486 210.555 456.636 218.179C462.786 225.803 466.698 235.075 467.913 244.908C469.128 254.741 467.596 264.726 463.496 273.694Z" fill="#E84545"/>
<path d="M453.623 269.5C450.38 276.629 445.156 282.607 438.614 286.677C432.071 290.747 424.503 292.726 416.867 292.364C409.232 292.002 401.873 289.315 395.72 284.643C389.568 279.972 384.9 273.525 382.306 266.119C379.712 258.714 379.31 250.682 381.149 243.041C382.989 235.4 386.988 228.492 392.64 223.193C398.293 217.893 405.344 214.44 412.903 213.27C420.461 212.1 428.187 213.266 435.102 216.62C439.69 218.838 443.809 221.966 447.223 225.824C450.638 229.683 453.28 234.197 455 239.107C456.72 244.018 457.484 249.23 457.248 254.445C457.011 259.66 455.78 264.776 453.623 269.5Z" fill="#E84545"/>
<path d="M452.585 268.387C452.641 268.182 452.708 267.98 452.785 267.782C452.948 267.344 453.173 266.765 453.447 266.019L453.947 264.731C454.097 264.255 454.235 263.702 454.397 263.122C454.811 261.797 455.129 260.441 455.347 259.067C456.062 255.316 456.218 251.475 455.809 247.675C454.91 238.554 450.96 230.039 444.635 223.588C438.311 217.137 430.005 213.152 421.141 212.315C419.331 212.134 417.51 212.082 415.692 212.16C414.78 212.16 413.868 212.353 412.943 212.443C412.012 212.527 411.089 212.682 410.181 212.907C406.399 213.613 402.757 214.966 399.408 216.91C395.895 218.83 392.709 221.326 389.973 224.299C384.254 230.422 380.645 238.309 379.7 246.748C379.217 250.816 379.377 254.937 380.175 258.952C380.853 262.846 382.159 266.596 384.036 270.048C384.907 271.742 385.897 273.368 386.998 274.913C388.096 276.402 389.29 277.813 390.572 279.136C395.406 284.137 401.445 287.722 408.069 289.524C413.324 290.936 418.809 291.189 424.165 290.266C429.521 289.344 434.628 287.266 439.15 284.169C442.257 282.071 445.037 279.502 447.399 276.548C448.284 275.494 449.094 274.375 449.823 273.201C450.161 272.699 450.486 272.249 450.735 271.824L451.398 270.601L452.298 268.954C452.391 268.76 452.499 268.575 452.623 268.4C452.556 268.604 452.472 268.803 452.373 268.992C452.16 269.404 451.885 269.97 451.535 270.678L450.91 271.966C450.661 272.403 450.348 272.867 450.023 273.382C449.311 274.578 448.513 275.718 447.636 276.793C445.301 279.813 442.527 282.444 439.413 284.594C434.848 287.782 429.676 289.933 424.242 290.905C418.808 291.877 413.235 291.648 407.894 290.232C402.692 288.873 397.823 286.409 393.6 282.998C389.377 279.586 385.894 275.302 383.374 270.421C382.455 268.663 381.649 266.844 380.962 264.976C380.315 263.054 379.798 261.088 379.412 259.093C378.598 254.998 378.433 250.795 378.925 246.645C379.896 238.023 383.583 229.966 389.423 223.707C392.218 220.676 395.472 218.133 399.058 216.176C400.793 215.19 402.593 214.329 404.445 213.602C406.281 212.964 408.156 212.448 410.056 212.057C410.981 211.833 411.921 211.678 412.868 211.594C413.818 211.504 414.755 211.362 415.68 211.323C424.526 210.95 433.24 213.632 440.438 218.944C444.898 222.283 448.618 226.562 451.35 231.496C454.082 236.429 455.764 241.905 456.284 247.559C456.662 251.404 456.46 255.286 455.684 259.067C455.444 260.448 455.101 261.808 454.66 263.135C454.472 263.714 454.335 264.255 454.16 264.744C453.985 265.233 453.785 265.645 453.622 266.031L452.885 267.769C452.814 267.989 452.713 268.197 452.585 268.387V268.387Z" fill="#263238"/>
<g opacity="0.3">
<path d="M452.111 268.631C451.898 268.541 452.473 266.893 453.173 263.868C454.171 259.625 454.526 255.248 454.223 250.893C454.005 247.92 453.473 244.981 452.636 242.127C451.665 238.874 450.291 235.763 448.549 232.871C447.611 231.313 446.563 229.829 445.412 228.43C444.221 226.973 442.926 225.609 441.538 224.35C440.102 223.043 438.569 221.855 436.951 220.797C433.62 218.617 429.976 216.992 426.153 215.983C420.76 214.57 415.128 214.416 409.669 215.532C406.427 216.203 403.282 217.298 400.309 218.789C397.714 220.112 395.267 221.722 393.01 223.59C389.72 226.345 386.862 229.606 384.537 233.258C382.875 235.832 382.1 237.415 381.887 237.312C381.675 237.209 382.15 235.523 383.549 232.653C385.599 228.605 388.353 224.98 391.673 221.955C393.957 219.856 396.474 218.041 399.171 216.549C402.296 214.844 405.63 213.58 409.082 212.79C410.946 212.364 412.838 212.084 414.743 211.954C418.802 211.667 422.88 212.036 426.828 213.048C430.96 214.101 434.899 215.84 438.488 218.197C440.225 219.344 441.868 220.635 443.4 222.058C446.309 224.748 448.804 227.877 450.799 231.34C454.19 237.189 456.067 243.838 456.247 250.648C456.381 255.21 455.695 259.757 454.223 264.061C453.236 267.215 452.298 268.708 452.111 268.631Z" fill="black"/>
</g>
<g opacity="0.3">
<path d="M411.768 274.824L408.981 281.131L403.52 278.557L406.219 272.417C400.958 269.546 396.521 265.362 394.584 261.539L400.62 256.068C402.761 259.812 405.81 262.917 409.469 265.079L413.618 255.669C408.219 251.306 402.37 246.054 405.894 237.983C408.531 232.01 415.005 228.856 424.091 231.881L426.853 225.625L432.326 228.199L429.615 234.301C433.436 236.347 436.727 239.304 439.213 242.926L433.426 248.577C431.529 245.835 429.12 243.511 426.34 241.741L422.116 251.318C427.552 255.618 433.301 260.831 429.802 268.774C427.227 274.643 420.866 277.771 411.768 274.824ZM417.267 247.354L420.791 239.347C417.592 238.665 415.73 239.772 414.905 241.626C414.08 243.479 415.205 245.436 417.267 247.354ZM420.704 265.375C421.566 263.406 420.454 261.591 418.467 259.647L415.042 267.371C418.054 268.04 419.904 267.139 420.704 265.337V265.375Z" fill="black"/>
</g>
<path d="M140.335 256.695C125.7 264.496 114.477 277.948 106.404 292.738C98.3304 307.529 93.144 323.787 87.9825 339.916L83.4834 423.085C100.505 393.247 114.177 358.169 117.877 323.761L106.541 322.718C114.14 321.521 120.514 315.857 124.575 309.125C128.637 302.393 130.724 294.734 132.711 287.01L118.964 289.147C129.869 281.558 137.522 269.938 140.335 256.695Z" fill="#455A64"/>
<g opacity="0.3">
<path d="M140.335 256.695C125.7 264.496 114.477 277.948 106.404 292.738C98.3304 307.529 93.144 323.787 87.9825 339.916L83.4834 423.085C100.505 393.247 114.177 358.169 117.877 323.761L106.541 322.718C114.14 321.521 120.514 315.857 124.575 309.125C128.637 302.393 130.724 294.734 132.711 287.01L118.964 289.147C129.869 281.558 137.522 269.938 140.335 256.695Z" fill="black"/>
</g>
<path d="M80.9589 442.583C80.9589 442.583 43.9788 397.015 44.4162 353.506H59.4132C59.4132 353.506 43.1665 342.525 44.4162 336.372C45.666 330.219 46.1284 306.933 46.1284 306.933L59.7757 310.447C59.7757 310.447 49.5402 305.169 48.2655 296.828C46.9907 288.487 51.2399 249.805 51.2399 249.805C51.2399 249.805 67.8866 267.826 72.998 286.272C78.1095 304.719 91.5568 326.267 87.6201 382.507C83.6834 438.747 80.9589 442.583 80.9589 442.583Z" fill="#455A64"/>
<path d="M99.6919 446.881C99.6919 446.881 139.684 419.399 148.645 384.334L136.635 380.974C136.635 380.974 152.007 375.825 152.281 370.573C152.556 365.321 157.168 346.515 157.168 346.515L145.445 346.257C145.445 346.257 154.793 344.326 157.593 337.903C160.392 331.479 165.204 299.414 165.204 299.414C165.204 299.414 148.007 310.15 139.971 323.872C131.935 337.594 116.526 351.805 107.715 397.914C98.9046 444.024 99.6919 446.881 99.6919 446.881Z" fill="#455A64"/>
<path d="M61.3369 289.578C61.4028 289.726 61.449 289.881 61.4744 290.042C61.5494 290.389 61.6619 290.853 61.7993 291.445L62.9616 296.851C63.474 299.207 64.0739 302.077 64.7112 305.437C65.3486 308.797 66.136 312.594 66.8858 316.829C68.4605 325.286 70.1352 335.378 71.8848 346.616C73.6345 357.854 75.2216 370.263 76.6964 383.303C78.1711 396.343 79.2708 408.803 80.1457 420.157C81.0205 431.51 81.5704 441.731 81.9078 450.33C82.1078 454.616 82.2078 458.517 82.3202 461.915C82.4327 465.314 82.4827 468.274 82.5077 470.681C82.5327 473.088 82.5077 474.916 82.5077 476.216V477.658C82.5267 477.821 82.5267 477.985 82.5077 478.147C82.4906 477.985 82.4906 477.821 82.5077 477.658C82.5077 477.311 82.5077 476.834 82.5077 476.229C82.5077 474.942 82.3952 473.063 82.3202 470.681C82.2452 468.3 82.1578 465.339 82.0078 461.928C81.8578 458.517 81.7453 454.629 81.5079 450.343C81.1205 441.757 80.4581 431.536 79.6083 420.195C78.7584 408.855 77.5587 396.42 76.109 383.38C74.6593 370.34 72.9971 357.957 71.3599 346.719C69.7227 335.481 68.0606 325.377 66.5359 316.919C65.811 312.684 65.0737 308.861 64.4613 305.514C63.8489 302.167 63.2865 299.271 62.8116 296.915L61.7618 291.47C61.6619 290.878 61.5744 290.415 61.5119 290.054C61.4442 289.899 61.3858 289.74 61.3369 289.578V289.578Z" fill="#263238"/>
<path d="M75.8349 470.488C75.8349 470.488 42.0041 430.957 31.4812 407.053L39.4046 403.564C33.6558 404.542 27.7695 401.994 23.3079 398.132C18.8462 394.27 15.5844 389.185 12.3725 384.178L22.8205 382.363C13.2194 379.547 5.04438 373.022 0 364.148C12.3225 366.247 23.4703 373.159 32.6685 381.925C39.9705 389.152 46.602 397.064 52.477 405.559C55.4546 409.634 58.0491 413.992 60.2255 418.573C65.8494 430.674 75.8474 455.968 75.8349 470.488Z" fill="#455A64"/>
<path d="M149.17 322.43C149.136 322.569 149.086 322.703 149.02 322.829L148.495 323.974C148.008 325.017 147.308 326.485 146.433 328.364C144.621 332.161 142.046 337.671 138.934 344.532C135.822 351.393 132.223 359.58 128.361 368.758C124.5 377.936 120.463 388.067 116.414 398.867C112.365 409.667 108.765 419.978 105.591 429.426C102.417 438.874 99.7421 447.447 97.5801 454.682C95.418 461.916 93.7058 467.773 92.5811 471.841C92.0062 473.836 91.5688 475.407 91.2438 476.514L90.8814 477.724C90.8501 477.863 90.7996 477.998 90.7314 478.123C90.7314 478.123 90.7314 477.981 90.8189 477.698L91.1189 476.475C91.4063 475.355 91.8187 473.785 92.3686 471.764C93.4309 467.683 95.0556 461.787 97.1802 454.54C99.3047 447.293 101.954 438.707 105.066 429.233C108.178 419.759 111.815 409.409 115.851 398.622C119.888 387.835 124 377.691 127.849 368.513C131.698 359.335 135.348 351.148 138.559 344.326C141.771 337.503 144.321 332.058 146.208 328.197C147.133 326.343 147.858 324.888 148.382 323.871C148.62 323.395 148.807 323.035 148.957 322.752C149.017 322.637 149.088 322.529 149.17 322.43V322.43Z" fill="#263238"/>
<path d="M78.6968 487.432C78.6156 487.195 78.5652 486.948 78.5469 486.698L78.2094 484.6C78.0844 483.686 77.922 482.579 77.6845 481.292C77.4471 480.004 77.2471 478.524 76.9097 476.915C76.2973 473.671 75.435 469.848 74.3227 465.651C73.2104 461.455 71.8232 456.885 70.0735 452.187C68.3239 447.488 66.4493 443.099 64.6121 439.173C62.775 435.247 60.9504 431.81 59.3257 428.965C58.5508 427.523 57.7635 426.274 57.1136 425.103C56.4638 423.932 55.8639 423.031 55.3765 422.258L54.2767 420.469C54.1386 420.263 54.0214 420.043 53.9268 419.812C53.9268 419.812 54.1017 419.993 54.3892 420.392L55.6389 422.117C56.1638 422.863 56.7887 423.803 57.4636 424.91C58.1384 426.017 58.9758 427.317 59.7256 428.72C61.4003 431.539 63.2499 434.989 65.162 438.902C67.0741 442.816 68.9113 447.231 70.6734 451.942C72.4356 456.654 73.7853 461.275 74.8976 465.484C76.0099 469.693 76.8097 473.568 77.3971 476.825C77.7095 478.447 77.897 479.927 78.0844 481.227C78.2719 482.527 78.4094 483.647 78.5094 484.574C78.6093 485.501 78.6593 486.132 78.7093 486.685C78.7355 486.934 78.7313 487.184 78.6968 487.432V487.432Z" fill="#263238"/>
<path d="M123.337 478.125H49.3018V493.675H123.337V478.125Z" fill="#E84545"/>
<path d="M56.3516 493.688L64.3625 546.001H109.104L116.565 493.688H56.3516Z" fill="#E84545"/>
<path d="M118.789 493.686C118.789 493.866 104.792 494.021 87.5455 494.021C70.299 494.021 56.3018 493.866 56.3018 493.686C56.3018 493.506 70.299 493.352 87.5455 493.352C104.792 493.352 118.789 493.493 118.789 493.686Z" fill="#263238"/>
<path d="M523.557 479.094H724.617V438.171H523.557V479.094Z" fill="#E84545"/>
<path d="M687.085 479.094H706.73V438.171H687.085V479.094Z" fill="#37474F"/>
<path d="M671.594 479.094H679.794V438.171H671.594V479.094Z" fill="#37474F"/>
<path d="M541.835 479.094H561.48V438.171H541.835V479.094Z" fill="#37474F"/>
<path d="M491.309 334.135L439.678 534.578L468.177 542.389L519.808 341.946L491.309 334.135Z" fill="#37474F"/>
<path d="M449.311 497.157L444.266 516.742L472.765 524.553L477.81 504.968L449.311 497.157Z" fill="#E84545"/>
<path d="M486.615 352.368L481.57 371.953L510.069 379.764L515.114 360.179L486.615 352.368Z" fill="#E84545"/>
<path d="M481.002 541.516H713.866V521.059H481.002V541.516Z" fill="#E84545"/>
<path d="M652.456 541.516H661.946V521.059H652.456V541.516Z" fill="#A6A6A6"/>
<path d="M668.222 541.516H677.713V521.059H668.222V541.516Z" fill="#A6A6A6"/>
<path d="M504.233 541.516H513.724V521.059H504.233V541.516Z" fill="#A6A6A6"/>
<path d="M519.989 541.516H529.479V521.059H519.989V541.516Z" fill="#A6A6A6"/>
<path d="M642.427 407.641H502.953V438.169H642.427V407.641Z" fill="#455A64"/>
<path d="M721.929 407.641H642.418V438.169H721.929V407.641Z" fill="#455A64"/>
<path d="M642.427 410.805H502.953V435.002H642.427V410.805Z" fill="white"/>
<path d="M511.975 415.784C522.843 415.609 533.715 415.492 544.59 415.431L577.196 415.32L609.812 415.431C620.68 415.492 631.549 415.609 642.418 415.784C631.549 415.952 620.68 416.073 609.812 416.147L577.196 416.248L544.551 416.137C533.709 416.076 522.85 415.959 511.975 415.784Z" fill="#DBDBDB"/>
<path d="M511.975 420.534C522.843 420.366 533.715 420.245 544.59 420.171L577.196 420.07L609.812 420.171C620.68 420.245 631.549 420.366 642.418 420.534C631.549 420.702 620.68 420.82 609.812 420.887L577.196 420.998L544.551 420.887C533.709 420.826 522.85 420.709 511.975 420.534Z" fill="#DBDBDB"/>
<path d="M511.975 425.284C522.843 425.116 533.715 424.995 544.59 424.921L577.196 424.82L609.812 424.921C620.68 424.982 631.549 425.103 642.418 425.284C631.549 425.459 620.68 425.576 609.812 425.637L577.196 425.748L544.551 425.637C533.709 425.576 522.85 425.459 511.975 425.284Z" fill="#DBDBDB"/>
<path d="M511.975 430.029C522.843 429.854 533.715 429.733 544.59 429.666L577.196 429.555L609.812 429.666C620.68 429.726 631.549 429.847 642.418 430.029C631.549 430.203 620.68 430.321 609.812 430.381L577.196 430.492L544.551 430.381C533.709 430.321 522.85 430.203 511.975 430.029Z" fill="#DBDBDB"/>
<path d="M630.69 317.828H516.54V339.747H630.69V317.828Z" fill="#A6A6A6"/>
<path d="M695.763 317.828H630.688V339.747H695.763V317.828Z" fill="#A6A6A6"/>
<path d="M630.69 320.109H516.54V337.481H630.69V320.109Z" fill="white"/>
<path d="M523.929 323.676C532.83 323.555 541.727 323.471 550.621 323.424L577.314 323.344L604.007 323.424C612.901 323.465 621.795 323.549 630.69 323.676C621.795 323.797 612.901 323.885 604.007 323.939L577.314 324.009L550.621 323.939C541.727 323.892 532.83 323.804 523.929 323.676Z" fill="#DBDBDB"/>
<path d="M523.929 327.083C532.83 326.962 541.727 326.878 550.621 326.831L577.314 326.75L604.007 326.831C612.901 326.871 621.795 326.955 630.69 327.083C621.795 327.204 612.901 327.291 604.007 327.345L577.314 327.415L550.621 327.345C541.727 327.298 532.83 327.21 523.929 327.083Z" fill="#DBDBDB"/>
<path d="M523.929 330.489C532.83 330.368 541.727 330.284 550.621 330.237L577.314 330.156L604.007 330.237C612.901 330.277 621.795 330.361 630.69 330.489C621.795 330.617 612.901 330.704 604.007 330.751L577.314 330.822L550.621 330.751C541.727 330.704 532.83 330.617 523.929 330.489Z" fill="#DBDBDB"/>
<path d="M523.929 333.95C532.83 333.829 541.727 333.745 550.621 333.698L577.314 333.617L604.007 333.698C612.901 333.738 621.795 333.822 630.69 333.95C621.795 334.084 612.901 334.172 604.007 334.212L577.314 334.283L550.621 334.212C541.727 334.131 532.83 334.044 523.929 333.95Z" fill="#DBDBDB"/>
<path d="M481.647 373.259L453.85 480.986L437.996 542.406L422.7 538.201L438.554 476.781L466.351 369.055L481.647 373.259Z" fill="#E84545"/>
<path opacity="0.1" d="M481.647 373.259L453.85 480.986L437.996 542.406L422.7 538.201L438.554 476.781L466.351 369.055L481.647 373.259Z" fill="black"/>
<path d="M452.256 480.529L480.062 372.805L467.935 369.474L440.129 477.198L452.256 480.529Z" fill="white"/>
<path d="M475.762 379.109C473.69 387.525 471.586 395.926 469.448 404.315L462.998 429.52L456.449 454.725C454.247 463.113 452.018 471.495 449.764 479.869C451.849 471.448 453.957 463.046 456.087 454.664L462.528 429.459L469.087 404.254C471.289 395.866 473.514 387.484 475.762 379.109Z" fill="#DBDBDB"/>
<path d="M473.387 378.453C471.309 386.882 469.201 395.283 467.064 403.658L460.623 428.863L454.064 454.069C451.868 462.457 449.643 470.838 447.389 479.213C449.467 470.798 451.575 462.396 453.712 454.008L460.153 428.803L466.712 403.598C468.914 395.209 471.139 386.828 473.387 378.453Z" fill="#DBDBDB"/>
<path d="M471.011 377.805C468.933 386.227 466.825 394.628 464.688 403.01L458.247 428.215L451.688 453.42C449.492 461.808 447.267 470.187 445.013 478.555C447.085 470.133 449.189 461.731 451.327 453.35L457.777 428.144L464.326 402.939C466.522 394.585 468.75 386.206 471.011 377.805Z" fill="#DBDBDB"/>
<path d="M468.628 377.148C466.556 385.564 464.451 393.965 462.314 402.354L455.863 427.559L449.314 452.764C447.118 461.152 444.89 469.53 442.629 477.898C444.707 469.483 446.815 461.082 448.953 452.693L455.394 427.488L461.952 402.283C464.154 393.895 466.38 385.517 468.628 377.148Z" fill="#DBDBDB"/>
<path d="M580.98 521.055H697.827V479.093H580.98V521.055Z" fill="#263238"/>
<path d="M498.907 521.055H580.979V479.093H498.907V521.055Z" fill="#263238"/>
<path d="M580.98 516.695H697.827V483.445H580.98V516.695Z" fill="white"/>
<path d="M690.262 509.862C681.14 510.03 672.034 510.148 662.944 510.215L635.626 510.326L608.259 510.215C599.136 510.155 590.014 510.037 580.892 509.862C590.014 509.694 599.136 509.573 608.259 509.499L635.626 509.398L662.944 509.499C672.053 509.573 681.159 509.694 690.262 509.862Z" fill="#DBDBDB"/>
<path d="M690.262 503.331C681.14 503.499 672.034 503.617 662.944 503.684L635.626 503.795L608.259 503.684C599.136 503.623 590.014 503.506 580.892 503.331C590.014 503.163 599.136 503.042 608.259 502.968L635.626 502.867L662.944 502.968C672.053 503.035 681.159 503.156 690.262 503.331Z" fill="#DBDBDB"/>
<path d="M690.262 496.818C681.14 496.986 672.034 497.103 662.944 497.17L635.626 497.281L608.259 497.17C599.136 497.11 590.014 496.992 580.892 496.818C590.014 496.643 599.136 496.522 608.259 496.455L635.626 496.344L662.944 496.455C672.053 496.515 681.159 496.636 690.262 496.818Z" fill="#DBDBDB"/>
<path d="M690.262 490.294C681.14 490.469 672.034 490.587 662.944 490.647L635.626 490.758L608.259 490.647C599.136 490.587 590.014 490.469 580.892 490.294C590.014 490.113 599.136 489.992 608.259 489.931L635.626 489.82L662.944 489.931C672.053 489.992 681.159 490.113 690.262 490.294Z" fill="#DBDBDB"/>
<path d="M725.223 379.164H510.763V407.757H725.223V379.164Z" fill="#C7C7C7"/>
<path d="M613.409 385.008H530.927V402.167H613.409V385.008Z" fill="white"/>
<path d="M710.749 385.008H633.319V387.659H710.749V385.008Z" fill="white"/>
<path d="M710.749 392.141H633.319V394.792H710.749V392.141Z" fill="white"/>
<path d="M710.749 399.273H633.319V401.925H710.749V399.273Z" fill="white"/>
<path d="M683.732 339.75H525.59V379.04H683.732V339.75Z" fill="#E84545"/>
<path d="M666.96 339.75H652.221V379.04H666.96V339.75Z" fill="#263238"/>
<path d="M642.555 339.75H636.837V379.04H642.555V339.75Z" fill="#263238"/>
<path d="M610.571 54.3906C610.42 61.1824 611.67 67.9297 614.238 74.1872C616.806 80.4446 620.633 86.0698 625.468 90.6911C627.676 84.066 629.896 77.441 632.129 70.8159" fill="#263238"/>
<path d="M660.773 14.8621C655.049 11.644 648.151 11.1806 641.764 12.5064C635.404 14.0252 629.329 16.6082 623.781 20.1527C620.523 21.8872 617.607 24.2313 615.182 27.0652C611.033 32.4459 606.934 41.225 606.534 48.1375C606.209 53.6855 608.271 67.5621 610.546 72.5953C612.633 77.2165 622.406 80.7307 627.23 81.8763L671.471 28.8545C670.676 25.9089 669.321 23.1553 667.484 20.7533C665.648 18.3513 663.367 16.3489 660.773 14.8621Z" fill="#263238"/>
<path d="M668.397 22.0191L657.786 20.0625C663.585 34.2222 665.16 66.8283 668.484 81.8505C672.396 75.9935 681.481 58.1908 680.982 51.111C680.482 44.0311 681.006 20.8091 668.397 22.0191Z" fill="#263238"/>
<path d="M674.47 45.2144C673.782 34.2985 666.721 20.9111 656.161 22.0439L631.728 28.4801C627.966 29.4647 624.61 31.6667 622.153 34.7625C619.696 37.8582 618.269 41.6842 618.081 45.6778C618.081 46.0897 618.081 45.5877 618.081 45.8966L623.542 111.083L641.889 148.581L658.136 116.953C658.136 111.636 658.136 99.7037 658.136 99.7294C658.136 99.7552 671.683 97.3866 674.382 79.1334C675.707 70.1484 675.22 57.3403 674.47 45.2144Z" fill="#FFBF9D"/>
<path d="M666.896 60.1507C666.907 60.76 666.685 61.3492 666.278 61.7919C665.872 62.2347 665.313 62.4958 664.722 62.5193C664.433 62.5421 664.143 62.5057 663.869 62.4123C663.594 62.3189 663.34 62.1704 663.122 61.9752C662.903 61.7801 662.725 61.5422 662.596 61.2755C662.467 61.0087 662.391 60.7183 662.372 60.4211C662.368 59.8115 662.594 59.2242 663.002 58.7825C663.41 58.3408 663.968 58.0792 664.559 58.0525C664.847 58.0315 665.135 58.0692 665.408 58.1634C665.681 58.2576 665.934 58.4065 666.151 58.6014C666.368 58.7964 666.546 59.0336 666.674 59.2995C666.802 59.5654 666.877 59.8547 666.896 60.1507V60.1507Z" fill="#263238"/>
<path d="M671.821 52.3466C671.534 52.6556 669.821 51.3426 667.372 51.3554C664.922 51.3683 663.148 52.6427 662.885 52.3209C662.623 51.9991 663.048 51.6386 663.823 51.0336C664.872 50.2728 666.126 49.8679 667.409 49.8751C668.679 49.8702 669.917 50.2804 670.946 51.0465C671.696 51.6644 671.959 52.205 671.821 52.3466Z" fill="#263238"/>
<path d="M646.476 60.1448C646.487 60.7541 646.265 61.3433 645.858 61.7861C645.452 62.2288 644.893 62.4899 644.302 62.5134C644.013 62.5362 643.723 62.4998 643.449 62.4064C643.174 62.313 642.92 62.1645 642.702 61.9693C642.483 61.7742 642.305 61.5364 642.176 61.2696C642.047 61.0028 641.971 60.7124 641.952 60.4152C641.948 59.8056 642.174 59.2183 642.582 58.7766C642.99 58.3349 643.548 58.0733 644.139 58.0466C644.427 58.0221 644.717 58.0573 644.992 58.1502C645.266 58.243 645.52 58.3917 645.738 58.5873C645.956 58.7829 646.134 59.0215 646.26 59.289C646.387 59.5566 646.461 59.8476 646.476 60.1448V60.1448Z" fill="#263238"/>
<path d="M648.651 52.3467C648.376 52.6556 646.651 51.3426 644.214 51.3555C641.777 51.3684 639.99 52.6428 639.727 52.321C639.465 51.9991 639.877 51.6387 640.665 51.0337C641.713 50.2706 642.968 49.8654 644.251 49.8752C645.521 49.8703 646.759 50.2805 647.788 51.0466C648.538 51.6645 648.788 52.2051 648.651 52.3467Z" fill="#263238"/>
<path d="M656.274 72.0805C657.559 71.6593 658.89 71.4084 660.236 71.3339C660.861 71.3339 661.486 71.1409 661.486 70.7032C661.541 70.0397 661.397 69.3747 661.073 68.798C660.486 67.2533 659.824 65.6185 659.224 63.9194C656.649 56.9682 654.787 51.2528 655.062 51.1499C655.337 51.0469 657.724 56.5563 660.224 63.5461C660.836 65.2581 661.473 66.8929 661.998 68.4505C662.401 69.2413 662.516 70.1544 662.323 71.025C662.232 71.2511 662.093 71.4531 661.915 71.6158C661.738 71.7786 661.527 71.8978 661.298 71.9647C660.956 72.0595 660.603 72.1113 660.249 72.1192C658.927 72.2762 657.592 72.2633 656.274 72.0805V72.0805Z" fill="#263238"/>
<path d="M634.591 93.2812C634.591 93.2812 640.34 105.78 658.024 104.043V99.7561C649.781 99.8809 641.667 97.6388 634.591 93.2812V93.2812Z" fill="#FF9A6C"/>
<path d="M647.888 43.2729C647.651 43.9552 645.214 43.6334 642.352 43.9938C639.49 44.3542 637.178 45.1652 636.803 44.5602C636.628 44.2641 637.028 43.6205 637.965 42.964C639.2 42.1318 640.609 41.6154 642.077 41.4579C643.541 41.2799 645.026 41.4562 646.413 41.9728C647.463 42.3976 647.988 42.9511 647.888 43.2729Z" fill="#263238"/>
<path d="M671.022 44.6604C670.597 45.2396 668.91 44.6604 666.898 44.6604C664.886 44.6604 663.148 45.0465 662.761 44.4544C662.599 44.1712 662.861 43.592 663.611 43.0513C664.614 42.4043 665.78 42.0775 666.964 42.1118C668.147 42.1462 669.293 42.5402 670.26 43.2444C670.972 43.7979 671.209 44.3772 671.022 44.6604Z" fill="#263238"/>
<path d="M669.671 28.6003C669.045 27.2624 668.071 26.1294 666.858 25.3273C665.644 24.5251 664.239 24.0851 662.797 24.0563C659.909 24.0603 657.082 24.9133 654.649 26.5149C644.126 32.7709 638.714 47.909 628.316 54.3968C625.754 55.9929 622.43 54.5255 620.256 56.6366C618.081 58.7476 616.669 62.1331 617.869 64.9522C616.38 63.0417 615.164 60.9221 614.257 58.6575C613.814 57.5213 613.612 56.3009 613.664 55.0779C613.716 53.8548 614.02 52.6572 614.557 51.5648C615.457 49.9557 617.056 48.7328 617.481 46.9307C617.869 45.3474 617.256 43.6997 617.319 42.0649C617.5 40.4063 618.056 38.8147 618.943 37.4179C623.018 30.0033 628.616 23.2582 635.84 19.1132C640.55 16.313 645.912 14.8847 651.349 14.9811C656.807 15.1161 662.038 17.2575 666.097 21.0183C668.434 23.2582 670.871 25.5623 669.671 28.6003Z" fill="#263238"/>
<path d="M620.506 58.8966C620.318 58.3688 611.108 54.9448 610.983 65.0368C610.858 74.8328 620.468 72.9148 620.493 72.6316C620.518 72.3484 620.506 58.8966 620.506 58.8966Z" fill="#FFBF9D"/>
<path d="M617.581 68.8855C617.581 68.8855 617.419 69.0013 617.131 69.1301C616.934 69.2165 616.721 69.261 616.507 69.261C616.292 69.261 616.079 69.2165 615.882 69.1301C614.882 68.7439 614.045 67.0962 614.02 65.2683C614.005 64.4302 614.172 63.5992 614.507 62.8354C614.599 62.5331 614.761 62.2582 614.979 62.0341C615.196 61.81 615.463 61.6433 615.757 61.5482C615.948 61.4965 616.15 61.5159 616.328 61.603C616.507 61.6902 616.65 61.8394 616.731 62.0244C616.856 62.2948 616.731 62.4879 616.844 62.5136C616.956 62.5393 617.044 62.3463 616.969 61.9472C616.927 61.7021 616.797 61.4819 616.606 61.3293C616.347 61.1237 616.019 61.0313 615.694 61.0719C615.302 61.1446 614.935 61.3202 614.629 61.5818C614.322 61.8434 614.087 62.1821 613.944 62.5651C613.527 63.4091 613.321 64.3471 613.345 65.294C613.345 67.2764 614.357 69.1558 615.719 69.5549C615.975 69.634 616.245 69.6531 616.508 69.6108C616.772 69.5685 617.024 69.4658 617.244 69.3103C617.569 69.1172 617.619 68.8984 617.581 68.8855Z" fill="#FF9A6C"/>
<path d="M616.721 53.8532C616.923 53.7621 617.116 53.6499 617.296 53.5185C617.658 53.2868 618.22 52.965 618.895 52.4759C620.766 51.0608 622.488 49.4472 624.032 47.6615C626.267 44.983 628.353 42.1767 630.28 39.2558C632.622 35.6755 635.252 32.3039 638.141 29.1766C639.658 27.6177 641.334 26.2323 643.14 25.0446C644.858 23.9625 646.696 23.098 648.614 22.4701C651.866 21.3859 655.289 20.9491 658.7 21.1828C660.998 21.3061 663.271 21.7389 665.461 22.4701C666.236 22.7146 666.823 22.9978 667.223 23.1523C667.425 23.2435 667.634 23.3167 667.848 23.3711L667.261 23.0622C666.691 22.7806 666.107 22.5314 665.511 22.3156C663.329 21.4837 661.045 20.9724 658.725 20.7966C655.274 20.5169 651.803 20.9234 648.502 21.9938C646.547 22.6084 644.674 23.4733 642.928 24.5683C641.068 25.7696 639.338 27.1721 637.767 28.7519C634.859 31.8939 632.224 35.2923 629.893 38.9083C627.972 41.8296 625.907 44.6481 623.707 47.3526C622.196 49.1402 620.522 50.7739 618.708 52.2313C618.058 52.7462 617.458 53.0809 617.158 53.3383C617.001 53.4994 616.855 53.6714 616.721 53.8532V53.8532Z" fill="#455A64"/>
<path d="M619.119 56.6312C618.969 59.3087 618.844 62.1277 620.044 64.5091C621.244 66.8905 624.281 68.5125 626.543 67.1738C628.38 66.0925 628.93 63.6596 629.242 61.497C630.154 55.2538 630.567 48.9334 631.517 42.7031L619.119 56.6312Z" fill="#263238"/>
<path d="M667.323 23.9243C667.323 23.9243 666.485 23.7698 664.961 23.7183C662.822 23.6773 660.697 24.0801 658.712 24.9026C657.327 25.4505 656.003 26.1496 654.763 26.9879C653.343 27.9711 651.983 29.0415 650.689 30.1932C647.702 32.8078 645.029 35.781 642.728 39.0495C641.478 40.8001 640.453 42.5894 639.291 44.1985C638.193 45.8196 636.914 47.3017 635.479 48.6137C633.006 50.7667 630.306 52.6276 627.431 54.1618C624.931 55.449 622.957 56.4145 621.557 57.0581L619.932 57.7661C619.743 57.8573 619.547 57.9305 619.345 57.9849C619.345 57.9849 619.52 57.8562 619.882 57.6631L621.469 56.8521C622.844 56.157 624.856 55.1787 627.256 53.8142C630.077 52.2525 632.726 50.3793 635.154 48.2275C636.569 46.9376 637.828 45.4768 638.903 43.8766C640.041 42.229 641.115 40.4268 642.34 38.7276C644.663 35.4181 647.38 32.4212 650.426 29.807C651.74 28.6509 653.126 27.5845 654.575 26.6146C655.847 25.7694 657.205 25.0702 658.624 24.5293C660.682 23.7304 662.878 23.3797 665.073 23.4995C665.667 23.5328 666.256 23.6189 666.835 23.7569C667.002 23.7968 667.166 23.8528 667.323 23.9243V23.9243Z" fill="#455A64"/>
<path d="M618.856 50.5686C618.593 50.7949 618.308 50.9932 618.006 51.1607L615.594 52.6153L614.782 53.0916C614.464 53.2838 614.111 53.4065 613.745 53.4521C613.521 53.4757 613.297 53.4213 613.107 53.2976C613.007 53.2298 612.921 53.1408 612.857 53.0365C612.792 52.9322 612.75 52.815 612.732 52.6926C612.742 52.2245 612.9 51.7725 613.182 51.4053L615.982 46.7841L616.357 47.1574C615.433 47.8622 614.397 48.3938 613.295 48.7278C612.193 49.0654 611.043 49.2047 609.895 49.1398C609.602 49.1324 609.311 49.0803 609.033 48.9853C608.868 48.9394 608.716 48.8551 608.589 48.7391C608.461 48.623 608.361 48.4782 608.296 48.3159C608.24 48.1507 608.224 47.9739 608.251 47.8011C608.277 47.6283 608.344 47.4647 608.446 47.3247C608.61 47.1055 608.794 46.9029 608.996 46.7197C610.246 45.4663 611.334 44.0514 612.232 42.5104C613.021 41.0556 613.71 39.5459 614.294 37.9922C614.245 38.4321 614.144 38.8643 613.995 39.2794C613.628 40.4591 613.146 41.5977 612.557 42.6778C611.687 44.2849 610.601 45.7582 609.333 47.0544C608.983 47.402 608.633 47.801 608.771 48.11C608.908 48.4189 609.42 48.5734 609.92 48.5734C612.11 48.6889 614.273 48.0253 616.044 46.694L617.181 45.8315L616.419 47.1188L613.57 51.7014C613.347 51.9708 613.208 52.3025 613.17 52.654C613.17 52.9372 613.407 53.0916 613.707 53.0659C614.318 52.9429 614.9 52.698 615.419 52.345L617.919 51.0578C618.208 50.8514 618.523 50.6868 618.856 50.5686V50.5686Z" fill="#455A64"/>
<path d="M654.162 76.8401C653.692 76.2854 653.095 75.8606 652.425 75.6043C651.755 75.348 651.033 75.2684 650.325 75.3726C649.811 75.4349 649.314 75.6025 648.863 75.8656C648.412 76.1287 648.017 76.4819 647.701 76.9045C647.4 77.3094 647.228 77.8007 647.211 78.3105C647.193 78.8202 647.329 79.323 647.601 79.7493C647.999 80.1625 648.505 80.448 649.057 80.5713C649.609 80.6947 650.184 80.6506 650.713 80.4444C651.803 80.0076 652.801 79.3561 653.65 78.5264C653.909 78.3314 654.13 78.0866 654.3 77.8055C654.385 77.6741 654.431 77.5196 654.431 77.3614C654.431 77.2033 654.385 77.0487 654.3 76.9174" fill="#FF9A6C"/>
<path d="M648.125 72.9533C648.513 72.9533 648.588 75.5278 650.825 77.2527C653.062 78.9776 655.824 78.6558 655.824 79.0163C655.824 79.1707 655.236 79.5311 654.087 79.5955C652.604 79.6779 651.14 79.2224 649.95 78.3083C648.813 77.4344 648.054 76.1354 647.838 74.6911C647.725 73.5841 647.95 72.9404 648.125 72.9533Z" fill="#263238"/>
<path d="M683.631 247.188L693.867 271.002L644.189 290.143L633.079 264.54L683.631 247.188Z" fill="#263238"/>
<path d="M784.01 392.094L797.595 422.306C797.595 422.306 831.526 417.671 834.563 423.013L779.099 452.788L756.041 406.614L784.01 392.094Z" fill="#455A64"/>
<path d="M779.5 428.752C779.044 429.208 778.766 429.82 778.72 430.473C778.674 431.126 778.862 431.774 779.25 432.292C779.675 432.776 780.262 433.076 780.893 433.131C781.524 433.186 782.152 432.992 782.65 432.588C783.133 432.106 783.426 431.457 783.472 430.765C783.519 430.073 783.314 429.388 782.899 428.843C782.407 428.381 781.761 428.132 781.095 428.149C780.429 428.166 779.795 428.447 779.325 428.933" fill="#E0E0E0"/>
<path d="M779.087 452.784L777.263 449.167L831.664 421.375C832.314 421.433 832.945 421.627 833.519 421.946C834.093 422.265 834.597 422.701 835.001 423.229L779.087 452.784Z" fill="#263238"/>
<path d="M798.208 422.223C798.333 422.506 797.021 423.356 796.121 424.965C795.222 426.574 795.084 428.157 794.772 428.183C794.459 428.209 794.059 426.342 795.197 424.412C796.334 422.481 798.133 421.927 798.208 422.223Z" fill="#263238"/>
<path d="M805.344 421.646C805.544 421.89 804.594 422.997 804.256 424.684C803.919 426.37 804.256 427.773 803.981 427.902C803.707 428.03 802.732 426.524 803.207 424.439C803.681 422.354 805.194 421.375 805.344 421.646Z" fill="#263238"/>
<path d="M812.294 427.182C812.081 427.362 811.044 426.152 810.931 424.234C810.819 422.316 811.856 421.016 812.094 421.196C812.331 421.377 811.944 422.612 812.006 424.196C812.069 425.779 812.556 427.002 812.294 427.182Z" fill="#263238"/>
<path d="M794.334 415.698C794.334 416.007 792.897 416.277 791.397 417.204C789.898 418.131 788.898 419.264 788.66 419.096C788.423 418.929 789.073 417.307 790.847 416.251C792.622 415.196 794.359 415.35 794.334 415.698Z" fill="#263238"/>
<path d="M792.185 408.72C792.185 408.836 791.247 409.582 789.36 410.187C788.252 410.534 787.106 410.737 785.948 410.793C785.266 410.843 784.581 410.843 783.899 410.793C783.473 410.781 783.052 410.703 782.649 410.561C782.368 410.456 782.128 410.257 781.97 409.996C781.811 409.734 781.742 409.426 781.774 409.119C781.814 408.848 781.915 408.59 782.069 408.367C782.223 408.143 782.426 407.96 782.661 407.832C783.015 407.642 783.394 407.508 783.786 407.433C784.464 407.275 785.154 407.176 785.848 407.137C787.02 407.082 788.192 407.217 789.323 407.536C791.235 408.102 792.21 408.926 792.135 409.029C792.06 409.132 790.985 408.63 789.148 408.295C788.079 408.106 786.991 408.059 785.911 408.154C785.282 408.212 784.659 408.324 784.049 408.488C783.361 408.63 782.799 408.9 782.799 409.248C782.799 409.389 782.799 409.428 783.024 409.544C783.306 409.642 783.601 409.699 783.899 409.711C784.538 409.783 785.18 409.817 785.823 409.814C786.914 409.798 788.002 409.682 789.073 409.467C790.091 409.141 791.131 408.892 792.185 408.72V408.72Z" fill="#263238"/>
<path d="M731.235 440.636L729.51 473.886C729.51 473.886 761.591 486.153 761.854 492.332L699.304 491.907L699.916 439.992L731.235 440.636Z" fill="#455A64"/>
<path d="M710.589 470.871C709.975 471.046 709.448 471.451 709.108 472.005C708.768 472.56 708.641 473.224 708.752 473.87C708.909 474.502 709.293 475.049 709.827 475.4C710.36 475.751 711.003 475.881 711.626 475.762C712.273 475.569 712.828 475.136 713.184 474.547C713.539 473.957 713.67 473.253 713.551 472.57C713.326 471.924 712.867 471.394 712.27 471.092C711.673 470.789 710.985 470.737 710.351 470.948" fill="#E0E0E0"/>
<path d="M699.304 491.906V487.773L760.004 489.434C760.552 489.798 761.022 490.274 761.385 490.831C761.748 491.389 761.997 492.017 762.116 492.678L699.304 491.906Z" fill="#263238"/>
<path d="M730.072 474.098C730.072 474.42 728.522 474.536 726.985 475.527C725.447 476.518 724.623 477.844 724.335 477.715C724.048 477.587 724.548 475.759 726.422 474.587C728.297 473.416 730.209 473.815 730.072 474.098Z" fill="#263238"/>
<path d="M736.658 477.034C736.72 477.356 735.408 477.871 734.308 479.197C733.209 480.523 732.909 481.926 732.596 481.913C732.284 481.9 732.134 480.098 733.484 478.476C734.833 476.854 736.658 476.738 736.658 477.034Z" fill="#263238"/>
<path d="M740.282 485.275C739.994 485.339 739.594 483.743 740.419 482.018C741.244 480.293 742.694 479.624 742.819 479.894C742.944 480.164 742.031 481.078 741.381 482.468C740.732 483.859 740.582 485.21 740.282 485.275Z" fill="#263238"/>
<path d="M729.646 466.428C729.509 466.711 728.109 466.248 726.359 466.338C724.61 466.428 723.248 466.968 723.098 466.698C722.948 466.428 724.26 465.308 726.322 465.231C728.384 465.153 729.809 466.183 729.646 466.428Z" fill="#263238"/>
<path d="M730.897 459.284C729.855 459.546 728.764 459.52 727.735 459.207C726.596 458.976 725.488 458.605 724.435 458.1C723.814 457.799 723.213 457.455 722.636 457.07C722.284 456.862 721.968 456.597 721.698 456.285C721.5 456.057 721.382 455.767 721.362 455.462C721.341 455.156 721.42 454.853 721.586 454.599C721.745 454.381 721.951 454.204 722.187 454.081C722.423 453.958 722.684 453.893 722.948 453.891C723.35 453.902 723.75 453.967 724.135 454.084C725.944 454.593 727.602 455.557 728.96 456.89C730.397 458.319 730.884 459.464 730.772 459.567C730.659 459.67 729.934 458.666 728.46 457.482C727.603 456.801 726.667 456.234 725.673 455.796C725.087 455.54 724.48 455.338 723.861 455.191C723.198 454.998 722.611 454.985 722.448 455.281C722.286 455.577 722.373 455.448 722.511 455.654C722.72 455.873 722.955 456.063 723.211 456.221C723.743 456.59 724.293 456.929 724.86 457.237C725.834 457.758 726.85 458.189 727.897 458.525C728.914 458.702 729.916 458.955 730.897 459.284V459.284Z" fill="#263238"/>
<path d="M588.175 281.012C588.175 281.012 713.512 264.844 720.898 264.844C738.232 264.844 749.118 278.45 751.705 288.954C753.617 296.677 792.197 408.99 792.197 408.99L763.74 424.18L721.886 347.575L700.552 309.357L590.574 326.851L588.175 281.012Z" fill="#263238"/>
<path d="M705.728 305.835C705.728 305.835 722.912 305.835 732.185 319.995C737.634 328.323 735.722 343.166 735.834 354.403C735.984 369.683 732.398 462.777 732.398 462.777L697.267 463.382L689.906 366.362L690.331 348.43L620.233 342.535C620.233 342.535 613.846 320.651 629.556 303.351C631.48 301.137 705.728 305.835 705.728 305.835Z" fill="#263238"/>
<path d="M598.886 249.797C598.886 249.797 571.179 293.718 588.175 326.723C596.274 342.44 620.506 342.427 620.506 342.427L645.364 310.375V257.366L598.886 249.797Z" fill="#263238"/>
<path d="M620.506 342.425C620.657 342.325 620.816 342.239 620.981 342.167L622.38 341.498L627.779 338.923L647.775 329.771L677.382 316.294L694.879 308.351C696.416 307.695 697.89 306.91 699.515 306.343C701.142 305.765 702.815 305.335 704.514 305.056C707.984 304.524 711.509 304.493 714.987 304.966C718.478 305.393 721.881 306.383 725.073 307.901C726.64 308.661 728.095 309.645 729.397 310.823C730.662 312.01 731.738 313.396 732.584 314.929C734.238 317.891 735.241 321.191 735.52 324.596C735.658 326.27 735.52 327.879 735.52 329.488C735.52 331.097 735.52 332.68 735.52 334.251C735.371 346.801 735.246 358.091 735.146 367.591C735.046 377.09 734.908 384.724 734.833 390.066C734.833 392.64 734.746 394.739 734.721 396.18C734.721 396.85 734.721 397.378 734.721 397.764C734.734 397.944 734.734 398.124 734.721 398.304C734.71 398.124 734.71 397.944 734.721 397.764C734.721 397.378 734.721 396.85 734.721 396.18C734.721 394.739 734.721 392.692 734.721 390.066C734.721 384.724 734.721 377.052 734.808 367.591C734.896 358.129 734.946 346.789 735.033 334.251C735.033 332.68 735.033 331.097 735.033 329.488C735.033 327.879 735.108 326.244 734.971 324.648C734.699 321.349 733.721 318.153 732.109 315.29C731.301 313.819 730.272 312.489 729.059 311.351C727.805 310.218 726.399 309.277 724.885 308.557C721.765 307.071 718.437 306.098 715.025 305.674C711.613 305.214 708.155 305.244 704.752 305.764C703.094 306.047 701.463 306.478 699.878 307.051C698.315 307.605 696.803 308.338 695.278 309.046L677.782 316.95L648.125 330.286L628.129 339.22L622.668 341.614L621.243 342.219C621.01 342.328 620.761 342.398 620.506 342.425V342.425Z" fill="#455A64"/>
<path d="M718.425 264.844C718.425 265.025 692.117 268.075 659.624 271.654C627.13 275.232 600.773 277.987 600.748 277.807C600.723 277.627 627.055 274.576 659.549 270.997C692.042 267.419 718.4 264.664 718.425 264.844Z" fill="#455A64"/>
<path d="M687.443 200.854C689.48 194.173 696.604 169.587 695.004 156.624C693.754 146.326 684.719 133.016 682.032 125.936C680.782 122.602 670.646 119.165 664.61 117.324L658.611 110.025L658.111 113.591C656.343 115.674 654.128 117.304 651.642 118.352C649.156 119.399 646.468 119.837 643.789 119.628C634.878 118.805 627.542 115.059 622.706 109.523C599.561 116.796 599.636 118.418 595.211 120.233C589.488 122.576 606.609 179.074 606.609 179.074C606.609 179.074 612.745 214.563 606.972 226.522C603.722 233.254 599.96 240.939 597.199 247.195C597.199 247.195 589.5 262.307 591.15 261.921C594.612 261.097 618.644 267.07 641.227 268.357C682.981 270.623 690.967 264.251 690.967 264.251C688.78 253.245 685.119 214.666 685.131 207.174C685.106 205.874 687.081 202.012 687.443 200.854Z" fill="#E84545"/>
<path d="M659.349 111.789C659.349 111.789 686.556 119.011 689.218 122.744C696.454 132.874 740.045 202.193 718.649 222.866C704.627 236.408 684.906 207.831 684.906 207.831L659.349 111.789Z" fill="#E84545"/>
<path d="M716.038 193.432C715.393 193.373 714.753 193.261 714.126 193.097L708.914 191.99C704.478 191.063 698.266 189.75 691.143 188.695L691.518 188.476L689.381 193.908L684.307 206.665V206.343L692.18 216.074L694.367 218.855C694.639 219.174 694.882 219.519 695.092 219.885C695.092 219.885 697.104 220.837 694.217 218.984L691.88 216.319L683.807 206.755L683.682 206.6L683.757 206.433L688.756 193.638C689.493 191.784 690.218 189.969 690.905 188.218L691.005 187.961H691.293C698.454 189.055 704.652 190.445 709.064 191.501C711.276 192.029 713.026 192.479 714.238 192.788C714.852 192.957 715.454 193.172 716.038 193.432V193.432Z" fill="#263238"/>
<path d="M689.868 190.17C689.871 189.406 689.938 188.644 690.068 187.891C690.268 186.321 690.518 184.236 690.83 181.726C691.763 174.982 691.985 168.154 691.492 161.361C690.814 154.565 688.907 147.959 685.869 141.885C684.731 139.542 683.694 137.689 682.969 136.414C682.561 135.772 682.198 135.101 681.882 134.406C681.882 134.406 682.032 134.561 682.257 134.87C682.482 135.179 682.807 135.655 683.207 136.273C684.006 137.56 685.106 139.324 686.318 141.666C689.519 147.745 691.516 154.417 692.192 161.297C692.694 168.139 692.4 175.019 691.317 181.79C690.955 184.364 690.593 186.488 690.343 187.93C690.242 188.688 690.083 189.437 689.868 190.17V190.17Z" fill="#263238"/>
<g opacity="0.3">
<path d="M600.748 241.919L652.25 217.461L648.764 206.97L656.687 203.855L669.597 205.592C672.79 206.026 676.037 205.697 679.086 204.63C682.136 203.563 684.905 201.787 687.181 199.439V199.439L655.1 191.085L618.507 199.118L609.209 171.352L606.909 179.487L608.821 196.955L610.071 215.826L600.748 241.919Z" fill="black"/>
</g>
<path d="M595.836 119.953C592.663 121.385 589.837 123.521 587.56 126.209C585.282 128.898 583.61 132.071 582.663 135.503C580.895 139.566 579.554 143.812 578.664 148.17C574.328 167.865 564.917 204.809 564.567 214.669C563.892 232.407 577.589 237.44 584.988 238.985C592.386 240.53 643.726 213.163 643.726 213.163L633.053 183.286L601.672 196.66C601.672 196.66 608.833 173.876 610.908 164.556C612.982 155.237 595.836 119.953 595.836 119.953Z" fill="#E84545"/>
<path d="M691.33 185.177C690.705 182.251 690.607 179.232 691.042 176.27C691.403 174.492 691.467 172.663 691.23 170.863C690.905 169.1 689.305 167.233 687.568 167.375L684.943 180.363L691.33 185.177Z" fill="#FFBF9D"/>
<path d="M690.117 154.698L680.882 200.601L658.974 199.237L665.46 153.823C665.544 153.244 665.828 152.716 666.259 152.335C666.691 151.954 667.241 151.747 667.809 151.75H687.805C688.158 151.749 688.507 151.83 688.825 151.987C689.144 152.143 689.425 152.371 689.646 152.654C689.868 152.937 690.025 153.267 690.107 153.621C690.189 153.975 690.192 154.343 690.117 154.698V154.698Z" fill="#263238"/>
<path d="M665.485 166.628C665.635 166.21 665.748 165.779 665.823 165.34C666.01 164.375 666.26 163.126 666.56 161.62L667.597 156.111C667.597 155.853 667.685 155.57 667.747 155.364C667.83 155.142 667.963 154.944 668.135 154.785C668.308 154.614 668.525 154.498 668.76 154.45C669.018 154.43 669.277 154.43 669.535 154.45H672.996C677.733 154.45 682.032 154.373 685.131 154.321L688.881 154.218C689.333 154.235 689.785 154.2 690.23 154.116C689.783 154.058 689.332 154.032 688.881 154.038H685.131C682.032 154.038 677.733 154.038 672.996 154.038H669.535C669.244 154.008 668.951 154.008 668.66 154.038C668.358 154.106 668.078 154.252 667.847 154.463C667.623 154.675 667.451 154.94 667.347 155.235C667.275 155.507 667.217 155.782 667.172 156.059C666.823 158.119 666.51 159.985 666.235 161.594L665.648 165.327C665.56 165.756 665.506 166.19 665.485 166.628V166.628Z" fill="#455A64"/>
<path d="M677.195 156.614C677.291 156.366 677.469 156.162 677.699 156.039C677.929 155.916 678.194 155.882 678.445 155.945C678.644 155.999 678.823 156.112 678.961 156.27C679.098 156.428 679.188 156.623 679.22 156.833C679.228 157.061 679.176 157.288 679.071 157.489C678.966 157.691 678.81 157.86 678.62 157.978C678.425 158.091 678.201 158.14 677.978 158.119C677.755 158.099 677.543 158.009 677.37 157.863C677.213 157.703 677.11 157.494 677.079 157.269C677.047 157.043 677.088 156.813 677.195 156.614V156.614Z" fill="#FAFAFA"/>
<path d="M677.796 170.463C678.308 170.592 689.893 176.758 689.893 176.758L695.942 183.323C695.942 183.323 698.129 187.185 696.354 193.055C694.58 198.925 691.693 201.074 685.032 202.773L672.447 200.727L666.073 195.346C665.464 194.826 665.02 194.13 664.797 193.348C664.575 192.566 664.584 191.733 664.823 190.956L664.911 190.686L664.186 189.399C663.965 189.017 663.858 188.577 663.878 188.133C663.898 187.689 664.044 187.261 664.298 186.902C664.643 186.421 665.158 186.099 665.732 186.008C666.305 185.916 666.891 186.061 667.36 186.412L674.534 191.819L679.47 192.488L680.208 190.828L672.972 186.966L663.774 179.629C663.484 179.399 663.242 179.112 663.064 178.783C662.885 178.455 662.773 178.092 662.735 177.718C662.696 177.344 662.732 176.965 662.84 176.605C662.947 176.246 663.125 175.912 663.361 175.625C663.774 175.124 664.345 174.79 664.974 174.682C665.603 174.573 666.249 174.698 666.798 175.033L675.346 180.182L684.269 184.237L682.857 180.581L672.372 172.587C672.372 172.587 671.472 168.816 677.796 170.463Z" fill="#FFBF9D"/>
<path d="M676.745 164.168C676.745 164.168 674.333 162.74 670.321 164.452C666.31 166.164 661.186 168.751 661.186 168.751L653.5 171.004L654.412 169.047C654.412 169.047 661.998 169.845 661.636 164.156L657.061 164.362L653.137 162.289L645.401 170.013L642.489 180.967L633.979 185.524L640.665 204.266L652.675 197.405L667.672 197.109L673.183 192.514L673.796 186.682L679.194 181.019C679.194 181.019 679.869 178.187 677.382 177.916C674.895 177.646 668.909 183.773 668.909 183.773L662.898 183.915C662.898 183.915 661.873 182.949 662.71 182.396C663.548 181.842 681.257 172.883 682.044 170.875C682.831 168.867 683.644 167.554 681.881 167.013C680.306 166.77 678.697 166.929 677.195 167.477C677.195 167.477 678.082 164.606 676.745 164.168Z" fill="#FFBF9D"/>
<path d="M662.061 175.368C664.752 174.223 667.385 172.934 669.947 171.506C672.579 170.243 675.144 168.838 677.632 167.297C674.941 168.418 672.308 169.686 669.747 171.094C667.111 172.375 664.546 173.801 662.061 175.368Z" fill="#FF9A6C"/>
<path d="M658.486 189.928C658.772 190.067 659.075 190.167 659.386 190.225C659.974 190.379 660.836 190.611 661.886 190.804C663.151 191.042 664.438 191.133 665.722 191.074C667.311 190.986 668.862 190.547 670.271 189.787C672.776 188.345 674.95 186.365 676.645 183.981C677.308 183.093 677.82 182.359 678.157 181.845C678.356 181.587 678.523 181.306 678.657 181.008C677.85 181.886 677.09 182.81 676.383 183.775C674.655 186.05 672.511 187.952 670.072 189.375C668.715 190.109 667.226 190.547 665.697 190.662C664.445 190.743 663.189 190.686 661.948 190.495C659.824 190.147 658.499 189.851 658.486 189.928Z" fill="#FF9A6C"/>
<path d="M633.979 185.527L634.516 185.205L636.141 184.291L642.389 180.867L642.314 180.957L645.164 169.977L652.862 162.254L652.987 162.125L653.137 162.215L657.074 164.275H656.949L661.523 164.056H661.798V164.326C661.871 165.214 661.702 166.106 661.311 166.901C660.861 167.618 660.225 168.189 659.473 168.548C657.854 169.273 656.081 169.557 654.324 169.372L654.612 169.205L653.712 171.174L653.362 170.75L661.048 168.471L668.547 164.957C670.946 163.67 674.033 162.537 676.97 163.876C677.146 163.942 677.306 164.045 677.442 164.177C677.577 164.31 677.685 164.47 677.757 164.648C677.887 164.966 677.951 165.308 677.945 165.652C677.951 166.306 677.862 166.956 677.682 167.583L677.27 167.171C678.161 166.877 679.077 166.674 680.007 166.566C681.017 166.379 682.059 166.571 682.944 167.107C683.196 167.305 683.366 167.595 683.419 167.918C683.47 168.203 683.47 168.495 683.419 168.78C683.282 169.267 683.115 169.744 682.919 170.209L682.644 170.891C682.586 171.025 682.52 171.154 682.444 171.277C682.359 171.39 682.267 171.498 682.169 171.599C681.803 171.947 681.414 172.27 681.007 172.565C677.83 174.674 674.551 176.616 671.184 178.383L666.297 180.957C665.497 181.395 664.697 181.807 663.898 182.245C663.535 182.451 662.998 182.682 662.948 182.85C662.898 183.017 663.085 183.429 663.348 183.686L663.123 183.596L669.134 183.455L668.922 183.545C670.684 181.737 672.619 180.116 674.695 178.705C675.216 178.361 675.769 178.073 676.345 177.842C676.958 177.587 677.637 177.555 678.27 177.752C678.595 177.854 678.892 178.036 679.134 178.283C679.376 178.53 679.555 178.834 679.657 179.168C679.813 179.802 679.813 180.465 679.657 181.099V181.176L673.971 186.879L674.046 186.711C673.833 188.72 673.621 190.663 673.421 192.556V192.659L673.346 192.723L667.809 197.293H667.747H667.722L652.662 197.537H652.75L643.814 202.545L641.465 203.832L640.865 204.154C640.727 204.231 640.652 204.257 640.652 204.244L640.84 204.115L641.427 203.755L643.727 202.39L652.587 197.241H652.662L667.659 196.881H667.522L673.021 192.272L672.921 192.453C673.121 190.573 673.321 188.629 673.521 186.621V186.57L673.583 186.506L678.97 180.829L678.895 180.97C679.12 179.928 678.895 178.615 677.845 178.396C677.298 178.316 676.74 178.355 676.209 178.51C675.677 178.665 675.183 178.933 674.758 179.297C672.724 180.684 670.831 182.28 669.109 184.06L669.022 184.15H668.972L662.973 184.317H662.835L662.748 184.227C662.559 184.044 662.398 183.831 662.273 183.596C662.195 183.455 662.148 183.297 662.135 183.135C662.122 182.973 662.143 182.809 662.198 182.657C662.339 182.388 662.564 182.175 662.835 182.052L663.435 181.73L665.835 180.443L670.709 177.868C674.051 176.108 677.305 174.175 680.457 172.075C680.817 171.784 681.155 171.466 681.469 171.123C681.543 171.052 681.609 170.975 681.669 170.891C681.723 170.812 681.765 170.726 681.794 170.634L682.081 169.951C682.406 169.102 682.906 168.021 682.344 167.634C681.581 167.207 680.697 167.066 679.844 167.235C678.961 167.331 678.09 167.521 677.245 167.802L676.67 167.995L676.832 167.39C676.991 166.829 677.071 166.249 677.07 165.665C677.07 165.099 676.882 164.609 676.533 164.506C675.27 163.974 673.88 163.848 672.546 164.146C671.2 164.454 669.901 164.948 668.684 165.613L661.273 169.089L653.575 171.342L652.95 171.522L653.237 170.917L654.15 168.96L654.224 168.78H654.437C656.084 168.955 657.748 168.698 659.273 168.033C659.968 167.687 660.546 167.136 660.936 166.45C661.269 165.756 661.416 164.983 661.361 164.21L661.648 164.468L657.074 164.661H656.999L653.075 162.563H653.362L645.614 170.286V170.196C644.451 174.47 643.452 178.164 642.639 181.138V181.202L636.291 184.51L634.641 185.347L633.979 185.527Z" fill="#FF9A6C"/>
<path d="M601.685 233.821C601.936 233.654 602.199 233.508 602.473 233.383L604.785 232.199L613.533 227.9L643.664 213.225L643.502 213.624C641.552 208.141 639.453 202.206 637.253 196.066C635.728 191.715 634.229 187.48 632.791 183.387L633.216 183.58L602.51 196.864H602.448C599.931 197.088 597.455 197.66 595.087 198.563C593.306 199.239 591.681 200.286 590.312 201.64C589.448 202.498 588.759 203.527 588.288 204.665C588.138 205.051 588.05 205.36 587.988 205.566C587.972 205.677 587.943 205.785 587.9 205.888C587.878 205.777 587.878 205.664 587.9 205.553C587.961 205.234 588.044 204.92 588.15 204.613C588.582 203.435 589.246 202.361 590.1 201.46C591.474 200.048 593.116 198.944 594.924 198.216C597.33 197.256 599.853 196.645 602.423 196.401H602.348L632.966 182.949L633.279 182.82L633.391 183.142C634.841 187.236 636.341 191.471 637.865 195.809C640.04 201.949 642.127 207.896 644.114 213.38L644.214 213.663L643.952 213.792L613.733 228.234L604.985 232.379L602.622 233.461C602.317 233.6 602.004 233.721 601.685 233.821V233.821Z" fill="#263238"/>
<path d="M612.159 151.816C611.416 150.592 610.736 149.328 610.122 148.031C608.872 145.676 607.097 142.496 604.885 139.123C602.673 135.751 600.461 132.867 598.799 130.808C597.857 129.743 596.973 128.626 596.149 127.461C596.149 127.461 596.487 127.693 597.012 128.22C597.537 128.748 598.262 129.508 599.149 130.499C603.701 135.702 607.532 141.528 610.534 147.812C611.096 149.009 611.534 150.001 611.784 150.709C611.963 151.056 612.089 151.429 612.159 151.816Z" fill="#263238"/>
<path d="M613.395 158.117C613.344 158.675 613.226 159.224 613.045 159.752C612.77 160.782 612.358 162.326 611.795 164.09C610.733 167.759 609.221 172.805 607.496 178.353C605.771 183.901 604.122 188.908 602.885 192.513C602.26 194.302 601.747 195.756 601.36 196.76C601.201 197.291 600.982 197.8 600.71 198.279C600.799 197.731 600.937 197.192 601.122 196.67C601.472 195.525 601.922 194.096 602.447 192.358C603.622 188.586 605.159 183.63 606.871 178.198C608.583 172.766 610.171 167.772 611.358 164.039L612.77 159.765C612.922 159.195 613.131 158.642 613.395 158.117Z" fill="#263238"/>
</svg>
