<svg width="1294" height="772" viewBox="0 0 1294 772" fill="none" xmlns="http://www.w3.org/2000/svg">
<rect width="1294" height="772" fill="#F5F5F5"/>
<g clip-path="url(#clip0_0_1)">
<rect width="1920" height="5895" transform="translate(-313 -4439)" fill="white"/>
<rect width="1294" height="772" rx="5" fill="#FCFAF3"/>
<path d="M429.524 320.004H437.804V324H424.484V298.872H429.524V320.004ZM449.863 324.324C447.943 324.324 446.215 323.904 444.679 323.064C443.143 322.2 441.931 320.988 441.043 319.428C440.179 317.868 439.747 316.068 439.747 314.028C439.747 311.988 440.191 310.188 441.079 308.628C441.991 307.068 443.227 305.868 444.787 305.028C446.347 304.164 448.087 303.732 450.007 303.732C451.927 303.732 453.667 304.164 455.227 305.028C456.787 305.868 458.011 307.068 458.899 308.628C459.811 310.188 460.267 311.988 460.267 314.028C460.267 316.068 459.799 317.868 458.863 319.428C457.951 320.988 456.703 322.2 455.119 323.064C453.559 323.904 451.807 324.324 449.863 324.324ZM449.863 319.932C450.775 319.932 451.627 319.716 452.419 319.284C453.235 318.828 453.883 318.156 454.363 317.268C454.843 316.38 455.083 315.3 455.083 314.028C455.083 312.132 454.579 310.68 453.571 309.672C452.587 308.64 451.375 308.124 449.935 308.124C448.495 308.124 447.283 308.64 446.299 309.672C445.339 310.68 444.859 312.132 444.859 314.028C444.859 315.924 445.327 317.388 446.263 318.42C447.223 319.428 448.423 319.932 449.863 319.932ZM469.004 307.152C469.652 306.096 470.492 305.268 471.524 304.668C472.58 304.068 473.78 303.768 475.124 303.768V309.06H473.792C472.208 309.06 471.008 309.432 470.192 310.176C469.4 310.92 469.004 312.216 469.004 314.064V324H463.964V304.056H469.004V307.152ZM497.059 313.596C497.059 314.316 497.011 314.964 496.915 315.54H482.335C482.455 316.98 482.959 318.108 483.847 318.924C484.735 319.74 485.827 320.148 487.123 320.148C488.995 320.148 490.327 319.344 491.119 317.736H496.555C495.979 319.656 494.875 321.24 493.243 322.488C491.611 323.712 489.607 324.324 487.231 324.324C485.311 324.324 483.583 323.904 482.047 323.064C480.535 322.2 479.347 320.988 478.483 319.428C477.643 317.868 477.223 316.068 477.223 314.028C477.223 311.964 477.643 310.152 478.483 308.592C479.323 307.032 480.499 305.832 482.011 304.992C483.523 304.152 485.263 303.732 487.231 303.732C489.127 303.732 490.819 304.14 492.307 304.956C493.819 305.772 494.983 306.936 495.799 308.448C496.639 309.936 497.059 311.652 497.059 313.596ZM491.839 312.156C491.815 310.86 491.347 309.828 490.435 309.06C489.523 308.268 488.407 307.872 487.087 307.872C485.839 307.872 484.783 308.256 483.919 309.024C483.079 309.768 482.563 310.812 482.371 312.156H491.839ZM525.506 303.768C527.954 303.768 529.922 304.524 531.41 306.036C532.922 307.524 533.678 309.612 533.678 312.3V324H528.638V312.984C528.638 311.424 528.242 310.236 527.45 309.42C526.658 308.58 525.578 308.16 524.21 308.16C522.842 308.16 521.75 308.58 520.934 309.42C520.142 310.236 519.746 311.424 519.746 312.984V324H514.706V312.984C514.706 311.424 514.31 310.236 513.518 309.42C512.726 308.58 511.646 308.16 510.278 308.16C508.886 308.16 507.782 308.58 506.966 309.42C506.174 310.236 505.778 311.424 505.778 312.984V324H500.738V304.056H505.778V306.468C506.426 305.628 507.254 304.968 508.262 304.488C509.294 304.008 510.422 303.768 511.646 303.768C513.206 303.768 514.598 304.104 515.822 304.776C517.046 305.424 517.994 306.36 518.666 307.584C519.314 306.432 520.25 305.508 521.474 304.812C522.722 304.116 524.066 303.768 525.506 303.768ZM552.079 298.872V324H547.039V298.872H552.079ZM562.098 306.936C562.746 306.024 563.634 305.268 564.762 304.668C565.914 304.044 567.222 303.732 568.686 303.732C570.39 303.732 571.926 304.152 573.294 304.992C574.686 305.832 575.778 307.032 576.57 308.592C577.386 310.128 577.794 311.916 577.794 313.956C577.794 315.996 577.386 317.808 576.57 319.392C575.778 320.952 574.686 322.164 573.294 323.028C571.926 323.892 570.39 324.324 568.686 324.324C567.222 324.324 565.926 324.024 564.798 323.424C563.694 322.824 562.794 322.068 562.098 321.156V333.504H557.058V304.056H562.098V306.936ZM572.646 313.956C572.646 312.756 572.394 311.724 571.89 310.86C571.41 309.972 570.762 309.3 569.946 308.844C569.154 308.388 568.29 308.16 567.354 308.16C566.442 308.16 565.578 308.4 564.762 308.88C563.97 309.336 563.322 310.008 562.818 310.896C562.338 311.784 562.098 312.828 562.098 314.028C562.098 315.228 562.338 316.272 562.818 317.16C563.322 318.048 563.97 318.732 564.762 319.212C565.578 319.668 566.442 319.896 567.354 319.896C568.29 319.896 569.154 319.656 569.946 319.176C570.762 318.696 571.41 318.012 571.89 317.124C572.394 316.236 572.646 315.18 572.646 313.956ZM589.089 324.324C587.457 324.324 585.993 324.036 584.697 323.46C583.401 322.86 582.369 322.056 581.601 321.048C580.857 320.04 580.449 318.924 580.377 317.7H585.453C585.549 318.468 585.921 319.104 586.569 319.608C587.241 320.112 588.069 320.364 589.053 320.364C590.013 320.364 590.757 320.172 591.285 319.788C591.837 319.404 592.113 318.912 592.113 318.312C592.113 317.664 591.777 317.184 591.105 316.872C590.457 316.536 589.413 316.176 587.973 315.792C586.485 315.432 585.261 315.06 584.301 314.676C583.365 314.292 582.549 313.704 581.853 312.912C581.181 312.12 580.845 311.052 580.845 309.708C580.845 308.604 581.157 307.596 581.781 306.684C582.429 305.772 583.341 305.052 584.517 304.524C585.717 303.996 587.121 303.732 588.729 303.732C591.105 303.732 593.001 304.332 594.417 305.532C595.833 306.708 596.613 308.304 596.757 310.32H591.933C591.861 309.528 591.525 308.904 590.925 308.448C590.349 307.968 589.569 307.728 588.585 307.728C587.673 307.728 586.965 307.896 586.461 308.232C585.981 308.568 585.741 309.036 585.741 309.636C585.741 310.308 586.077 310.824 586.749 311.184C587.421 311.52 588.465 311.868 589.881 312.228C591.321 312.588 592.509 312.96 593.445 313.344C594.381 313.728 595.185 314.328 595.857 315.144C596.553 315.936 596.913 316.992 596.937 318.312C596.937 319.464 596.613 320.496 595.965 321.408C595.341 322.32 594.429 323.04 593.229 323.568C592.053 324.072 590.673 324.324 589.089 324.324ZM619.902 304.056V324H614.826V321.48C614.178 322.344 613.326 323.028 612.27 323.532C611.238 324.012 610.11 324.252 608.886 324.252C607.326 324.252 605.946 323.928 604.746 323.28C603.546 322.608 602.598 321.636 601.902 320.364C601.23 319.068 600.894 317.532 600.894 315.756V304.056H605.934V315.036C605.934 316.62 606.33 317.844 607.122 318.708C607.914 319.548 608.994 319.968 610.362 319.968C611.754 319.968 612.846 319.548 613.638 318.708C614.43 317.844 614.826 316.62 614.826 315.036V304.056H619.902ZM649.643 303.768C652.091 303.768 654.059 304.524 655.547 306.036C657.059 307.524 657.815 309.612 657.815 312.3V324H652.775V312.984C652.775 311.424 652.379 310.236 651.587 309.42C650.795 308.58 649.715 308.16 648.347 308.16C646.979 308.16 645.887 308.58 645.071 309.42C644.279 310.236 643.883 311.424 643.883 312.984V324H638.843V312.984C638.843 311.424 638.447 310.236 637.655 309.42C636.863 308.58 635.783 308.16 634.415 308.16C633.023 308.16 631.919 308.58 631.103 309.42C630.311 310.236 629.915 311.424 629.915 312.984V324H624.875V304.056H629.915V306.468C630.563 305.628 631.391 304.968 632.399 304.488C633.431 304.008 634.559 303.768 635.783 303.768C637.343 303.768 638.735 304.104 639.959 304.776C641.183 305.424 642.131 306.36 642.803 307.584C643.451 306.432 644.387 305.508 645.611 304.812C646.859 304.116 648.203 303.768 649.643 303.768ZM679.959 298.872C682.599 298.872 684.915 299.388 686.907 300.42C688.923 301.452 690.471 302.928 691.551 304.848C692.655 306.744 693.207 308.952 693.207 311.472C693.207 313.992 692.655 316.2 691.551 318.096C690.471 319.968 688.923 321.42 686.907 322.452C684.915 323.484 682.599 324 679.959 324H671.175V298.872H679.959ZM679.779 319.716C682.419 319.716 684.459 318.996 685.899 317.556C687.339 316.116 688.059 314.088 688.059 311.472C688.059 308.856 687.339 306.816 685.899 305.352C684.459 303.864 682.419 303.12 679.779 303.12H676.215V319.716H679.779ZM705.836 324.324C703.916 324.324 702.188 323.904 700.652 323.064C699.116 322.2 697.904 320.988 697.016 319.428C696.152 317.868 695.72 316.068 695.72 314.028C695.72 311.988 696.164 310.188 697.052 308.628C697.964 307.068 699.2 305.868 700.76 305.028C702.32 304.164 704.06 303.732 705.98 303.732C707.9 303.732 709.64 304.164 711.2 305.028C712.76 305.868 713.984 307.068 714.872 308.628C715.784 310.188 716.24 311.988 716.24 314.028C716.24 316.068 715.772 317.868 714.836 319.428C713.924 320.988 712.676 322.2 711.092 323.064C709.532 323.904 707.78 324.324 705.836 324.324ZM705.836 319.932C706.748 319.932 707.6 319.716 708.392 319.284C709.208 318.828 709.856 318.156 710.336 317.268C710.816 316.38 711.056 315.3 711.056 314.028C711.056 312.132 710.552 310.68 709.544 309.672C708.56 308.64 707.348 308.124 705.908 308.124C704.468 308.124 703.256 308.64 702.272 309.672C701.312 310.68 700.832 312.132 700.832 314.028C700.832 315.924 701.3 317.388 702.236 318.42C703.196 319.428 704.396 319.932 705.836 319.932ZM724.977 297.36V324H719.937V297.36H724.977ZM738.813 324.324C736.893 324.324 735.165 323.904 733.629 323.064C732.093 322.2 730.881 320.988 729.993 319.428C729.129 317.868 728.697 316.068 728.697 314.028C728.697 311.988 729.141 310.188 730.029 308.628C730.941 307.068 732.177 305.868 733.737 305.028C735.297 304.164 737.037 303.732 738.957 303.732C740.877 303.732 742.617 304.164 744.177 305.028C745.737 305.868 746.961 307.068 747.849 308.628C748.761 310.188 749.217 311.988 749.217 314.028C749.217 316.068 748.749 317.868 747.813 319.428C746.901 320.988 745.653 322.2 744.069 323.064C742.509 323.904 740.757 324.324 738.813 324.324ZM738.813 319.932C739.725 319.932 740.577 319.716 741.369 319.284C742.185 318.828 742.833 318.156 743.313 317.268C743.793 316.38 744.033 315.3 744.033 314.028C744.033 312.132 743.529 310.68 742.521 309.672C741.537 308.64 740.325 308.124 738.885 308.124C737.445 308.124 736.233 308.64 735.249 309.672C734.289 310.68 733.809 312.132 733.809 314.028C733.809 315.924 734.277 317.388 735.213 318.42C736.173 319.428 737.373 319.932 738.813 319.932ZM757.954 307.152C758.602 306.096 759.442 305.268 760.474 304.668C761.53 304.068 762.73 303.768 764.074 303.768V309.06H762.742C761.158 309.06 759.958 309.432 759.142 310.176C758.35 310.92 757.954 312.216 757.954 314.064V324H752.914V304.056H757.954V307.152ZM784.723 324.252C782.971 324.252 781.387 323.952 779.971 323.352C778.579 322.752 777.475 321.888 776.659 320.76C775.843 319.632 775.423 318.3 775.399 316.764H780.799C780.871 317.796 781.231 318.612 781.879 319.212C782.551 319.812 783.463 320.112 784.615 320.112C785.791 320.112 786.715 319.836 787.387 319.284C788.059 318.708 788.395 317.964 788.395 317.052C788.395 316.308 788.167 315.696 787.711 315.216C787.255 314.736 786.679 314.364 785.983 314.1C785.311 313.812 784.375 313.5 783.175 313.164C781.543 312.684 780.211 312.216 779.179 311.76C778.171 311.28 777.295 310.572 776.551 309.636C775.831 308.676 775.471 307.404 775.471 305.82C775.471 304.332 775.843 303.036 776.587 301.932C777.331 300.828 778.375 299.988 779.719 299.412C781.063 298.812 782.599 298.512 784.327 298.512C786.919 298.512 789.019 299.148 790.627 300.42C792.259 301.668 793.159 303.42 793.327 305.676H787.783C787.735 304.812 787.363 304.104 786.667 303.552C785.995 302.976 785.095 302.688 783.967 302.688C782.983 302.688 782.191 302.94 781.591 303.444C781.015 303.948 780.727 304.68 780.727 305.64C780.727 306.312 780.943 306.876 781.375 307.332C781.831 307.764 782.383 308.124 783.031 308.412C783.703 308.676 784.639 308.988 785.839 309.348C787.471 309.828 788.803 310.308 789.835 310.788C790.867 311.268 791.755 311.988 792.499 312.948C793.243 313.908 793.615 315.168 793.615 316.728C793.615 318.072 793.267 319.32 792.57 320.472C791.875 321.624 790.855 322.548 789.511 323.244C788.167 323.916 786.571 324.252 784.723 324.252ZM800.54 301.68C799.652 301.68 798.908 301.404 798.308 300.852C797.732 300.276 797.444 299.568 797.444 298.728C797.444 297.888 797.732 297.192 798.308 296.64C798.908 296.064 799.652 295.776 800.54 295.776C801.428 295.776 802.16 296.064 802.736 296.64C803.336 297.192 803.636 297.888 803.636 298.728C803.636 299.568 803.336 300.276 802.736 300.852C802.16 301.404 801.428 301.68 800.54 301.68ZM803.024 304.056V324H797.984V304.056H803.024ZM813.872 308.196V317.844C813.872 318.516 814.028 319.008 814.34 319.32C814.676 319.608 815.228 319.752 815.996 319.752H818.336V324H815.168C810.92 324 808.796 321.936 808.796 317.808V308.196H806.42V304.056H808.796V299.124H813.872V304.056H818.336V308.196H813.872ZM845.947 319.212H835.939L834.283 324H828.991L838.027 298.836H843.895L852.931 324H847.603L845.947 319.212ZM844.579 315.18L840.943 304.668L837.307 315.18H844.579ZM881.076 303.768C883.524 303.768 885.492 304.524 886.98 306.036C888.492 307.524 889.248 309.612 889.248 312.3V324H884.208V312.984C884.208 311.424 883.812 310.236 883.02 309.42C882.228 308.58 881.148 308.16 879.78 308.16C878.412 308.16 877.32 308.58 876.504 309.42C875.712 310.236 875.316 311.424 875.316 312.984V324H870.276V312.984C870.276 311.424 869.88 310.236 869.088 309.42C868.296 308.58 867.216 308.16 865.848 308.16C864.456 308.16 863.352 308.58 862.536 309.42C861.744 310.236 861.348 311.424 861.348 312.984V324H856.308V304.056H861.348V306.468C861.996 305.628 862.824 304.968 863.832 304.488C864.864 304.008 865.992 303.768 867.216 303.768C868.776 303.768 870.168 304.104 871.392 304.776C872.616 305.424 873.564 306.36 874.236 307.584C874.884 306.432 875.82 305.508 877.044 304.812C878.292 304.116 879.636 303.768 881.076 303.768ZM912.571 313.596C912.571 314.316 912.523 314.964 912.427 315.54H897.847C897.967 316.98 898.471 318.108 899.359 318.924C900.247 319.74 901.339 320.148 902.635 320.148C904.507 320.148 905.839 319.344 906.631 317.736H912.067C911.491 319.656 910.387 321.24 908.755 322.488C907.123 323.712 905.119 324.324 902.743 324.324C900.823 324.324 899.095 323.904 897.559 323.064C896.047 322.2 894.859 320.988 893.995 319.428C893.155 317.868 892.735 316.068 892.735 314.028C892.735 311.964 893.155 310.152 893.995 308.592C894.835 307.032 896.011 305.832 897.523 304.992C899.035 304.152 900.775 303.732 902.743 303.732C904.639 303.732 906.331 304.14 907.819 304.956C909.331 305.772 910.495 306.936 911.311 308.448C912.151 309.936 912.571 311.652 912.571 313.596ZM907.351 312.156C907.327 310.86 906.859 309.828 905.947 309.06C905.035 308.268 903.919 307.872 902.599 307.872C901.351 307.872 900.295 308.256 899.431 309.024C898.591 309.768 898.075 310.812 897.883 312.156H907.351ZM922.118 308.196V317.844C922.118 318.516 922.274 319.008 922.586 319.32C922.922 319.608 923.474 319.752 924.242 319.752H926.582V324H923.414C919.166 324 917.042 321.936 917.042 317.808V308.196H914.666V304.056H917.042V299.124H922.118V304.056H926.582V308.196H922.118ZM935.715 318.708L931.503 328.824H928.263L930.603 318.708H935.715ZM423.26 375.4C423.26 372.928 423.812 370.72 424.916 368.776C426.044 366.808 427.568 365.284 429.488 364.204C431.432 363.1 433.604 362.548 436.004 362.548C438.812 362.548 441.272 363.268 443.384 364.708C445.496 366.148 446.972 368.14 447.812 370.684H442.016C441.44 369.484 440.624 368.584 439.568 367.984C438.536 367.384 437.336 367.084 435.968 367.084C434.504 367.084 433.196 367.432 432.044 368.128C430.916 368.8 430.028 369.76 429.38 371.008C428.756 372.256 428.444 373.72 428.444 375.4C428.444 377.056 428.756 378.52 429.38 379.792C430.028 381.04 430.916 382.012 432.044 382.708C433.196 383.38 434.504 383.716 435.968 383.716C437.336 383.716 438.536 383.416 439.568 382.816C440.624 382.192 441.44 381.28 442.016 380.08H447.812C446.972 382.648 445.496 384.652 443.384 386.092C441.296 387.508 438.836 388.216 436.004 388.216C433.604 388.216 431.432 387.676 429.488 386.596C427.568 385.492 426.044 383.968 424.916 382.024C423.812 380.08 423.26 377.872 423.26 375.4ZM460.973 388.324C459.053 388.324 457.325 387.904 455.789 387.064C454.253 386.2 453.041 384.988 452.153 383.428C451.289 381.868 450.857 380.068 450.857 378.028C450.857 375.988 451.301 374.188 452.189 372.628C453.101 371.068 454.337 369.868 455.897 369.028C457.457 368.164 459.197 367.732 461.117 367.732C463.037 367.732 464.777 368.164 466.337 369.028C467.897 369.868 469.121 371.068 470.009 372.628C470.921 374.188 471.377 375.988 471.377 378.028C471.377 380.068 470.909 381.868 469.973 383.428C469.061 384.988 467.813 386.2 466.229 387.064C464.669 387.904 462.917 388.324 460.973 388.324ZM460.973 383.932C461.885 383.932 462.737 383.716 463.529 383.284C464.345 382.828 464.993 382.156 465.473 381.268C465.953 380.38 466.193 379.3 466.193 378.028C466.193 376.132 465.689 374.68 464.681 373.672C463.697 372.64 462.485 372.124 461.045 372.124C459.605 372.124 458.393 372.64 457.409 373.672C456.449 374.68 455.969 376.132 455.969 378.028C455.969 379.924 456.437 381.388 457.373 382.42C458.333 383.428 459.533 383.932 460.973 383.932ZM486.126 367.768C488.502 367.768 490.422 368.524 491.886 370.036C493.35 371.524 494.082 373.612 494.082 376.3V388H489.042V376.984C489.042 375.4 488.646 374.188 487.854 373.348C487.062 372.484 485.982 372.052 484.614 372.052C483.222 372.052 482.118 372.484 481.302 373.348C480.51 374.188 480.114 375.4 480.114 376.984V388H475.074V368.056H480.114V370.54C480.786 369.676 481.638 369.004 482.67 368.524C483.726 368.02 484.878 367.768 486.126 367.768ZM506.507 388.324C504.875 388.324 503.411 388.036 502.115 387.46C500.819 386.86 499.787 386.056 499.019 385.048C498.275 384.04 497.867 382.924 497.795 381.7H502.871C502.967 382.468 503.339 383.104 503.987 383.608C504.659 384.112 505.487 384.364 506.471 384.364C507.431 384.364 508.175 384.172 508.703 383.788C509.255 383.404 509.531 382.912 509.531 382.312C509.531 381.664 509.195 381.184 508.523 380.872C507.875 380.536 506.831 380.176 505.391 379.792C503.903 379.432 502.679 379.06 501.719 378.676C500.783 378.292 499.967 377.704 499.271 376.912C498.599 376.12 498.263 375.052 498.263 373.708C498.263 372.604 498.575 371.596 499.199 370.684C499.847 369.772 500.759 369.052 501.935 368.524C503.135 367.996 504.539 367.732 506.147 367.732C508.523 367.732 510.419 368.332 511.835 369.532C513.251 370.708 514.031 372.304 514.175 374.32H509.351C509.279 373.528 508.943 372.904 508.343 372.448C507.767 371.968 506.987 371.728 506.003 371.728C505.091 371.728 504.383 371.896 503.879 372.232C503.399 372.568 503.159 373.036 503.159 373.636C503.159 374.308 503.495 374.824 504.167 375.184C504.839 375.52 505.883 375.868 507.299 376.228C508.739 376.588 509.927 376.96 510.863 377.344C511.799 377.728 512.603 378.328 513.275 379.144C513.971 379.936 514.331 380.992 514.355 382.312C514.355 383.464 514.031 384.496 513.383 385.408C512.759 386.32 511.847 387.04 510.647 387.568C509.471 388.072 508.091 388.324 506.507 388.324ZM537.032 377.596C537.032 378.316 536.984 378.964 536.888 379.54H522.308C522.428 380.98 522.932 382.108 523.82 382.924C524.708 383.74 525.8 384.148 527.096 384.148C528.968 384.148 530.3 383.344 531.092 381.736H536.528C535.952 383.656 534.848 385.24 533.216 386.488C531.584 387.712 529.58 388.324 527.204 388.324C525.284 388.324 523.556 387.904 522.02 387.064C520.508 386.2 519.32 384.988 518.456 383.428C517.616 381.868 517.196 380.068 517.196 378.028C517.196 375.964 517.616 374.152 518.456 372.592C519.296 371.032 520.472 369.832 521.984 368.992C523.496 368.152 525.236 367.732 527.204 367.732C529.1 367.732 530.792 368.14 532.28 368.956C533.792 369.772 534.956 370.936 535.772 372.448C536.612 373.936 537.032 375.652 537.032 377.596ZM531.812 376.156C531.788 374.86 531.32 373.828 530.408 373.06C529.496 372.268 528.38 371.872 527.06 371.872C525.812 371.872 524.756 372.256 523.892 373.024C523.052 373.768 522.536 374.812 522.344 376.156H531.812ZM539.415 378.028C539.415 375.964 539.835 374.164 540.675 372.628C541.515 371.068 542.679 369.868 544.167 369.028C545.655 368.164 547.359 367.732 549.279 367.732C551.751 367.732 553.791 368.356 555.399 369.604C557.031 370.828 558.123 372.556 558.675 374.788H553.239C552.951 373.924 552.459 373.252 551.763 372.772C551.091 372.268 550.251 372.016 549.243 372.016C547.803 372.016 546.663 372.544 545.823 373.6C544.983 374.632 544.563 376.108 544.563 378.028C544.563 379.924 544.983 381.4 545.823 382.456C546.663 383.488 547.803 384.004 549.243 384.004C551.283 384.004 552.615 383.092 553.239 381.268H558.675C558.123 383.428 557.031 385.144 555.399 386.416C553.767 387.688 551.727 388.324 549.279 388.324C547.359 388.324 545.655 387.904 544.167 387.064C542.679 386.2 541.515 385 540.675 383.464C539.835 381.904 539.415 380.092 539.415 378.028ZM568.235 372.196V381.844C568.235 382.516 568.391 383.008 568.703 383.32C569.039 383.608 569.591 383.752 570.359 383.752H572.699V388H569.531C565.283 388 563.159 385.936 563.159 381.808V372.196H560.783V368.056H563.159V363.124H568.235V368.056H572.699V372.196H568.235ZM594.864 377.596C594.864 378.316 594.816 378.964 594.72 379.54H580.14C580.26 380.98 580.764 382.108 581.652 382.924C582.54 383.74 583.632 384.148 584.928 384.148C586.8 384.148 588.132 383.344 588.924 381.736H594.36C593.784 383.656 592.68 385.24 591.048 386.488C589.416 387.712 587.412 388.324 585.036 388.324C583.116 388.324 581.388 387.904 579.852 387.064C578.34 386.2 577.152 384.988 576.288 383.428C575.448 381.868 575.028 380.068 575.028 378.028C575.028 375.964 575.448 374.152 576.288 372.592C577.128 371.032 578.304 369.832 579.816 368.992C581.328 368.152 583.068 367.732 585.036 367.732C586.932 367.732 588.624 368.14 590.112 368.956C591.624 369.772 592.788 370.936 593.604 372.448C594.444 373.936 594.864 375.652 594.864 377.596ZM589.644 376.156C589.62 374.86 589.152 373.828 588.24 373.06C587.328 372.268 586.212 371.872 584.892 371.872C583.644 371.872 582.588 372.256 581.724 373.024C580.884 373.768 580.368 374.812 580.176 376.156H589.644ZM604.411 372.196V381.844C604.411 382.516 604.567 383.008 604.879 383.32C605.215 383.608 605.767 383.752 606.535 383.752H608.875V388H605.707C601.459 388 599.335 385.936 599.335 381.808V372.196H596.959V368.056H599.335V363.124H604.411V368.056H608.875V372.196H604.411ZM631.328 368.056V388H626.252V385.48C625.604 386.344 624.752 387.028 623.696 387.532C622.664 388.012 621.536 388.252 620.312 388.252C618.752 388.252 617.372 387.928 616.172 387.28C614.972 386.608 614.024 385.636 613.328 384.364C612.656 383.068 612.32 381.532 612.32 379.756V368.056H617.36V379.036C617.36 380.62 617.756 381.844 618.548 382.708C619.34 383.548 620.42 383.968 621.788 383.968C623.18 383.968 624.272 383.548 625.064 382.708C625.856 381.844 626.252 380.62 626.252 379.036V368.056H631.328ZM641.34 371.152C641.988 370.096 642.828 369.268 643.86 368.668C644.916 368.068 646.116 367.768 647.46 367.768V373.06H646.128C644.544 373.06 643.344 373.432 642.528 374.176C641.736 374.92 641.34 376.216 641.34 378.064V388H636.3V368.056H641.34V371.152ZM674.841 383.212H664.833L663.177 388H657.885L666.921 362.836H672.789L681.825 388H676.497L674.841 383.212ZM673.473 379.18L669.837 368.668L666.201 379.18H673.473ZM683.907 377.956C683.907 375.94 684.303 374.152 685.095 372.592C685.911 371.032 687.015 369.832 688.407 368.992C689.799 368.152 691.347 367.732 693.051 367.732C694.347 367.732 695.583 368.02 696.759 368.596C697.935 369.148 698.871 369.892 699.567 370.828V361.36H704.679V388H699.567V385.048C698.943 386.032 698.067 386.824 696.939 387.424C695.811 388.024 694.503 388.324 693.015 388.324C691.335 388.324 689.799 387.892 688.407 387.028C687.015 386.164 685.911 384.952 685.095 383.392C684.303 381.808 683.907 379.996 683.907 377.956ZM699.603 378.028C699.603 376.804 699.363 375.76 698.883 374.896C698.403 374.008 697.755 373.336 696.939 372.88C696.123 372.4 695.247 372.16 694.311 372.16C693.375 372.16 692.511 372.388 691.719 372.844C690.927 373.3 690.279 373.972 689.775 374.86C689.295 375.724 689.055 376.756 689.055 377.956C689.055 379.156 689.295 380.212 689.775 381.124C690.279 382.012 690.927 382.696 691.719 383.176C692.535 383.656 693.399 383.896 694.311 383.896C695.247 383.896 696.123 383.668 696.939 383.212C697.755 382.732 698.403 382.06 698.883 381.196C699.363 380.308 699.603 379.252 699.603 378.028ZM712.157 365.68C711.269 365.68 710.525 365.404 709.925 364.852C709.349 364.276 709.061 363.568 709.061 362.728C709.061 361.888 709.349 361.192 709.925 360.64C710.525 360.064 711.269 359.776 712.157 359.776C713.045 359.776 713.777 360.064 714.353 360.64C714.953 361.192 715.253 361.888 715.253 362.728C715.253 363.568 714.953 364.276 714.353 364.852C713.777 365.404 713.045 365.68 712.157 365.68ZM714.641 368.056V388H709.601V368.056H714.641ZM724.661 370.936C725.309 370.024 726.197 369.268 727.325 368.668C728.477 368.044 729.785 367.732 731.249 367.732C732.953 367.732 734.489 368.152 735.857 368.992C737.249 369.832 738.341 371.032 739.133 372.592C739.949 374.128 740.357 375.916 740.357 377.956C740.357 379.996 739.949 381.808 739.133 383.392C738.341 384.952 737.249 386.164 735.857 387.028C734.489 387.892 732.953 388.324 731.249 388.324C729.785 388.324 728.489 388.024 727.361 387.424C726.257 386.824 725.357 386.068 724.661 385.156V397.504H719.621V368.056H724.661V370.936ZM735.209 377.956C735.209 376.756 734.957 375.724 734.453 374.86C733.973 373.972 733.325 373.3 732.509 372.844C731.717 372.388 730.853 372.16 729.917 372.16C729.005 372.16 728.141 372.4 727.325 372.88C726.533 373.336 725.885 374.008 725.381 374.896C724.901 375.784 724.661 376.828 724.661 378.028C724.661 379.228 724.901 380.272 725.381 381.16C725.885 382.048 726.533 382.732 727.325 383.212C728.141 383.668 729.005 383.896 729.917 383.896C730.853 383.896 731.717 383.656 732.509 383.176C733.325 382.696 733.973 382.012 734.453 381.124C734.957 380.236 735.209 379.18 735.209 377.956ZM746.575 365.68C745.687 365.68 744.943 365.404 744.343 364.852C743.767 364.276 743.479 363.568 743.479 362.728C743.479 361.888 743.767 361.192 744.343 360.64C744.943 360.064 745.687 359.776 746.575 359.776C747.463 359.776 748.195 360.064 748.771 360.64C749.371 361.192 749.671 361.888 749.671 362.728C749.671 363.568 749.371 364.276 748.771 364.852C748.195 365.404 747.463 365.68 746.575 365.68ZM749.059 368.056V388H744.019V368.056H749.059ZM761.671 388.324C760.039 388.324 758.575 388.036 757.279 387.46C755.983 386.86 754.951 386.056 754.183 385.048C753.439 384.04 753.031 382.924 752.959 381.7H758.035C758.131 382.468 758.503 383.104 759.151 383.608C759.823 384.112 760.651 384.364 761.635 384.364C762.595 384.364 763.339 384.172 763.867 383.788C764.419 383.404 764.695 382.912 764.695 382.312C764.695 381.664 764.359 381.184 763.687 380.872C763.039 380.536 761.995 380.176 760.555 379.792C759.067 379.432 757.843 379.06 756.883 378.676C755.947 378.292 755.131 377.704 754.435 376.912C753.763 376.12 753.427 375.052 753.427 373.708C753.427 372.604 753.739 371.596 754.363 370.684C755.011 369.772 755.923 369.052 757.099 368.524C758.299 367.996 759.703 367.732 761.311 367.732C763.687 367.732 765.583 368.332 766.999 369.532C768.415 370.708 769.195 372.304 769.339 374.32H764.515C764.443 373.528 764.107 372.904 763.507 372.448C762.931 371.968 762.151 371.728 761.167 371.728C760.255 371.728 759.547 371.896 759.043 372.232C758.563 372.568 758.323 373.036 758.323 373.636C758.323 374.308 758.659 374.824 759.331 375.184C760.003 375.52 761.047 375.868 762.463 376.228C763.903 376.588 765.091 376.96 766.027 377.344C766.963 377.728 767.767 378.328 768.439 379.144C769.135 379.936 769.495 380.992 769.519 382.312C769.519 383.464 769.195 384.496 768.547 385.408C767.923 386.32 767.011 387.04 765.811 387.568C764.635 388.072 763.255 388.324 761.671 388.324ZM772.36 378.028C772.36 375.964 772.78 374.164 773.62 372.628C774.46 371.068 775.624 369.868 777.112 369.028C778.6 368.164 780.304 367.732 782.224 367.732C784.696 367.732 786.736 368.356 788.344 369.604C789.976 370.828 791.068 372.556 791.62 374.788H786.184C785.896 373.924 785.404 373.252 784.708 372.772C784.036 372.268 783.196 372.016 782.188 372.016C780.748 372.016 779.608 372.544 778.768 373.6C777.928 374.632 777.508 376.108 777.508 378.028C777.508 379.924 777.928 381.4 778.768 382.456C779.608 383.488 780.748 384.004 782.188 384.004C784.228 384.004 785.56 383.092 786.184 381.268H791.62C791.068 383.428 789.976 385.144 788.344 386.416C786.712 387.688 784.672 388.324 782.224 388.324C780.304 388.324 778.6 387.904 777.112 387.064C775.624 386.2 774.46 385 773.62 383.464C772.78 381.904 772.36 380.092 772.36 378.028ZM797.868 365.68C796.98 365.68 796.236 365.404 795.636 364.852C795.06 364.276 794.772 363.568 794.772 362.728C794.772 361.888 795.06 361.192 795.636 360.64C796.236 360.064 796.98 359.776 797.868 359.776C798.756 359.776 799.488 360.064 800.064 360.64C800.664 361.192 800.964 361.888 800.964 362.728C800.964 363.568 800.664 364.276 800.064 364.852C799.488 365.404 798.756 365.68 797.868 365.68ZM800.352 368.056V388H795.312V368.056H800.352ZM816.384 367.768C818.76 367.768 820.68 368.524 822.144 370.036C823.608 371.524 824.34 373.612 824.34 376.3V388H819.3V376.984C819.3 375.4 818.904 374.188 818.112 373.348C817.32 372.484 816.24 372.052 814.872 372.052C813.48 372.052 812.376 372.484 811.56 373.348C810.768 374.188 810.372 375.4 810.372 376.984V388H805.332V368.056H810.372V370.54C811.044 369.676 811.896 369.004 812.928 368.524C813.984 368.02 815.136 367.768 816.384 367.768ZM836.944 367.732C838.432 367.732 839.74 368.032 840.868 368.632C841.996 369.208 842.884 369.964 843.532 370.9V368.056H848.608V388.144C848.608 389.992 848.236 391.636 847.492 393.076C846.748 394.54 845.632 395.692 844.144 396.532C842.656 397.396 840.856 397.828 838.744 397.828C835.912 397.828 833.584 397.168 831.76 395.848C829.96 394.528 828.94 392.728 828.7 390.448H833.704C833.968 391.36 834.532 392.08 835.396 392.608C836.284 393.16 837.352 393.436 838.6 393.436C840.064 393.436 841.252 392.992 842.164 392.104C843.076 391.24 843.532 389.92 843.532 388.144V385.048C842.884 385.984 841.984 386.764 840.832 387.388C839.704 388.012 838.408 388.324 836.944 388.324C835.264 388.324 833.728 387.892 832.336 387.028C830.944 386.164 829.84 384.952 829.024 383.392C828.232 381.808 827.836 379.996 827.836 377.956C827.836 375.94 828.232 374.152 829.024 372.592C829.84 371.032 830.932 369.832 832.3 368.992C833.692 368.152 835.24 367.732 836.944 367.732ZM843.532 378.028C843.532 376.804 843.292 375.76 842.812 374.896C842.332 374.008 841.684 373.336 840.868 372.88C840.052 372.4 839.176 372.16 838.24 372.16C837.304 372.16 836.44 372.388 835.648 372.844C834.856 373.3 834.208 373.972 833.704 374.86C833.224 375.724 832.984 376.756 832.984 377.956C832.984 379.156 833.224 380.212 833.704 381.124C834.208 382.012 834.856 382.696 835.648 383.176C836.464 383.656 837.328 383.896 838.24 383.896C839.176 383.896 840.052 383.668 840.868 383.212C841.684 382.732 842.332 382.06 842.812 381.196C843.292 380.308 843.532 379.252 843.532 378.028ZM867.149 366.94V373.24H875.609V377.236H867.149V383.896H876.689V388H862.109V362.836H876.689V366.94H867.149ZM886.309 361.36V388H881.269V361.36H886.309ZM893.845 365.68C892.957 365.68 892.213 365.404 891.613 364.852C891.037 364.276 890.749 363.568 890.749 362.728C890.749 361.888 891.037 361.192 891.613 360.64C892.213 360.064 892.957 359.776 893.845 359.776C894.733 359.776 895.465 360.064 896.041 360.64C896.641 361.192 896.941 361.888 896.941 362.728C896.941 363.568 896.641 364.276 896.041 364.852C895.465 365.404 894.733 365.68 893.845 365.68ZM896.329 368.056V388H891.289V368.056H896.329ZM907.176 372.196V381.844C907.176 382.516 907.332 383.008 907.644 383.32C907.98 383.608 908.532 383.752 909.3 383.752H911.64V388H908.472C904.224 388 902.1 385.936 902.1 381.808V372.196H899.724V368.056H902.1V363.124H907.176V368.056H911.64V372.196H907.176ZM917.497 388.252C916.585 388.252 915.829 387.976 915.229 387.424C914.653 386.848 914.365 386.14 914.365 385.3C914.365 384.46 914.653 383.764 915.229 383.212C915.829 382.636 916.585 382.348 917.497 382.348C918.385 382.348 919.117 382.636 919.693 383.212C920.269 383.764 920.557 384.46 920.557 385.3C920.557 386.14 920.269 386.848 919.693 387.424C919.117 387.976 918.385 388.252 917.497 388.252Z" fill="black"/>
<rect x="583" y="442" width="184" height="64" rx="5" fill="#05668D"/>
<path d="M626.08 481.14C625.147 481.14 624.307 480.98 623.56 480.66C622.813 480.327 622.227 479.86 621.8 479.26C621.373 478.66 621.16 477.96 621.16 477.16H623.6C623.653 477.76 623.887 478.253 624.3 478.64C624.727 479.027 625.32 479.22 626.08 479.22C626.867 479.22 627.48 479.033 627.92 478.66C628.36 478.273 628.58 477.78 628.58 477.18C628.58 476.713 628.44 476.333 628.16 476.04C627.893 475.747 627.553 475.52 627.14 475.36C626.74 475.2 626.18 475.027 625.46 474.84C624.553 474.6 623.813 474.36 623.24 474.12C622.68 473.867 622.2 473.48 621.8 472.96C621.4 472.44 621.2 471.747 621.2 470.88C621.2 470.08 621.4 469.38 621.8 468.78C622.2 468.18 622.76 467.72 623.48 467.4C624.2 467.08 625.033 466.92 625.98 466.92C627.327 466.92 628.427 467.26 629.28 467.94C630.147 468.607 630.627 469.527 630.72 470.7H628.2C628.16 470.193 627.92 469.76 627.48 469.4C627.04 469.04 626.46 468.86 625.74 468.86C625.087 468.86 624.553 469.027 624.14 469.36C623.727 469.693 623.52 470.173 623.52 470.8C623.52 471.227 623.647 471.58 623.9 471.86C624.167 472.127 624.5 472.34 624.9 472.5C625.3 472.66 625.847 472.833 626.54 473.02C627.46 473.273 628.207 473.527 628.78 473.78C629.367 474.033 629.86 474.427 630.26 474.96C630.673 475.48 630.88 476.18 630.88 477.06C630.88 477.767 630.687 478.433 630.3 479.06C629.927 479.687 629.373 480.193 628.64 480.58C627.92 480.953 627.067 481.14 626.08 481.14ZM640.47 469.8C641.31 469.8 642.057 469.98 642.71 470.34C643.377 470.7 643.897 471.233 644.27 471.94C644.657 472.647 644.85 473.5 644.85 474.5V481H642.59V474.84C642.59 473.853 642.344 473.1 641.85 472.58C641.357 472.047 640.684 471.78 639.83 471.78C638.977 471.78 638.297 472.047 637.79 472.58C637.297 473.1 637.05 473.853 637.05 474.84V481H634.77V466.2H637.05V471.26C637.437 470.793 637.924 470.433 638.51 470.18C639.11 469.927 639.764 469.8 640.47 469.8ZM653.739 481.18C652.699 481.18 651.759 480.947 650.919 480.48C650.079 480 649.419 479.333 648.939 478.48C648.459 477.613 648.219 476.613 648.219 475.48C648.219 474.36 648.465 473.367 648.959 472.5C649.452 471.633 650.125 470.967 650.979 470.5C651.832 470.033 652.785 469.8 653.839 469.8C654.892 469.8 655.845 470.033 656.699 470.5C657.552 470.967 658.225 471.633 658.719 472.5C659.212 473.367 659.459 474.36 659.459 475.48C659.459 476.6 659.205 477.593 658.699 478.46C658.192 479.327 657.499 480 656.619 480.48C655.752 480.947 654.792 481.18 653.739 481.18ZM653.739 479.2C654.325 479.2 654.872 479.06 655.379 478.78C655.899 478.5 656.319 478.08 656.639 477.52C656.959 476.96 657.119 476.28 657.119 475.48C657.119 474.68 656.965 474.007 656.659 473.46C656.352 472.9 655.945 472.48 655.439 472.2C654.932 471.92 654.385 471.78 653.799 471.78C653.212 471.78 652.665 471.92 652.159 472.2C651.665 472.48 651.272 472.9 650.979 473.46C650.685 474.007 650.539 474.68 650.539 475.48C650.539 476.667 650.839 477.587 651.439 478.24C652.052 478.88 652.819 479.2 653.739 479.2ZM665.192 471.6C665.579 471.093 666.106 470.667 666.772 470.32C667.439 469.973 668.192 469.8 669.032 469.8C669.992 469.8 670.866 470.04 671.652 470.52C672.452 470.987 673.079 471.647 673.532 472.5C673.986 473.353 674.212 474.333 674.212 475.44C674.212 476.547 673.986 477.54 673.532 478.42C673.079 479.287 672.452 479.967 671.652 480.46C670.866 480.94 669.992 481.18 669.032 481.18C668.192 481.18 667.446 481.013 666.792 480.68C666.139 480.333 665.606 479.907 665.192 479.4V486.24H662.912V469.98H665.192V471.6ZM671.892 475.44C671.892 474.68 671.732 474.027 671.412 473.48C671.106 472.92 670.692 472.5 670.172 472.22C669.666 471.927 669.119 471.78 668.532 471.78C667.959 471.78 667.412 471.927 666.892 472.22C666.386 472.513 665.972 472.94 665.652 473.5C665.346 474.06 665.192 474.72 665.192 475.48C665.192 476.24 665.346 476.907 665.652 477.48C665.972 478.04 666.386 478.467 666.892 478.76C667.412 479.053 667.959 479.2 668.532 479.2C669.119 479.2 669.666 479.053 670.172 478.76C670.692 478.453 671.106 478.013 671.412 477.44C671.732 476.867 671.892 476.2 671.892 475.44ZM695.483 481H693.203L686.343 470.62V481H684.063V467.08H686.343L693.203 477.44V467.08H695.483V481ZM704.457 481.18C703.417 481.18 702.477 480.947 701.637 480.48C700.797 480 700.137 479.333 699.657 478.48C699.177 477.613 698.937 476.613 698.937 475.48C698.937 474.36 699.183 473.367 699.677 472.5C700.17 471.633 700.843 470.967 701.697 470.5C702.55 470.033 703.503 469.8 704.557 469.8C705.61 469.8 706.563 470.033 707.417 470.5C708.27 470.967 708.943 471.633 709.437 472.5C709.93 473.367 710.177 474.36 710.177 475.48C710.177 476.6 709.923 477.593 709.417 478.46C708.91 479.327 708.217 480 707.337 480.48C706.47 480.947 705.51 481.18 704.457 481.18ZM704.457 479.2C705.043 479.2 705.59 479.06 706.097 478.78C706.617 478.5 707.037 478.08 707.357 477.52C707.677 476.96 707.837 476.28 707.837 475.48C707.837 474.68 707.683 474.007 707.377 473.46C707.07 472.9 706.663 472.48 706.157 472.2C705.65 471.92 705.103 471.78 704.517 471.78C703.93 471.78 703.383 471.92 702.877 472.2C702.383 472.48 701.99 472.9 701.697 473.46C701.403 474.007 701.257 474.68 701.257 475.48C701.257 476.667 701.557 477.587 702.157 478.24C702.77 478.88 703.537 479.2 704.457 479.2ZM728.43 469.98L725.01 481H722.61L720.39 472.86L718.17 481H715.77L712.33 469.98H714.65L716.95 478.84L719.29 469.98H721.67L723.91 478.8L726.19 469.98H728.43Z" fill="white"/>
<path d="M1261.66 517.666C1260.3 517.666 1126.22 515.249 1122.61 515.249C1119 515.249 1107.55 515.249 1102.25 509.985C1096.96 504.721 1085.7 488.896 1085.3 488.201C1085.17 488.004 1085.08 487.782 1085.03 487.549C1084.99 487.316 1084.99 487.076 1085.04 486.844L1119.8 341.836C1119.9 341.411 1120.17 341.043 1120.54 340.814C1120.91 340.584 1121.36 340.511 1121.79 340.611C1122 340.658 1122.2 340.746 1122.38 340.872C1122.56 340.998 1122.71 341.159 1122.82 341.344C1122.93 341.53 1123.01 341.736 1123.04 341.951C1123.08 342.167 1123.06 342.386 1123.01 342.597L1088.48 486.877C1090.67 489.923 1100.5 503.43 1104.64 507.635C1108.77 511.839 1119.24 511.938 1122.65 511.938C1126.06 511.938 1244.84 514.057 1260.24 514.322L1286.72 338.393C1286.79 337.954 1287.02 337.557 1287.37 337.29C1287.73 337.023 1288.17 336.908 1288.61 336.969C1289.05 337.031 1289.45 337.264 1289.71 337.618C1289.98 337.972 1290.1 338.417 1290.03 338.856L1263.38 516.242C1263.33 516.652 1263.12 517.025 1262.8 517.288C1262.48 517.552 1262.07 517.686 1261.66 517.666Z" fill="#E84545"/>
<path d="M1150.46 316.509L1139.43 316.311C1138.99 316.302 1138.57 316.12 1138.26 315.805C1137.95 315.489 1137.78 315.064 1137.78 314.622C1137.82 314.194 1138.01 313.794 1138.32 313.496C1138.63 313.198 1139.04 313.022 1139.46 313L1150.52 313.199C1150.96 313.199 1151.38 313.373 1151.69 313.683C1152 313.994 1152.18 314.415 1152.18 314.854C1152.18 315.293 1152 315.714 1151.69 316.024C1151.38 316.335 1150.96 316.509 1150.52 316.509H1150.46Z" fill="#E84545"/>
<path d="M1093.88 491.279C1093.44 491.279 1093.02 491.105 1092.71 490.794C1092.4 490.484 1092.22 490.063 1092.22 489.624C1092.22 489.185 1092.4 488.764 1092.71 488.453C1093.02 488.143 1093.44 487.969 1093.88 487.969L1238.72 487.505L1269.28 318.661L1163.96 316.74C1163.53 316.732 1163.12 316.553 1162.81 316.244C1162.51 315.934 1162.34 315.518 1162.34 315.085C1162.39 314.656 1162.58 314.255 1162.89 313.953C1163.2 313.651 1163.6 313.466 1164.03 313.43L1271.26 315.383C1271.51 315.389 1271.74 315.448 1271.96 315.557C1272.18 315.666 1272.37 315.821 1272.52 316.012C1272.67 316.196 1272.78 316.408 1272.84 316.636C1272.9 316.864 1272.92 317.102 1272.89 317.336L1241.73 489.491C1241.67 489.874 1241.47 490.222 1241.17 490.471C1240.87 490.72 1240.5 490.854 1240.11 490.849L1093.88 491.345V491.279Z" fill="#E84545"/>
<path d="M1254.44 509.259L1114.24 505.683C1113.78 505.648 1113.36 505.448 1113.05 505.12L1101.06 491.878C1100.76 491.563 1100.58 491.141 1100.58 490.702C1100.58 490.264 1100.76 489.842 1101.06 489.527C1101.21 489.373 1101.39 489.25 1101.59 489.167C1101.79 489.083 1102 489.04 1102.22 489.04C1102.44 489.04 1102.65 489.083 1102.85 489.167C1103.05 489.25 1103.23 489.373 1103.38 489.527L1114.9 502.174L1252.95 505.716L1277.98 354.054L1267.69 339.587C1267.55 339.412 1267.46 339.213 1267.4 339C1267.35 338.788 1267.34 338.567 1267.37 338.35C1267.41 338.133 1267.49 337.926 1267.6 337.74C1267.72 337.554 1267.87 337.394 1268.05 337.269C1268.23 337.142 1268.43 337.051 1268.64 337.003C1268.86 336.954 1269.08 336.948 1269.29 336.985C1269.51 337.022 1269.71 337.101 1269.9 337.218C1270.08 337.335 1270.24 337.487 1270.37 337.666L1281.36 352.862C1281.61 353.23 1281.71 353.683 1281.63 354.12L1256.27 507.868C1256.2 508.29 1255.97 508.67 1255.63 508.929C1255.3 509.188 1254.87 509.306 1254.44 509.259Z" fill="#E84545"/>
<path d="M1126.79 498.43H1147.08C1147.08 498.43 1143.77 514.52 1142.01 529.716C1140.26 544.912 1139.47 564.411 1139.47 564.411L1127.65 542.395L1113.24 561.035L1126.79 498.43Z" fill="#E84545"/>
<path d="M77.1593 462.158C76.891 462.156 76.6272 462.088 76.3907 461.961C76.1543 461.834 75.9522 461.652 75.8019 461.43L71.8953 455.735C71.6451 455.371 71.5499 454.922 71.6306 454.487C71.7113 454.053 71.9613 453.668 72.3257 453.418C72.6901 453.168 73.139 453.072 73.5736 453.153C74.0082 453.234 74.393 453.484 74.6432 453.848L78.5498 459.576C78.7843 459.939 78.8704 460.379 78.7903 460.804C78.7102 461.229 78.4701 461.607 78.1194 461.86C77.8361 462.053 77.5019 462.156 77.1593 462.158Z" fill="#E84545"/>
<path d="M98.7189 488.634C98.3911 488.636 98.0701 488.54 97.7983 488.357C97.5264 488.173 97.3164 487.912 97.196 487.607C97.03 487.198 97.0306 486.741 97.1976 486.333C97.3647 485.924 97.685 485.597 98.0899 485.422L183.803 450.892C185.608 445.856 187.144 440.729 188.405 435.53C188.802 433.213 187.379 429.737 184.201 425.267C182.976 423.546 142.42 364.318 135.865 354.783L37.2066 404.774C37.0159 404.877 36.8066 404.941 36.5909 404.961C36.3752 404.982 36.1575 404.959 35.9508 404.895C35.744 404.83 35.5524 404.724 35.3871 404.584C35.2218 404.444 35.0862 404.272 34.9884 404.079C34.886 403.884 34.8236 403.67 34.8048 403.45C34.7861 403.231 34.8114 403.01 34.8792 402.8C34.9471 402.59 35.0561 402.396 35.1999 402.229C35.3437 402.062 35.5194 401.926 35.7168 401.828L135.666 351.174C136.025 350.997 136.435 350.953 136.823 351.05C137.211 351.147 137.552 351.379 137.785 351.704C138.282 352.399 185.624 421.559 186.882 423.347C189.299 426.658 192.411 431.723 191.683 436.06C190.954 440.397 186.882 452.183 186.717 452.613C186.638 452.842 186.512 453.052 186.346 453.229C186.181 453.406 185.98 453.546 185.757 453.64L99.348 488.435C99.1553 488.546 98.9406 488.614 98.7189 488.634Z" fill="#E84545"/>
<path d="M69.4857 476.781C69.2174 476.779 68.9536 476.711 68.7171 476.584C68.4807 476.458 68.2786 476.275 68.1283 476.053L30.2873 420.731C30.1535 420.535 30.0636 420.312 30.0236 420.078C29.9836 419.844 29.9945 419.604 30.0556 419.374C30.1211 419.144 30.2347 418.931 30.3888 418.748C30.5429 418.566 30.734 418.418 30.9495 418.315L129.839 371.965C130.188 371.793 130.587 371.751 130.964 371.848C131.341 371.946 131.67 372.175 131.892 372.495L185.095 446.753C185.346 447.111 185.449 447.553 185.381 447.986C185.313 448.418 185.08 448.807 184.73 449.071C184.552 449.198 184.351 449.288 184.138 449.337C183.925 449.386 183.704 449.392 183.489 449.355C183.273 449.318 183.067 449.239 182.883 449.122C182.698 449.005 182.538 448.853 182.413 448.674L130.005 375.441L33.9953 420.467L70.7438 474.199C70.9834 474.564 71.0691 475.009 70.9823 475.436C70.8955 475.864 70.6432 476.241 70.2803 476.483C70.0482 476.654 69.7731 476.757 69.4857 476.781Z" fill="#E84545"/>
<path d="M181.188 444.569H180.857C180.431 444.474 180.058 444.217 179.818 443.853C179.577 443.489 179.487 443.045 179.566 442.616L181.817 432.419L134.176 361.471L48.7609 403.285L45.2185 413.747C45.0685 414.16 44.7632 414.499 44.3675 414.69C43.9718 414.882 43.517 414.912 43.0997 414.773C42.6889 414.63 42.3509 414.331 42.1588 413.941C41.9668 413.55 41.9361 413.1 42.0734 412.687L45.8476 401.564C45.9883 401.148 46.2851 400.804 46.6752 400.603L134.143 357.863C134.504 357.682 134.919 357.639 135.309 357.743C135.699 357.847 136.038 358.089 136.262 358.425L185.194 431.26C185.325 431.439 185.417 431.644 185.462 431.861C185.508 432.078 185.507 432.302 185.459 432.518L183.075 443.41C182.959 443.803 182.702 444.138 182.354 444.352C182.005 444.566 181.59 444.643 181.188 444.569Z" fill="#E84545"/>
<path d="M176.321 427.687L168.972 417.358C168.972 417.358 178.374 413.252 186.75 408.584C195.126 403.916 205.323 397.328 205.323 397.328L198.404 411.332L213.07 411.895L176.321 427.687Z" fill="#E84545"/>
<path d="M252.165 821.684H251.967C251.703 821.641 251.452 821.538 251.234 821.383C251.016 821.228 250.836 821.025 250.708 820.79L190.123 704.917C189.959 704.502 189.959 704.04 190.123 703.626C190.264 703.21 190.561 702.866 190.951 702.666L197.804 699.355C198.19 699.194 198.622 699.185 199.014 699.33C199.406 699.475 199.729 699.763 199.917 700.136C200.106 700.509 200.147 700.94 200.031 701.341C199.915 701.743 199.652 702.086 199.294 702.301L193.963 704.983L252.662 817.314L352.545 710.909C352.733 710.705 352.973 710.556 353.24 710.479L474.974 672.903L414.752 576.893L410.316 577.224C410.098 577.247 409.877 577.225 409.667 577.16C409.458 577.095 409.263 576.988 409.096 576.845C408.929 576.703 408.792 576.528 408.695 576.331C408.597 576.135 408.541 575.92 408.528 575.701C408.501 575.267 408.645 574.84 408.93 574.512C409.215 574.183 409.618 573.98 410.051 573.946L415.514 573.516C415.814 573.485 416.116 573.541 416.386 573.676C416.656 573.81 416.881 574.019 417.037 574.277L478.913 673.035C479.024 673.262 479.082 673.511 479.082 673.763C479.082 674.016 479.024 674.265 478.913 674.492C478.824 674.731 478.682 674.947 478.499 675.124C478.316 675.302 478.096 675.436 477.854 675.518L354.465 713.558L253.39 821.221C253.059 821.531 252.619 821.697 252.165 821.684Z" fill="#E84545"/>
<path d="M253.49 805.893H253.225C252.978 805.849 252.745 805.748 252.544 805.599C252.343 805.45 252.18 805.256 252.066 805.033L194.129 694.423C193.946 694.085 193.889 693.693 193.968 693.318C194.047 692.942 194.257 692.606 194.56 692.37C194.824 692.138 222.038 669.858 234.884 639.002C246.736 610.53 267.13 596.394 289.444 601.161C289.675 601.211 289.893 601.311 290.082 601.454C290.27 601.597 290.425 601.779 290.536 601.989L344.533 699.422C344.689 699.702 344.76 700.021 344.738 700.341C344.716 700.66 344.601 700.967 344.409 701.222C344.216 701.478 343.953 701.673 343.652 701.782C343.351 701.891 343.024 701.911 342.712 701.839C341.819 701.64 320.531 697.237 315.73 717.73C310.566 739.647 287.954 767.854 277.095 781.394L275.903 782.917C269.408 790.988 262.291 798.538 254.615 805.496C254.301 805.761 253.901 805.902 253.49 805.893ZM197.639 694.026L253.92 801.556C260.856 795.111 267.317 788.174 273.254 780.798L274.446 779.276C285.173 766.033 307.553 738.124 312.42 716.935C316.757 698.528 332.88 697.601 339.965 698.131L287.987 604.207C267.659 600.267 248.987 613.675 237.896 640.26C226.177 668.401 202.836 689.556 197.639 694.026Z" fill="#E84545"/>
<path d="M343.043 701.741C342.749 701.746 342.458 701.671 342.202 701.526C341.946 701.38 341.734 701.169 341.586 700.914L287.589 603.447C287.475 603.081 287.475 602.688 287.589 602.322C291.496 584.113 311.492 575.836 352.412 575.836C388.135 575.836 402.602 564.481 402.735 564.381C402.919 564.233 403.131 564.124 403.359 564.062C403.587 563.999 403.825 563.984 404.059 564.017C404.289 564.059 404.508 564.149 404.702 564.28C404.896 564.411 405.06 564.581 405.185 564.779L465.77 663.536C465.988 663.905 466.058 664.342 465.966 664.76C465.873 665.178 465.626 665.545 465.273 665.788C465.108 665.788 460.837 668.635 435.874 676.514C418.56 682.01 399.457 681.248 384.062 680.652C377.954 680.308 371.83 680.308 365.721 680.652C351.221 681.844 344.831 700.517 344.765 700.517C344.663 700.822 344.474 701.092 344.221 701.292C343.968 701.492 343.662 701.614 343.341 701.642L343.043 701.741ZM290.801 602.421L342.811 696.312C345.526 690.353 352.545 678.467 365.291 677.408C371.532 677.064 377.788 677.064 384.029 677.408C399.126 678.004 417.931 678.732 434.716 673.435C443.924 670.737 452.976 667.532 461.83 663.834L403.132 568.089C398.497 571.102 383.102 579.213 352.247 579.213C313.644 579.246 294.641 586.53 290.801 602.421Z" fill="#E84545"/>
<path d="M295.635 766.366C295.265 766.373 294.904 766.257 294.608 766.035C294.265 765.756 294.045 765.353 293.995 764.914C293.946 764.474 294.071 764.033 294.343 763.684C300.733 755.673 305.798 748.588 310.268 742.331C315.198 734.708 320.973 727.667 327.483 721.341C333.181 716.446 339.532 712.368 346.354 709.224C346.552 709.137 346.765 709.09 346.98 709.086C347.196 709.082 347.411 709.122 347.611 709.202C347.811 709.282 347.994 709.401 348.148 709.553C348.301 709.705 348.423 709.885 348.506 710.085C348.674 710.489 348.678 710.943 348.518 711.351C348.357 711.759 348.044 712.088 347.645 712.27C341.141 715.291 335.081 719.19 329.635 723.857C323.364 730.019 317.81 736.871 313.082 744.284C308.579 750.574 303.481 757.527 297.025 765.77C296.857 765.973 296.644 766.133 296.402 766.236C296.16 766.34 295.897 766.384 295.635 766.366Z" fill="#E84545"/>
<path d="M357.511 704.489C357.146 704.493 356.793 704.364 356.518 704.125C356.171 703.857 355.946 703.462 355.89 703.028C355.834 702.594 355.953 702.155 356.22 701.808C362.472 694.238 371.352 689.307 381.083 688.002L387.009 687.539C412.408 686.145 437.4 680.552 460.969 670.985C461.382 670.827 461.841 670.84 462.244 671.02C462.648 671.2 462.963 671.533 463.121 671.945C463.279 672.358 463.267 672.817 463.087 673.22C462.907 673.624 462.574 673.939 462.161 674.097C438.285 683.746 412.985 689.405 387.274 690.849L381.381 691.313C372.567 692.546 364.529 697.02 358.835 703.86C358.673 704.054 358.47 704.211 358.242 704.32C358.013 704.428 357.764 704.486 357.511 704.489Z" fill="#E84545"/>
<path d="M215.317 709.754C214.994 709.757 214.678 709.664 214.407 709.489C214.135 709.313 213.922 709.062 213.791 708.766C213.661 708.471 213.62 708.143 213.674 707.825C213.727 707.506 213.873 707.21 214.093 706.973C225.347 694.036 235.848 680.462 245.544 666.318C264.249 639.634 277.989 628.742 292.986 628.742C293.425 628.742 293.846 628.917 294.156 629.227C294.467 629.537 294.641 629.959 294.641 630.398C294.641 630.837 294.467 631.258 294.156 631.568C293.846 631.878 293.425 632.053 292.986 632.053C279.214 632.053 266.236 642.548 248.259 668.239C238.464 682.485 227.875 696.168 216.542 709.225C216.386 709.393 216.197 709.527 215.986 709.618C215.775 709.71 215.547 709.756 215.317 709.754Z" fill="#E84545"/>
<path d="M225.845 726.864C225.43 726.867 225.028 726.713 224.72 726.433C224.566 726.282 224.443 726.102 224.36 725.903C224.276 725.704 224.233 725.49 224.233 725.275C224.233 725.059 224.276 724.845 224.36 724.646C224.443 724.447 224.566 724.267 224.72 724.116C235.964 711.15 246.475 697.566 256.204 683.428C274.877 656.744 288.616 645.852 303.646 645.852C304.083 645.86 304.499 646.037 304.807 646.346C305.116 646.654 305.293 647.071 305.302 647.507C305.302 647.946 305.127 648.367 304.817 648.677C304.506 648.988 304.085 649.162 303.646 649.162C289.841 649.162 276.896 659.657 258.886 685.348C249.091 699.594 238.502 713.278 227.17 726.334C227.002 726.516 226.797 726.657 226.568 726.749C226.338 726.841 226.092 726.88 225.845 726.864Z" fill="#E84545"/>
<path d="M236.373 743.981C236.056 743.978 235.747 743.883 235.483 743.709C235.218 743.535 235.009 743.289 234.88 743C234.751 742.711 234.708 742.39 234.755 742.077C234.803 741.764 234.939 741.471 235.148 741.233C246.388 728.275 256.899 714.702 266.633 700.578C285.305 673.861 299.044 662.969 314.075 662.969C314.511 662.977 314.927 663.154 315.236 663.463C315.544 663.772 315.722 664.188 315.73 664.624C315.73 665.063 315.556 665.484 315.245 665.795C314.935 666.105 314.514 666.279 314.075 666.279C300.269 666.279 287.324 676.774 269.347 702.465C259.536 716.708 248.936 730.391 237.598 743.451C237.443 743.621 237.254 743.757 237.043 743.848C236.831 743.939 236.603 743.985 236.373 743.981Z" fill="#E84545"/>
<path d="M246.901 761.104C246.7 761.108 246.499 761.072 246.312 760.998C246.124 760.925 245.953 760.814 245.809 760.674C245.655 760.523 245.532 760.342 245.448 760.143C245.365 759.945 245.322 759.731 245.322 759.515C245.322 759.299 245.365 759.086 245.448 758.887C245.532 758.688 245.655 758.507 245.809 758.356C257.061 745.409 267.573 731.835 277.293 717.701C295.965 690.984 309.705 680.125 324.735 680.125C325.174 680.125 325.595 680.299 325.906 680.61C326.216 680.92 326.391 681.341 326.391 681.78C326.391 682.219 326.216 682.64 325.906 682.951C325.595 683.261 325.174 683.436 324.735 683.436C310.93 683.436 297.985 693.897 280.008 719.588C270.22 733.848 259.619 747.533 248.259 760.574C248.089 760.762 247.878 760.908 247.643 761C247.407 761.092 247.153 761.128 246.901 761.104Z" fill="#E84545"/>
<path d="M311.426 624.169H310.864C310.456 624.012 310.126 623.704 309.94 623.309C309.755 622.914 309.73 622.463 309.87 622.05C309.87 621.884 315.796 606.457 336.356 606.457C374.925 606.457 399.954 600.497 403.265 590.466C403.405 590.027 403.714 589.662 404.124 589.451C404.327 589.346 404.548 589.283 404.776 589.264C405.003 589.245 405.232 589.271 405.45 589.341C405.667 589.41 405.869 589.522 406.043 589.669C406.217 589.817 406.36 589.997 406.465 590.2C406.57 590.403 406.633 590.624 406.652 590.852C406.671 591.079 406.645 591.308 406.575 591.526C401.311 607.417 360.424 609.767 336.521 609.767C318.246 609.767 313.347 622.613 313.049 623.176C312.913 623.488 312.685 623.751 312.394 623.928C312.104 624.106 311.766 624.19 311.426 624.169Z" fill="#E84545"/>
<path d="M323.279 643.904C322.91 643.907 322.55 643.791 322.253 643.573C321.911 643.3 321.692 642.903 321.643 642.469C321.593 642.035 321.717 641.599 321.988 641.256C322.385 640.726 331.92 628.741 357.511 628.741C385.023 628.741 405.45 622.286 418.262 609.473C418.572 609.17 418.988 609 419.421 609C419.854 609 420.27 609.17 420.58 609.473C420.735 609.627 420.858 609.81 420.942 610.012C421.026 610.214 421.069 610.43 421.069 610.648C421.069 610.867 421.026 611.083 420.942 611.285C420.858 611.487 420.735 611.67 420.58 611.824C407.171 625.265 385.95 632.218 357.511 632.218C333.741 632.218 324.669 643.341 324.603 643.441C324.43 643.61 324.221 643.74 323.992 643.82C323.764 643.9 323.52 643.929 323.279 643.904Z" fill="#E84545"/>
<path d="M331.191 663.67C330.951 663.662 330.714 663.606 330.496 663.504C330.299 663.416 330.121 663.288 329.973 663.129C329.826 662.97 329.712 662.783 329.638 662.58C329.564 662.376 329.531 662.16 329.542 661.943C329.553 661.727 329.607 661.515 329.702 661.319C332.764 655.623 337.371 650.906 342.992 647.709C348.614 644.511 355.023 642.964 361.484 643.243C389.161 643.243 413.396 637.449 426.34 627.782C426.512 627.648 426.71 627.549 426.921 627.492C427.133 627.436 427.353 627.423 427.57 627.454C427.786 627.485 427.994 627.559 428.181 627.672C428.368 627.786 428.53 627.936 428.658 628.113C428.913 628.468 429.021 628.907 428.959 629.339C428.897 629.771 428.671 630.162 428.327 630.431C408.893 644.965 375.091 646.554 361.484 646.554C355.652 646.281 349.861 647.65 344.769 650.506C339.677 653.363 335.489 657.591 332.681 662.71C332.553 662.997 332.344 663.241 332.079 663.411C331.815 663.582 331.506 663.672 331.191 663.67Z" fill="#E84545"/>
<path d="M340.395 678.132C340.242 678.163 340.084 678.163 339.931 678.132C339.515 678.002 339.165 677.715 338.955 677.333C338.745 676.95 338.692 676.501 338.806 676.08C339.004 675.484 343.374 661.778 366.648 660.42C390.87 659.139 414.71 653.847 437.199 644.761C437.401 644.644 437.624 644.572 437.856 644.548C438.087 644.524 438.321 644.549 438.542 644.621C438.763 644.694 438.966 644.812 439.139 644.968C439.311 645.125 439.448 645.315 439.542 645.528C439.635 645.741 439.683 645.972 439.682 646.204C439.68 646.437 439.63 646.666 439.534 646.878C439.438 647.09 439.298 647.279 439.124 647.434C438.95 647.588 438.745 647.704 438.523 647.773C415.689 657.053 391.462 662.447 366.847 663.731C346.023 664.956 342.149 676.543 341.984 676.974C341.878 677.311 341.666 677.606 341.38 677.815C341.094 678.023 340.749 678.134 340.395 678.132Z" fill="#E84545"/>
<path d="M1023.84 237.182C1023.59 237.154 1023.35 237.071 1023.14 236.939C1022.93 236.807 1022.75 236.63 1022.61 236.421L975.996 161.037L886.873 112.469C886.635 112.348 886.432 112.17 886.282 111.95C886.131 111.73 886.039 111.476 886.012 111.211C885.98 110.949 886.012 110.683 886.104 110.435C886.196 110.187 886.346 109.965 886.542 109.788L953.153 49.4339C953.317 49.2833 953.511 49.1676 953.721 49.0936C953.932 49.0196 954.155 48.989 954.377 49.0035C954.593 49.0176 954.804 49.0747 954.997 49.1713C955.19 49.268 955.362 49.4023 955.503 49.5663L958.979 53.5391C959.204 53.8745 959.299 54.2806 959.246 54.6809C959.192 55.0813 958.994 55.4483 958.689 55.7128C958.384 55.9774 957.992 56.1212 957.589 56.1172C957.185 56.1132 956.796 55.9616 956.496 55.6911L954.146 53.0094L890.481 110.681L977.85 158.322C978.097 158.477 978.311 158.679 978.479 158.918L1024.2 232.845L1077 176.829L1076.11 174.246C1076.04 174.04 1076.01 173.821 1076.02 173.603C1076.03 173.385 1076.09 173.171 1076.19 172.974C1076.28 172.778 1076.41 172.602 1076.58 172.456C1076.74 172.311 1076.93 172.199 1077.14 172.128C1077.34 172.056 1077.56 172.025 1077.78 172.038C1078 172.051 1078.21 172.107 1078.41 172.202C1078.61 172.297 1078.78 172.43 1078.93 172.594C1079.07 172.757 1079.18 172.947 1079.26 173.154L1080.48 176.696C1080.58 176.984 1080.6 177.294 1080.54 177.592C1080.47 177.89 1080.33 178.164 1080.12 178.385L1025.13 236.686C1024.96 236.855 1024.76 236.987 1024.53 237.072C1024.31 237.158 1024.07 237.195 1023.84 237.182Z" fill="#E84545"/>
<path d="M983.114 152.393C982.917 152.424 982.716 152.424 982.518 152.393C982.217 152.272 981.957 152.068 981.769 151.804C981.582 151.539 981.474 151.227 981.459 150.903C981.459 150.307 980.697 135.773 966.759 136.204C951.067 136.535 928.389 126.272 917.463 121.471L916.272 120.941C909.748 118.01 903.461 114.579 897.467 110.678C897.258 110.538 897.084 110.351 896.957 110.133C896.831 109.915 896.756 109.671 896.739 109.42C896.722 109.166 896.763 108.911 896.861 108.676C896.959 108.44 897.109 108.23 897.301 108.063L960.933 50.2253C961.233 49.9834 961.607 49.8516 961.992 49.8516C962.378 49.8516 962.751 49.9834 963.051 50.2253C975.707 59.0311 990.118 64.9943 1005.3 67.7057C1026.55 70.7184 1039.66 82.0409 1040.36 97.9652C1040.37 98.1981 1040.33 98.4305 1040.24 98.6473C1040.16 98.8641 1040.03 99.0604 1039.86 99.2233L984.372 152.194C983.994 152.419 983.544 152.49 983.114 152.393ZM967.256 132.76C971.385 132.682 975.398 134.122 978.535 136.807C981.672 139.493 983.714 143.236 984.273 147.327L1037.08 97.2369C1036.08 83.2327 1024.4 73.6649 1004.9 70.7515C989.598 68.1371 975.049 62.2292 962.257 53.4366L901.109 108.957C906.413 112.286 911.945 115.24 917.662 117.796L918.854 118.326C929.581 123.126 951.961 133.158 966.726 132.76H967.256Z" fill="#E84545"/>
<path d="M1027.77 226.985C1027.37 226.986 1026.97 226.845 1026.65 226.588C1026.38 226.323 1023.77 223.807 1014.33 208.776C1007.71 198.116 1004.8 185.204 1002.55 174.842C1001.74 170.74 1000.71 166.685 999.469 162.692C996.158 153.554 983.147 152.561 982.915 152.528C982.596 152.511 982.289 152.402 982.03 152.214C981.772 152.026 981.573 151.767 981.459 151.469C981.354 151.16 981.339 150.829 981.415 150.513C981.491 150.196 981.655 149.908 981.889 149.681L1037.38 96.8756C1037.66 96.6057 1038.04 96.4523 1038.44 96.4452C1051.45 95.8162 1060.55 107.867 1067.7 135.412C1073.86 159.083 1083.76 166.532 1083.86 166.598C1084.05 166.738 1084.21 166.917 1084.33 167.122C1084.45 167.327 1084.53 167.554 1084.55 167.79C1084.57 168.026 1084.54 168.263 1084.46 168.485C1084.38 168.707 1084.25 168.911 1084.09 169.081L1028.97 226.323C1028.82 226.51 1028.65 226.666 1028.44 226.78C1028.24 226.894 1028.01 226.964 1027.77 226.985ZM986.722 149.747C991.49 150.773 999.8 153.621 1002.58 161.599C1003.93 165.701 1005.04 169.88 1005.89 174.114C1008.11 184.244 1010.89 196.825 1017.28 207.022C1020.57 212.485 1024.14 217.778 1027.97 222.88L1080.71 168.022C1077.57 165.009 1069.89 155.971 1064.72 136.24C1058.27 111.376 1050.22 99.8221 1039.46 99.8221L986.722 149.747Z" fill="#E84545"/>
<path d="M976.791 156.83C976.543 156.827 976.299 156.768 976.076 156.66C975.852 156.551 975.656 156.394 975.5 156.201C972.401 152.411 968.791 149.068 964.774 146.269C959.614 143.172 954.129 140.652 948.419 138.754C943.453 136.867 937.825 134.715 931.303 131.801C930.904 131.621 930.593 131.289 930.437 130.88C930.282 130.47 930.296 130.016 930.475 129.616C930.561 129.416 930.686 129.235 930.844 129.084C931.001 128.933 931.187 128.815 931.391 128.738C931.595 128.661 931.813 128.625 932.031 128.634C932.249 128.643 932.463 128.695 932.66 128.789C939.083 131.636 944.678 133.788 949.578 135.675C955.553 137.644 961.284 140.287 966.661 143.554C970.933 146.535 974.786 150.076 978.116 154.082C978.384 154.435 978.504 154.879 978.448 155.319C978.392 155.758 978.166 156.159 977.818 156.433C977.531 156.678 977.169 156.819 976.791 156.83Z" fill="#E84545"/>
<path d="M1022.05 226.456C1021.78 226.455 1021.52 226.391 1021.29 226.27C1021.05 226.15 1020.85 225.975 1020.69 225.761C1010.11 211.51 1001.94 195.617 996.522 178.716C996.059 177.325 995.595 176.034 995.198 174.876C992.873 169.368 988.609 164.903 983.213 162.328C982.991 162.258 982.787 162.143 982.613 161.988C982.438 161.834 982.299 161.645 982.203 161.433C982.107 161.221 982.056 160.991 982.055 160.759C982.053 160.526 982.101 160.296 982.195 160.083C982.288 159.87 982.426 159.679 982.598 159.523C982.77 159.367 982.974 159.248 983.195 159.176C983.416 159.104 983.65 159.079 983.881 159.103C984.112 159.127 984.336 159.199 984.538 159.315C990.794 162.204 995.718 167.365 998.31 173.75C998.74 174.942 999.171 176.233 999.634 177.623C1004.96 194.272 1012.99 209.931 1023.4 223.973C1023.53 224.148 1023.62 224.347 1023.67 224.557C1023.72 224.768 1023.72 224.986 1023.69 225.199C1023.65 225.411 1023.57 225.615 1023.45 225.796C1023.34 225.978 1023.19 226.135 1023.01 226.257C1022.72 226.43 1022.38 226.5 1022.05 226.456Z" fill="#E84545"/>
<path d="M1020.89 107.011C1020.52 107.007 1020.17 106.881 1019.88 106.653C1019.59 106.425 1019.39 106.109 1019.3 105.752C1016.95 96.7806 1007.84 90.0599 987.815 82.5778C976.611 78.5245 965.646 73.8379 954.974 68.5405C954.766 68.4476 954.581 68.313 954.428 68.1453C954.275 67.9776 954.158 67.7802 954.085 67.5654C954.012 67.3507 953.983 67.1231 954.001 66.8969C954.02 66.6707 954.084 66.4507 954.191 66.2505C954.298 66.0503 954.445 65.8742 954.623 65.7332C954.801 65.5922 955.006 65.4893 955.225 65.4309C955.444 65.3724 955.673 65.3597 955.898 65.3934C956.122 65.4272 956.337 65.5067 956.53 65.6271C967.071 70.841 977.891 75.4719 988.941 79.4988C1010.13 87.3451 1019.86 94.7279 1022.51 104.892C1022.57 105.103 1022.58 105.322 1022.55 105.538C1022.52 105.754 1022.45 105.961 1022.33 106.149C1022.22 106.337 1022.08 106.5 1021.9 106.631C1021.73 106.762 1021.53 106.857 1021.32 106.911L1020.89 107.011Z" fill="#E84545"/>
<path d="M1011.32 116.971C1010.96 116.969 1010.61 116.849 1010.32 116.627C1010.03 116.406 1009.83 116.097 1009.73 115.747C1007.38 106.742 998.277 100.054 978.247 92.5718C967.045 88.5004 956.08 83.8029 945.405 78.5014C945.198 78.4085 945.012 78.274 944.86 78.1062C944.707 77.9385 944.59 77.7411 944.517 77.5264C944.443 77.3116 944.415 77.084 944.433 76.8578C944.451 76.6316 944.516 76.4116 944.623 76.2114C944.73 76.0112 944.877 75.8352 945.055 75.6942C945.232 75.5532 945.437 75.4503 945.657 75.3918C945.876 75.3333 946.105 75.3206 946.329 75.3544C946.554 75.3881 946.769 75.4676 946.961 75.588C957.505 80.8225 968.337 85.4539 979.406 89.4598C1000.56 97.3392 1010.29 104.689 1012.94 114.853C1013 115.064 1013.02 115.284 1012.99 115.502C1012.96 115.719 1012.89 115.928 1012.78 116.117C1012.67 116.306 1012.52 116.47 1012.34 116.6C1012.17 116.73 1011.96 116.822 1011.75 116.872C1011.62 116.937 1011.47 116.971 1011.32 116.971Z" fill="#E84545"/>
<path d="M1001.75 126.936C1001.39 126.934 1001.04 126.813 1000.75 126.591C1000.47 126.37 1000.26 126.061 1000.16 125.711C997.814 116.706 988.709 110.018 968.68 102.536C957.475 98.4827 946.51 93.7961 935.838 88.4987C935.644 88.3965 935.473 88.2572 935.333 88.0888C935.194 87.9204 935.088 87.7261 935.024 87.517C934.959 87.308 934.937 87.0883 934.957 86.8704C934.977 86.6526 935.04 86.4409 935.143 86.2474C935.245 86.0539 935.384 85.8825 935.552 85.7429C935.721 85.6032 935.915 85.4981 936.124 85.4336C936.333 85.369 936.553 85.3462 936.771 85.3666C936.989 85.387 937.2 85.45 937.394 85.5522C947.937 90.7867 958.77 95.4181 969.838 99.4239C990.994 107.303 1000.73 114.653 1003.38 124.85C1003.43 125.061 1003.44 125.28 1003.41 125.496C1003.38 125.712 1003.31 125.919 1003.2 126.107C1003.09 126.295 1002.94 126.459 1002.77 126.589C1002.59 126.72 1002.39 126.815 1002.18 126.869L1001.75 126.936Z" fill="#E84545"/>
<path d="M992.186 136.935C991.819 136.931 991.464 136.805 991.176 136.577C990.888 136.35 990.684 136.033 990.596 135.677C988.246 126.705 979.142 119.984 959.112 112.502C947.908 108.449 936.943 103.762 926.27 98.4648C925.884 98.2541 925.595 97.9009 925.465 97.4804C925.335 97.0599 925.374 96.6053 925.575 96.2135C925.791 95.8331 926.145 95.5495 926.563 95.4204C926.981 95.2913 927.433 95.3262 927.826 95.5183C938.362 100.77 949.195 105.402 960.271 109.39C981.426 117.269 991.159 124.652 993.808 134.816C993.863 135.027 993.875 135.246 993.845 135.462C993.814 135.678 993.742 135.886 993.631 136.073C993.52 136.261 993.374 136.425 993.2 136.556C993.025 136.686 992.827 136.781 992.616 136.835L992.186 136.935Z" fill="#E84545"/>
<path d="M1066.58 174.645C1055.35 173.884 1046.91 150.378 1041.81 130.812C1038.73 119.026 1029.66 117.933 1029.26 117.9C1028.83 117.85 1028.43 117.631 1028.16 117.29C1027.89 116.949 1027.76 116.514 1027.81 116.079C1027.86 115.649 1028.07 115.255 1028.4 114.977C1028.74 114.7 1029.16 114.561 1029.6 114.59C1030.09 114.59 1041.35 115.848 1045.02 129.951C1051.65 155.41 1059.79 170.871 1066.77 171.335C1066.99 171.347 1067.21 171.403 1067.4 171.498C1067.6 171.593 1067.77 171.726 1067.92 171.889C1068.06 172.052 1068.17 172.242 1068.24 172.448C1068.31 172.654 1068.34 172.872 1068.33 173.089C1068.3 173.525 1068.1 173.931 1067.77 174.222C1067.44 174.512 1067.01 174.664 1066.58 174.645Z" fill="#E84545"/>
<path d="M1055.95 187.69C1055.65 187.696 1055.35 187.616 1055.09 187.458C1043.7 180.837 1035.42 167.594 1030.46 148.69C1026.42 133.163 1017.68 129.091 1017.58 129.058C1017.23 128.854 1016.96 128.527 1016.83 128.139C1016.71 127.752 1016.73 127.331 1016.89 126.958C1017.05 126.585 1017.35 126.285 1017.72 126.117C1018.09 125.948 1018.51 125.923 1018.9 126.045C1019.33 126.045 1029.2 130.614 1033.67 147.862C1038.4 166.038 1046.18 178.387 1056.84 184.611C1057.22 184.832 1057.49 185.193 1057.6 185.614C1057.72 186.036 1057.66 186.484 1057.44 186.862C1057.29 187.12 1057.07 187.332 1056.81 187.478C1056.54 187.623 1056.25 187.696 1055.95 187.69Z" fill="#E84545"/>
<path d="M1045.02 196.128C1044.65 196.141 1044.28 196.011 1044 195.764C1030.75 185.269 1023.9 162.955 1021.52 153.818C1020.7 149.998 1018.83 146.481 1016.12 143.663C1013.41 140.845 1009.97 138.836 1006.19 137.86C1005.76 137.78 1005.38 137.533 1005.13 137.173C1004.88 136.813 1004.79 136.37 1004.87 135.94C1004.95 135.509 1005.19 135.126 1005.55 134.872C1005.91 134.619 1006.35 134.515 1006.79 134.583C1011.2 135.67 1015.22 137.97 1018.39 141.224C1021.56 144.477 1023.75 148.553 1024.73 152.99C1029.5 171.298 1037.48 186.329 1046.05 193.182C1046.22 193.317 1046.37 193.486 1046.48 193.678C1046.58 193.871 1046.65 194.082 1046.68 194.301C1046.7 194.52 1046.68 194.742 1046.62 194.953C1046.56 195.165 1046.45 195.362 1046.31 195.532C1046.16 195.725 1045.96 195.879 1045.74 195.983C1045.52 196.086 1045.27 196.136 1045.02 196.128Z" fill="#E84545"/>
<path d="M1035.46 206.127C1035.21 206.121 1034.96 206.062 1034.74 205.953C1034.52 205.845 1034.32 205.69 1034.16 205.498C1023.99 191.859 1016.16 176.62 1010.99 160.406C1006.69 147.164 998.641 146.535 998.31 146.535C997.868 146.509 997.454 146.311 997.157 145.983C996.859 145.654 996.703 145.222 996.721 144.78C996.714 144.559 996.756 144.34 996.842 144.137C996.929 143.934 997.058 143.752 997.222 143.604C997.386 143.456 997.58 143.345 997.791 143.28C998.001 143.214 998.224 143.195 998.443 143.224C998.873 143.224 1009.1 143.787 1014.14 159.38C1019.21 175.199 1026.84 190.083 1036.71 203.445C1036.98 203.792 1037.1 204.231 1037.04 204.666C1036.99 205.1 1036.76 205.494 1036.42 205.763C1036.14 205.981 1035.81 206.108 1035.46 206.127Z" fill="#E84545"/>
<path d="M123.628 113.32H123.231L111.246 110.341C110.993 110.276 110.76 110.153 110.564 109.981C110.368 109.809 110.215 109.594 110.118 109.352C110.022 109.11 109.983 108.848 110.007 108.589C110.03 108.329 110.114 108.079 110.253 107.858L165.574 21.1181C165.811 20.7449 166.187 20.4812 166.618 20.3849C167.05 20.2887 167.502 20.3678 167.875 20.6049C168.248 20.842 168.512 21.2176 168.608 21.6491C168.704 22.0806 168.625 22.5327 168.388 22.9058L114.292 107.692L122.9 109.844L177.559 28.5671C177.795 28.2175 178.154 27.9692 178.565 27.8711C178.976 27.7731 179.408 27.8324 179.777 28.0374L266.881 78.2603L276.349 68.7918L181.167 19.1317C180.777 18.9297 180.482 18.5808 180.349 18.1617C180.215 17.7426 180.254 17.2877 180.456 16.897C180.658 16.5062 181.006 16.2117 181.426 16.0782C181.845 15.9447 182.3 15.9832 182.69 16.1851L279.892 67.0371C280.125 67.1549 280.325 67.3283 280.475 67.5419C280.626 67.7556 280.721 68.0029 280.753 68.2621C280.793 68.5141 280.771 68.7719 280.691 69.014C280.61 69.256 280.472 69.475 280.289 69.6526L268.338 81.6372C268.081 81.8924 267.748 82.0566 267.389 82.1044C267.03 82.1522 266.666 82.0812 266.351 81.9021L179.446 31.8115L124.985 112.791C124.816 112.979 124.605 113.125 124.369 113.217C124.134 113.309 123.88 113.344 123.628 113.32Z" fill="#E84545"/>
<path d="M276.117 216.478C275.84 216.479 275.566 216.411 275.322 216.279L202.057 174.399C201.843 174.278 201.658 174.111 201.515 173.911C201.372 173.711 201.275 173.482 201.229 173.24L177.293 29.6892C177.226 29.2506 177.335 28.8034 177.595 28.444C177.855 28.0847 178.246 27.8422 178.684 27.769C178.899 27.7361 179.119 27.746 179.33 27.7981C179.541 27.8502 179.741 27.9435 179.916 28.0727C180.091 28.2019 180.239 28.3644 180.352 28.5508C180.464 28.7373 180.539 28.9442 180.571 29.1595L204.375 171.916L274.395 211.843L264.165 87.8578C264.146 87.4224 264.292 86.9957 264.575 86.6639C264.857 86.3321 265.255 86.1199 265.688 86.07C265.906 86.0519 266.125 86.077 266.333 86.1438C266.54 86.2107 266.733 86.318 266.899 86.4595C267.065 86.6011 267.202 86.7741 267.301 86.9686C267.4 87.1631 267.459 87.3753 267.476 87.5929L277.706 214.69C277.737 214.99 277.681 215.292 277.547 215.562C277.412 215.832 277.203 216.057 276.945 216.213C276.703 216.385 276.414 216.478 276.117 216.478Z" fill="#E84545"/>
<path d="M276.117 216.477C275.834 216.475 275.557 216.4 275.311 216.26C275.065 216.12 274.859 215.919 274.713 215.676C274.567 215.434 274.485 215.158 274.476 214.875C274.467 214.592 274.53 214.312 274.661 214.06L286.414 192.044L277.475 68.4237C277.459 68.2063 277.487 67.9881 277.556 67.7814C277.626 67.5748 277.735 67.3837 277.878 67.2193C278.166 66.8871 278.575 66.6832 279.014 66.6525C279.453 66.6218 279.886 66.7667 280.219 67.0554C280.551 67.3441 280.755 67.7529 280.785 68.192L289.757 192.409C289.762 192.718 289.694 193.024 289.559 193.302L277.706 215.583C277.558 215.871 277.329 216.11 277.046 216.269C276.764 216.428 276.441 216.5 276.117 216.477Z" fill="#E84545"/>
<path d="M153.523 242.069H153.192C152.876 242.011 152.585 241.86 152.355 241.636C152.125 241.412 151.967 241.125 151.9 240.811L126.475 124.176C126.386 123.742 126.472 123.29 126.713 122.918C126.955 122.547 127.333 122.285 127.766 122.19C127.979 122.146 128.198 122.145 128.412 122.186C128.625 122.228 128.828 122.311 129.01 122.431C129.191 122.551 129.347 122.705 129.469 122.885C129.591 123.065 129.676 123.268 129.719 123.481L154.35 236.507L201.561 171.982C201.82 171.627 202.209 171.389 202.644 171.32C203.079 171.252 203.522 171.359 203.878 171.618C204.234 171.877 204.472 172.267 204.54 172.701C204.608 173.136 204.501 173.58 204.242 173.936L154.88 241.242C154.746 241.487 154.551 241.692 154.312 241.837C154.074 241.983 153.802 242.063 153.523 242.069Z" fill="#E84545"/>
<path d="M153.523 242.07H153.324L139.883 240.58C139.541 240.54 139.22 240.394 138.965 240.163C138.709 239.931 138.533 239.626 138.459 239.289L110.054 109.18C110.008 108.962 110.006 108.738 110.047 108.52C110.088 108.301 110.171 108.093 110.293 107.907C110.414 107.721 110.571 107.561 110.754 107.436C110.938 107.31 111.144 107.222 111.361 107.177C111.579 107.131 111.803 107.129 112.021 107.17C112.24 107.211 112.448 107.294 112.634 107.416C112.82 107.537 112.98 107.694 113.105 107.877C113.231 108.061 113.319 108.267 113.364 108.484L141.538 237.402L153.788 238.76C154.227 238.76 154.648 238.934 154.958 239.244C155.269 239.555 155.443 239.976 155.443 240.415C155.443 240.854 155.269 241.275 154.958 241.585C154.648 241.896 154.227 242.07 153.788 242.07H153.523Z" fill="#E84545"/>
<path d="M143.061 134.244C142.757 134.245 142.457 134.163 142.197 134.005C141.936 133.848 141.723 133.621 141.583 133.351C141.443 133.08 141.38 132.776 141.401 132.473C141.422 132.169 141.527 131.876 141.704 131.628L180.604 77.7966C180.726 77.6175 180.883 77.4652 181.066 77.3491C181.249 77.233 181.454 77.1555 181.668 77.1214C181.882 77.0873 182.1 77.0973 182.31 77.1508C182.52 77.2042 182.717 77.3001 182.889 77.4324C183.068 77.5579 183.22 77.7175 183.337 77.9022C183.454 78.0869 183.533 78.2929 183.57 78.5084C183.607 78.7238 183.601 78.9445 183.552 79.1576C183.504 79.3707 183.413 79.572 183.286 79.7499L144.386 133.581C144.233 133.789 144.034 133.957 143.803 134.072C143.573 134.188 143.319 134.246 143.061 134.244Z" fill="#E84545"/>
<path d="M146.041 159.668C145.698 159.666 145.364 159.562 145.081 159.37C144.732 159.106 144.499 158.717 144.431 158.285C144.363 157.852 144.465 157.41 144.717 157.052L183.584 103.221C183.709 103.041 183.869 102.888 184.055 102.771C184.241 102.655 184.448 102.577 184.665 102.543C184.882 102.509 185.103 102.519 185.315 102.573C185.528 102.627 185.727 102.723 185.902 102.857C186.249 103.114 186.481 103.498 186.549 103.925C186.617 104.351 186.515 104.788 186.266 105.141L147.398 158.972C147.246 159.191 147.043 159.368 146.806 159.49C146.57 159.611 146.307 159.672 146.041 159.668Z" fill="#E84545"/>
<path d="M149.021 185.09C148.672 185.093 148.333 184.976 148.061 184.759C147.714 184.501 147.481 184.118 147.413 183.691C147.345 183.264 147.447 182.827 147.696 182.474L186.564 128.643C186.689 128.464 186.849 128.311 187.034 128.194C187.218 128.077 187.424 127.998 187.64 127.961C187.855 127.924 188.076 127.93 188.289 127.979C188.502 128.028 188.703 128.119 188.881 128.246C189.23 128.509 189.464 128.898 189.532 129.331C189.599 129.763 189.497 130.205 189.245 130.563L150.378 184.395C150.226 184.613 150.023 184.791 149.786 184.912C149.549 185.033 149.287 185.094 149.021 185.09Z" fill="#E84545"/>
<path d="M151.901 210.523C151.552 210.529 151.212 210.411 150.941 210.192C150.762 210.067 150.609 209.907 150.492 209.722C150.375 209.538 150.296 209.332 150.259 209.116C150.222 208.901 150.228 208.68 150.277 208.467C150.326 208.254 150.416 208.052 150.543 207.875L189.444 154.043C189.702 153.696 190.085 153.464 190.512 153.396C190.939 153.328 191.375 153.429 191.728 153.679C191.907 153.804 192.06 153.964 192.177 154.149C192.294 154.333 192.373 154.539 192.41 154.755C192.447 154.97 192.441 155.191 192.392 155.404C192.343 155.617 192.253 155.818 192.126 155.996L153.225 209.828C153.074 210.04 152.876 210.213 152.646 210.334C152.416 210.454 152.161 210.519 151.901 210.523Z" fill="#E84545"/>
<path d="M250.725 111.824C250.432 111.83 250.144 111.749 249.897 111.593L197.555 81.7965C197.173 81.577 196.894 81.2147 196.779 80.7894C196.664 80.3641 196.723 79.9106 196.943 79.5287C197.162 79.1467 197.524 78.8676 197.95 78.7528C198.375 78.6379 198.828 78.6967 199.21 78.9162L251.552 108.712C251.93 108.94 252.204 109.306 252.316 109.733C252.427 110.16 252.367 110.614 252.148 110.997C252.004 111.247 251.796 111.455 251.547 111.6C251.297 111.745 251.013 111.823 250.725 111.824Z" fill="#E84545"/>
<path d="M250.725 135.729C250.437 135.73 250.153 135.662 249.897 135.53L197.555 105.734C197.344 105.639 197.155 105.5 197.001 105.327C196.847 105.154 196.731 104.951 196.66 104.73C196.59 104.51 196.566 104.277 196.591 104.047C196.616 103.816 196.689 103.594 196.806 103.394C196.922 103.193 197.079 103.02 197.267 102.884C197.455 102.748 197.669 102.654 197.896 102.606C198.122 102.558 198.356 102.558 198.583 102.607C198.809 102.655 199.023 102.751 199.21 102.887L251.552 132.683C251.928 132.904 252.202 133.265 252.313 133.686C252.425 134.108 252.365 134.556 252.148 134.934C252 135.178 251.79 135.38 251.541 135.519C251.292 135.658 251.01 135.73 250.725 135.729Z" fill="#E84545"/>
<path d="M258.173 161.159C257.897 161.157 257.624 161.089 257.379 160.961L205.037 131.165C204.656 130.949 204.375 130.591 204.257 130.169C204.139 129.747 204.194 129.296 204.408 128.913C204.63 128.53 204.994 128.249 205.421 128.131C205.849 128.013 206.305 128.068 206.692 128.284L259.001 158.08C259.193 158.184 259.363 158.325 259.499 158.496C259.635 158.666 259.736 158.862 259.795 159.072C259.853 159.282 259.869 159.502 259.841 159.719C259.813 159.935 259.741 160.144 259.63 160.332C259.483 160.587 259.27 160.798 259.014 160.943C258.758 161.089 258.468 161.163 258.173 161.159Z" fill="#E84545"/>
<path d="M259.696 186.582C259.404 186.588 259.116 186.507 258.869 186.35L206.527 156.554C206.338 156.446 206.172 156.301 206.039 156.128C205.906 155.955 205.808 155.758 205.751 155.547C205.694 155.337 205.679 155.117 205.707 154.901C205.735 154.684 205.806 154.476 205.914 154.287C206.023 154.097 206.168 153.932 206.341 153.798C206.513 153.665 206.711 153.567 206.921 153.511C207.132 153.454 207.352 153.439 207.568 153.467C207.784 153.495 207.993 153.565 208.182 153.674L260.524 183.47C260.835 183.654 261.076 183.935 261.213 184.27C261.349 184.605 261.372 184.975 261.278 185.324C261.184 185.672 260.979 185.981 260.693 186.202C260.408 186.424 260.057 186.545 259.696 186.549V186.582Z" fill="#E84545"/>
<path d="M1050.86 854.891C1050.67 854.937 1050.46 854.937 1050.27 854.891L948.43 814.103C948.186 814.009 947.968 813.858 947.796 813.662C947.623 813.466 947.5 813.231 947.437 812.977C947.377 812.726 947.375 812.463 947.433 812.211C947.49 811.958 947.605 811.722 947.768 811.521L958.461 798.278C958.695 798.002 959.01 797.808 959.362 797.724C959.713 797.641 960.082 797.673 960.415 797.815L1051.92 838.9L1097.94 752.823C1098.11 752.532 1098.36 752.297 1098.66 752.144C1098.96 751.992 1099.29 751.929 1099.63 751.962L1111.85 753.75C1112.1 753.781 1112.35 753.876 1112.57 754.027C1112.78 754.177 1112.95 754.377 1113.07 754.61C1113.19 754.846 1113.26 755.107 1113.26 755.372C1113.26 755.637 1113.19 755.898 1113.07 756.133L1066.72 847.971C1066.52 848.366 1066.18 848.667 1065.76 848.807C1065.34 848.946 1064.88 848.914 1064.49 848.716C1064.09 848.519 1063.79 848.172 1063.65 847.753C1063.51 847.334 1063.54 846.877 1063.74 846.481L1109.03 756.696L1100.26 755.405L1054.17 841.648C1053.97 842.015 1053.64 842.293 1053.24 842.428C1052.84 842.563 1052.41 842.544 1052.02 842.376L960.282 801.191L951.807 811.852L1051.56 851.58C1051.96 851.749 1052.28 852.068 1052.46 852.469C1052.63 852.87 1052.64 853.323 1052.48 853.732C1052.37 854.072 1052.15 854.368 1051.86 854.576C1051.57 854.785 1051.22 854.895 1050.86 854.891Z" fill="#E84545"/>
<path d="M1052.72 842.608C1052.35 842.615 1052 842.503 1051.7 842.287C1051.41 842.072 1051.2 841.766 1051.09 841.416L1013.05 701.739L939.524 669.062L962.169 791.392C962.247 791.822 962.151 792.265 961.903 792.625C961.655 792.985 961.275 793.232 960.845 793.312C960.415 793.389 959.972 793.294 959.612 793.046C959.252 792.798 959.005 792.417 958.925 791.988L935.75 666.579C935.685 666.285 935.707 665.979 935.812 665.696C935.918 665.414 936.104 665.169 936.346 664.99C936.58 664.802 936.861 664.681 937.158 664.64C937.456 664.6 937.759 664.64 938.035 664.759L1015.14 699.057C1015.36 699.155 1015.56 699.3 1015.72 699.483C1015.88 699.666 1016 699.883 1016.07 700.117L1054.17 840.522C1054.28 840.948 1054.22 841.397 1054 841.778C1053.78 842.159 1053.43 842.444 1053.01 842.575L1052.72 842.608Z" fill="#E84545"/>
<path d="M949.125 814.034C948.733 814.038 948.351 813.899 948.053 813.643C947.755 813.388 947.559 813.032 947.503 812.643L926.05 690.148C925.983 689.854 925.983 689.549 926.05 689.254L935.717 665.715C935.91 665.352 936.232 665.073 936.619 664.934C937.006 664.794 937.431 664.804 937.812 664.961C938.192 665.118 938.5 665.412 938.676 665.784C938.852 666.156 938.883 666.58 938.763 666.974L929.295 690.148L950.648 812.246C950.686 812.461 950.681 812.682 950.634 812.895C950.586 813.109 950.496 813.311 950.37 813.489C950.244 813.668 950.083 813.819 949.898 813.936C949.713 814.052 949.507 814.13 949.291 814.166L949.125 814.034Z" fill="#E84545"/>
<path d="M1093.9 743.782C1093.55 743.779 1093.21 743.666 1092.92 743.458C1092.64 743.25 1092.42 742.959 1092.31 742.624L1056.42 632.643L1015.97 701.406C1015.74 701.775 1015.38 702.04 1014.96 702.144C1014.53 702.248 1014.09 702.182 1013.71 701.961C1013.34 701.739 1013.07 701.38 1012.96 700.96C1012.85 700.541 1012.91 700.094 1013.12 699.717L1055.43 627.809C1055.59 627.531 1055.83 627.307 1056.12 627.165C1056.41 627.024 1056.73 626.971 1057.05 627.015C1057.37 627.049 1057.67 627.174 1057.91 627.374C1058.16 627.573 1058.34 627.839 1058.44 628.14L1095.46 741.597C1095.53 741.804 1095.56 742.022 1095.54 742.24C1095.53 742.458 1095.47 742.671 1095.37 742.866C1095.27 743.061 1095.14 743.233 1094.97 743.374C1094.8 743.514 1094.61 743.619 1094.4 743.683L1093.9 743.782Z" fill="#E84545"/>
<path d="M1111.68 756.987C1111.33 756.992 1110.99 756.885 1110.7 756.683C1110.42 756.481 1110.2 756.193 1110.09 755.862L1069.1 630.42H1056.76C1056.32 630.42 1055.9 630.246 1055.58 629.935C1055.27 629.625 1055.1 629.204 1055.1 628.765C1055.12 628.325 1055.3 627.909 1055.62 627.601C1055.93 627.294 1056.35 627.118 1056.79 627.109H1070.33C1070.68 627.114 1071.02 627.229 1071.29 627.437C1071.57 627.645 1071.78 627.936 1071.89 628.268L1113.24 754.835C1113.31 755.042 1113.34 755.26 1113.32 755.478C1113.31 755.696 1113.25 755.909 1113.15 756.104C1113.05 756.299 1112.91 756.471 1112.75 756.612C1112.58 756.752 1112.39 756.857 1112.18 756.921L1111.68 756.987Z" fill="#E84545"/>
<path d="M1044.77 793.84C1044.48 793.846 1044.19 793.766 1043.94 793.609C1043.57 793.387 1043.29 793.029 1043.18 792.61C1043.06 792.19 1043.11 791.741 1043.31 791.357L1076.42 733.884C1076.64 733.509 1077 733.234 1077.42 733.117C1077.84 733 1078.29 733.049 1078.67 733.255C1079.05 733.483 1079.33 733.847 1079.44 734.272C1079.56 734.697 1079.51 735.151 1079.3 735.539L1046.03 793.013C1045.9 793.24 1045.72 793.434 1045.5 793.578C1045.28 793.722 1045.03 793.812 1044.77 793.84Z" fill="#E84545"/>
<path d="M1039.24 768.811C1038.95 768.821 1038.66 768.74 1038.41 768.579C1038.03 768.364 1037.75 768.006 1037.63 767.584C1037.52 767.162 1037.57 766.71 1037.79 766.328L1071.06 708.888C1071.15 708.677 1071.29 708.488 1071.46 708.334C1071.64 708.18 1071.84 708.064 1072.06 707.993C1072.28 707.922 1072.52 707.899 1072.75 707.924C1072.98 707.949 1073.2 708.022 1073.4 708.138C1073.6 708.255 1073.77 708.412 1073.91 708.6C1074.04 708.787 1074.14 709.001 1074.19 709.228C1074.23 709.455 1074.23 709.689 1074.19 709.915C1074.14 710.142 1074.04 710.356 1073.91 710.543L1040.8 768.016C1040.64 768.281 1040.41 768.495 1040.13 768.636C1039.86 768.776 1039.55 768.837 1039.24 768.811Z" fill="#E84545"/>
<path d="M1033.68 743.849C1033.39 743.851 1033.1 743.771 1032.85 743.617C1032.66 743.511 1032.5 743.368 1032.36 743.196C1032.23 743.024 1032.13 742.828 1032.08 742.618C1032.02 742.408 1032.01 742.189 1032.04 741.974C1032.07 741.759 1032.14 741.552 1032.26 741.366L1065.53 683.893C1065.77 683.561 1066.12 683.331 1066.53 683.247C1066.93 683.162 1067.35 683.229 1067.7 683.435C1068.05 683.641 1068.32 683.971 1068.44 684.362C1068.57 684.752 1068.54 685.175 1068.38 685.548L1035.27 743.021C1035.11 743.294 1034.87 743.517 1034.59 743.663C1034.31 743.81 1034 743.874 1033.68 743.849Z" fill="#E84545"/>
<path d="M1028.15 718.853C1027.86 718.855 1027.57 718.774 1027.32 718.621C1027.13 718.515 1026.97 718.371 1026.84 718.2C1026.7 718.028 1026.61 717.831 1026.55 717.621C1026.49 717.411 1026.48 717.192 1026.51 716.977C1026.54 716.762 1026.62 716.556 1026.73 716.37L1059.83 658.896C1060.06 658.518 1060.43 658.244 1060.86 658.133C1061.28 658.021 1061.74 658.082 1062.12 658.3C1062.31 658.407 1062.47 658.55 1062.61 658.722C1062.74 658.893 1062.84 659.09 1062.89 659.3C1062.95 659.51 1062.96 659.729 1062.93 659.944C1062.9 660.159 1062.83 660.366 1062.71 660.552L1029.44 718.025C1029.31 718.257 1029.12 718.453 1028.9 718.597C1028.67 718.742 1028.42 718.829 1028.15 718.853Z" fill="#E84545"/>
<path d="M1028.25 794.004C1028.02 794 1027.79 793.943 1027.59 793.839L972.499 769.373C972.299 769.287 972.117 769.161 971.967 769.004C971.816 768.846 971.698 768.66 971.621 768.456C971.544 768.252 971.508 768.035 971.517 767.817C971.526 767.599 971.578 767.385 971.671 767.188C971.758 766.987 971.883 766.806 972.04 766.654C972.197 766.502 972.382 766.383 972.585 766.303C972.788 766.223 973.005 766.184 973.223 766.188C973.441 766.192 973.657 766.239 973.856 766.327L1028.91 790.826C1029.35 790.914 1029.74 791.172 1029.99 791.545C1030.23 791.917 1030.33 792.373 1030.24 792.812C1030.15 793.251 1029.89 793.637 1029.52 793.886C1029.15 794.134 1028.69 794.224 1028.25 794.137V794.004Z" fill="#E84545"/>
<path d="M1025.83 770.199C1025.61 770.233 1025.39 770.233 1025.17 770.199L970.081 745.633C969.87 745.553 969.677 745.431 969.515 745.274C969.353 745.116 969.224 744.928 969.138 744.719C969.051 744.51 969.008 744.286 969.012 744.06C969.015 743.834 969.065 743.611 969.158 743.405C969.251 743.199 969.385 743.014 969.552 742.862C969.719 742.71 969.915 742.593 970.129 742.52C970.342 742.446 970.569 742.417 970.794 742.435C971.02 742.452 971.239 742.515 971.439 742.621L1026.5 767.087C1026.93 767.174 1027.32 767.433 1027.57 767.805C1027.82 768.178 1027.91 768.634 1027.82 769.073C1027.73 769.512 1027.47 769.898 1027.1 770.146C1026.73 770.395 1026.27 770.485 1025.83 770.397V770.199Z" fill="#E84545"/>
<path d="M1015.84 745.637C1015.61 745.633 1015.38 745.576 1015.17 745.471L960.084 721.006C959.883 720.92 959.702 720.794 959.551 720.637C959.4 720.479 959.283 720.293 959.205 720.089C959.128 719.885 959.093 719.668 959.101 719.45C959.11 719.232 959.163 719.018 959.256 718.82C959.342 718.62 959.467 718.439 959.624 718.287C959.781 718.135 959.966 718.015 960.169 717.935C960.372 717.855 960.589 717.816 960.808 717.821C961.026 717.825 961.241 717.872 961.441 717.96L1016.5 742.459C1016.7 742.545 1016.88 742.67 1017.03 742.827C1017.18 742.984 1017.3 743.169 1017.38 743.372C1017.46 743.575 1017.5 743.792 1017.5 744.01C1017.49 744.229 1017.45 744.444 1017.36 744.644C1017.23 744.937 1017.01 745.187 1016.74 745.363C1016.47 745.539 1016.16 745.634 1015.84 745.637Z" fill="#E84545"/>
<path d="M1011.8 720.509C1011.58 720.558 1011.35 720.558 1011.13 720.509L956.045 695.977C955.823 695.907 955.619 695.791 955.445 695.637C955.27 695.482 955.131 695.293 955.035 695.081C954.939 694.87 954.888 694.64 954.887 694.407C954.885 694.175 954.933 693.944 955.027 693.731C955.12 693.518 955.258 693.328 955.43 693.171C955.602 693.015 955.806 692.897 956.027 692.824C956.248 692.752 956.482 692.727 956.713 692.751C956.944 692.775 957.168 692.848 957.37 692.964L1012.46 717.463C1012.66 717.549 1012.84 717.674 1012.99 717.831C1013.14 717.988 1013.26 718.173 1013.34 718.376C1013.42 718.579 1013.46 718.796 1013.46 719.014C1013.45 719.233 1013.41 719.448 1013.32 719.648C1013.17 719.914 1012.94 720.135 1012.68 720.286C1012.41 720.437 1012.1 720.514 1011.8 720.509Z" fill="#E84545"/>
</g>
<defs>
<clipPath id="clip0_0_1">
<rect width="1920" height="5895" fill="white" transform="translate(-313 -4439)"/>
</clipPath>
</defs>
</svg>
